%TF.GenerationSoftware,KiCad,Pcbnew,9.0.7*%
%TF.CreationDate,2026-04-05T20:44:23-07:00*%
%TF.ProjectId,Power-Distribution-Board,506f7765-722d-4446-9973-747269627574,rev?*%
%TF.SameCoordinates,Original*%
%TF.FileFunction,Paste,Top*%
%TF.FilePolarity,Positive*%
%FSLAX46Y46*%
G04 Gerber Fmt 4.6, Leading zero omitted, Abs format (unit mm)*
G04 Created by KiCad (PCBNEW 9.0.7) date 2026-04-05 20:44:23*
%MOMM*%
%LPD*%
G01*
G04 APERTURE LIST*
G04 Aperture macros list*
%AMRoundRect*
0 Rectangle with rounded corners*
0 $1 Rounding radius*
0 $2 $3 $4 $5 $6 $7 $8 $9 X,Y pos of 4 corners*
0 Add a 4 corners polygon primitive as box body*
4,1,4,$2,$3,$4,$5,$6,$7,$8,$9,$2,$3,0*
0 Add four circle primitives for the rounded corners*
1,1,$1+$1,$2,$3*
1,1,$1+$1,$4,$5*
1,1,$1+$1,$6,$7*
1,1,$1+$1,$8,$9*
0 Add four rect primitives between the rounded corners*
20,1,$1+$1,$2,$3,$4,$5,0*
20,1,$1+$1,$4,$5,$6,$7,0*
20,1,$1+$1,$6,$7,$8,$9,0*
20,1,$1+$1,$8,$9,$2,$3,0*%
G04 Aperture macros list end*
%ADD10RoundRect,0.250000X0.475000X-0.337500X0.475000X0.337500X-0.475000X0.337500X-0.475000X-0.337500X0*%
%ADD11RoundRect,0.465000X-1.085000X-2.035000X1.085000X-2.035000X1.085000X2.035000X-1.085000X2.035000X0*%
%ADD12R,0.450000X0.250000*%
%ADD13R,0.250000X0.330000*%
%ADD14R,0.250000X0.450000*%
%ADD15R,1.330000X3.100000*%
%ADD16R,0.950000X3.100000*%
%ADD17RoundRect,0.250000X0.650000X-0.412500X0.650000X0.412500X-0.650000X0.412500X-0.650000X-0.412500X0*%
%ADD18RoundRect,0.465000X-2.035000X1.085000X-2.035000X-1.085000X2.035000X-1.085000X2.035000X1.085000X0*%
%ADD19R,1.200000X0.600000*%
%ADD20RoundRect,0.250000X0.337500X0.475000X-0.337500X0.475000X-0.337500X-0.475000X0.337500X-0.475000X0*%
%ADD21R,0.330000X0.250000*%
%ADD22R,3.100000X1.330000*%
%ADD23R,3.100000X0.950000*%
%ADD24RoundRect,0.250000X-0.475000X0.337500X-0.475000X-0.337500X0.475000X-0.337500X0.475000X0.337500X0*%
%ADD25RoundRect,0.250000X-0.337500X-0.475000X0.337500X-0.475000X0.337500X0.475000X-0.337500X0.475000X0*%
%ADD26RoundRect,0.465000X2.035000X-1.085000X2.035000X1.085000X-2.035000X1.085000X-2.035000X-1.085000X0*%
%ADD27RoundRect,0.250000X-0.412500X-0.650000X0.412500X-0.650000X0.412500X0.650000X-0.412500X0.650000X0*%
%ADD28RoundRect,0.250000X0.412500X0.650000X-0.412500X0.650000X-0.412500X-0.650000X0.412500X-0.650000X0*%
%ADD29RoundRect,0.250000X-0.650000X0.412500X-0.650000X-0.412500X0.650000X-0.412500X0.650000X0.412500X0*%
%ADD30R,1.300000X1.000000*%
%ADD31R,3.050000X3.200000*%
%ADD32R,0.650000X1.250000*%
%ADD33RoundRect,0.237500X-0.237500X0.250000X-0.237500X-0.250000X0.237500X-0.250000X0.237500X0.250000X0*%
%ADD34RoundRect,0.465000X1.085000X2.035000X-1.085000X2.035000X-1.085000X-2.035000X1.085000X-2.035000X0*%
G04 APERTURE END LIST*
D10*
%TO.C,C16*%
X-26000000Y-21387500D03*
X-26000000Y-19312500D03*
%TD*%
D11*
%TO.C,L6*%
X34000000Y-24675000D03*
X45100000Y-24725000D03*
%TD*%
D10*
%TO.C,C18*%
X-28305000Y5000000D03*
X-28305000Y7075000D03*
%TD*%
D12*
%TO.C,U7*%
X20287500Y-2525000D03*
X20287500Y-3025000D03*
X20287500Y-3525000D03*
X20287500Y-4025000D03*
X20287500Y-4525000D03*
X20287500Y-5025000D03*
D13*
X20862500Y-5660000D03*
X21362500Y-5660000D03*
X21862500Y-5660000D03*
X22862500Y-5660000D03*
X23362500Y-5660000D03*
D12*
X23937500Y-5025000D03*
X23937500Y-4525000D03*
X23937500Y-4025000D03*
X23937500Y-3525000D03*
X23937500Y-3025000D03*
X23937500Y-2525000D03*
D14*
X23362500Y-1955000D03*
X22862500Y-1955000D03*
X22362500Y-1955000D03*
X21862500Y-1955000D03*
X21362500Y-1955000D03*
X20862500Y-1955000D03*
D15*
X21447500Y-3945000D03*
D16*
X22967500Y-3945000D03*
%TD*%
D17*
%TO.C,C15*%
X-37250000Y-21075000D03*
X-37250000Y-17950000D03*
%TD*%
D18*
%TO.C,L5*%
X33200000Y3050000D03*
X33150000Y-8050000D03*
%TD*%
D19*
%TO.C,U3*%
X3900000Y16987500D03*
X3900000Y16037500D03*
X3900000Y15087500D03*
X6400000Y15087500D03*
X6400000Y16987500D03*
%TD*%
D10*
%TO.C,C39*%
X-13350000Y-41400000D03*
X-13350000Y-39325000D03*
%TD*%
D20*
%TO.C,C36*%
X-11000000Y-24687500D03*
X-13075000Y-24687500D03*
%TD*%
%TO.C,C29*%
X33337500Y-11300000D03*
X31262500Y-11300000D03*
%TD*%
D14*
%TO.C,U8*%
X26700000Y-18975000D03*
X26200000Y-18975000D03*
X25700000Y-18975000D03*
X25200000Y-18975000D03*
X24700000Y-18975000D03*
X24200000Y-18975000D03*
D21*
X23565000Y-19550000D03*
X23565000Y-20050000D03*
X23565000Y-20550000D03*
X23565000Y-21550000D03*
X23565000Y-22050000D03*
D14*
X24200000Y-22625000D03*
X24700000Y-22625000D03*
X25200000Y-22625000D03*
X25700000Y-22625000D03*
X26200000Y-22625000D03*
X26700000Y-22625000D03*
D12*
X27270000Y-22050000D03*
X27270000Y-21550000D03*
X27270000Y-21050000D03*
X27270000Y-20550000D03*
X27270000Y-20050000D03*
X27270000Y-19550000D03*
D22*
X25280000Y-20135000D03*
D23*
X25280000Y-21655000D03*
%TD*%
D12*
%TO.C,U9*%
X-8750000Y-30087500D03*
X-8750000Y-29587500D03*
X-8750000Y-29087500D03*
X-8750000Y-28587500D03*
X-8750000Y-28087500D03*
X-8750000Y-27587500D03*
D13*
X-9325000Y-26952500D03*
X-9825000Y-26952500D03*
X-10325000Y-26952500D03*
X-11325000Y-26952500D03*
X-11825000Y-26952500D03*
D12*
X-12400000Y-27587500D03*
X-12400000Y-28087500D03*
X-12400000Y-28587500D03*
X-12400000Y-29087500D03*
X-12400000Y-29587500D03*
X-12400000Y-30087500D03*
D14*
X-11825000Y-30657500D03*
X-11325000Y-30657500D03*
X-10825000Y-30657500D03*
X-10325000Y-30657500D03*
X-9825000Y-30657500D03*
X-9325000Y-30657500D03*
D15*
X-9910000Y-28667500D03*
D16*
X-11430000Y-28667500D03*
%TD*%
D24*
%TO.C,C8*%
X8800000Y17062500D03*
X8800000Y14987500D03*
%TD*%
D25*
%TO.C,C3*%
X-16037500Y-800000D03*
X-13962500Y-800000D03*
%TD*%
%TO.C,C19*%
X-43775000Y-2400000D03*
X-41700000Y-2400000D03*
%TD*%
D24*
%TO.C,C9*%
X200000Y17137500D03*
X200000Y15062500D03*
%TD*%
D26*
%TO.C,L4*%
X-33150000Y12250000D03*
X-33100000Y23350000D03*
%TD*%
D10*
%TO.C,C41*%
X6300000Y-39425000D03*
X6300000Y-37350000D03*
%TD*%
D14*
%TO.C,U6*%
X-34040000Y3350000D03*
X-33540000Y3350000D03*
X-33040000Y3350000D03*
X-32540000Y3350000D03*
X-32040000Y3350000D03*
X-31540000Y3350000D03*
D21*
X-30905000Y3925000D03*
X-30905000Y4425000D03*
X-30905000Y4925000D03*
X-30905000Y5925000D03*
X-30905000Y6425000D03*
D14*
X-31540000Y7000000D03*
X-32040000Y7000000D03*
X-32540000Y7000000D03*
X-33040000Y7000000D03*
X-33540000Y7000000D03*
X-34040000Y7000000D03*
D12*
X-34610000Y6425000D03*
X-34610000Y5925000D03*
X-34610000Y5425000D03*
X-34610000Y4925000D03*
X-34610000Y4425000D03*
X-34610000Y3925000D03*
D22*
X-32620000Y4510000D03*
D23*
X-32620000Y6030000D03*
%TD*%
D17*
%TO.C,C17*%
X-38900000Y6237500D03*
X-38900000Y9362500D03*
%TD*%
D18*
%TO.C,L8*%
X14300000Y-30200000D03*
X14250000Y-41300000D03*
%TD*%
D27*
%TO.C,C25*%
X21675000Y2200000D03*
X24800000Y2200000D03*
%TD*%
D24*
%TO.C,C20*%
X-24800000Y23312500D03*
X-24800000Y21237500D03*
%TD*%
D28*
%TO.C,C35*%
X-10200000Y-35150000D03*
X-13325000Y-35150000D03*
%TD*%
D29*
%TO.C,C27*%
X30050000Y-23025000D03*
X30050000Y-26150000D03*
%TD*%
D14*
%TO.C,U10*%
X5360000Y-24625000D03*
X4860000Y-24625000D03*
X4360000Y-24625000D03*
X3860000Y-24625000D03*
X3360000Y-24625000D03*
X2860000Y-24625000D03*
D21*
X2225000Y-25200000D03*
X2225000Y-25700000D03*
X2225000Y-26200000D03*
X2225000Y-27200000D03*
X2225000Y-27700000D03*
D14*
X2860000Y-28275000D03*
X3360000Y-28275000D03*
X3860000Y-28275000D03*
X4360000Y-28275000D03*
X4860000Y-28275000D03*
X5360000Y-28275000D03*
D12*
X5930000Y-27700000D03*
X5930000Y-27200000D03*
X5930000Y-26700000D03*
X5930000Y-26200000D03*
X5930000Y-25700000D03*
X5930000Y-25200000D03*
D22*
X3940000Y-25785000D03*
D23*
X3940000Y-27305000D03*
%TD*%
D30*
%TO.C,S3*%
X-9100000Y20600000D03*
X-5200000Y18850000D03*
X-9100000Y17100000D03*
%TD*%
D31*
%TO.C,L1*%
X-6100000Y6200000D03*
X-15100000Y6200000D03*
%TD*%
D27*
%TO.C,C1*%
X-9925000Y-800000D03*
X-6800000Y-800000D03*
%TD*%
D29*
%TO.C,C37*%
X11250000Y-23975000D03*
X11250000Y-27100000D03*
%TD*%
D25*
%TO.C,C4*%
X-16037500Y13000000D03*
X-13962500Y13000000D03*
%TD*%
D18*
%TO.C,L7*%
X-21150000Y-31050000D03*
X-21200000Y-42150000D03*
%TD*%
D24*
%TO.C,C28*%
X21200000Y-20525000D03*
X21200000Y-22600000D03*
%TD*%
%TO.C,C38*%
X-175000Y-26200000D03*
X-175000Y-28275000D03*
%TD*%
D32*
%TO.C,U2*%
X-10150000Y-7900000D03*
X-9200000Y-7900000D03*
X-8250000Y-7900000D03*
X-8250000Y-5400000D03*
X-9200000Y-5400000D03*
X-10150000Y-5400000D03*
%TD*%
D14*
%TO.C,U5*%
X-31420000Y-23272500D03*
X-30920000Y-23272500D03*
X-30420000Y-23272500D03*
X-29920000Y-23272500D03*
X-29420000Y-23272500D03*
X-28920000Y-23272500D03*
D21*
X-28285000Y-22697500D03*
X-28285000Y-22197500D03*
X-28285000Y-21697500D03*
X-28285000Y-20697500D03*
X-28285000Y-20197500D03*
D14*
X-28920000Y-19622500D03*
X-29420000Y-19622500D03*
X-29920000Y-19622500D03*
X-30420000Y-19622500D03*
X-30920000Y-19622500D03*
X-31420000Y-19622500D03*
D12*
X-31990000Y-20197500D03*
X-31990000Y-20697500D03*
X-31990000Y-21197500D03*
X-31990000Y-21697500D03*
X-31990000Y-22197500D03*
X-31990000Y-22697500D03*
D22*
X-30000000Y-22112500D03*
D23*
X-30000000Y-20592500D03*
%TD*%
D24*
%TO.C,C2*%
X-5110000Y-6275000D03*
X-5110000Y-8350000D03*
%TD*%
D25*
%TO.C,C26*%
X22125000Y-8087500D03*
X24200000Y-8087500D03*
%TD*%
D20*
%TO.C,C31*%
X43225000Y-32475000D03*
X41150000Y-32475000D03*
%TD*%
D33*
%TO.C,R7*%
X-2200000Y16900000D03*
X-2200000Y15075000D03*
%TD*%
D34*
%TO.C,L3*%
X-32900000Y-10300000D03*
X-44000000Y-10250000D03*
%TD*%
M02*
