%TF.GenerationSoftware,KiCad,Pcbnew,9.0.7*%
%TF.CreationDate,2026-04-05T20:44:23-07:00*%
%TF.ProjectId,Power-Distribution-Board,506f7765-722d-4446-9973-747269627574,rev?*%
%TF.SameCoordinates,Original*%
%TF.FileFunction,Legend,Top*%
%TF.FilePolarity,Positive*%
%FSLAX46Y46*%
G04 Gerber Fmt 4.6, Leading zero omitted, Abs format (unit mm)*
G04 Created by KiCad (PCBNEW 9.0.7) date 2026-04-05 20:44:23*
%MOMM*%
%LPD*%
G01*
G04 APERTURE LIST*
%ADD10C,0.150000*%
%ADD11C,0.127000*%
%ADD12C,0.200000*%
%ADD13C,0.100000*%
%ADD14C,0.120000*%
G04 APERTURE END LIST*
D10*
X27438095Y-39154819D02*
X28104761Y-39154819D01*
X28104761Y-39154819D02*
X27676190Y-40154819D01*
X28342857Y-39154819D02*
X28676190Y-40154819D01*
X28676190Y-40154819D02*
X29009523Y-39154819D01*
X-25842857Y-17859580D02*
X-25890476Y-17907200D01*
X-25890476Y-17907200D02*
X-26033333Y-17954819D01*
X-26033333Y-17954819D02*
X-26128571Y-17954819D01*
X-26128571Y-17954819D02*
X-26271428Y-17907200D01*
X-26271428Y-17907200D02*
X-26366666Y-17811961D01*
X-26366666Y-17811961D02*
X-26414285Y-17716723D01*
X-26414285Y-17716723D02*
X-26461904Y-17526247D01*
X-26461904Y-17526247D02*
X-26461904Y-17383390D01*
X-26461904Y-17383390D02*
X-26414285Y-17192914D01*
X-26414285Y-17192914D02*
X-26366666Y-17097676D01*
X-26366666Y-17097676D02*
X-26271428Y-17002438D01*
X-26271428Y-17002438D02*
X-26128571Y-16954819D01*
X-26128571Y-16954819D02*
X-26033333Y-16954819D01*
X-26033333Y-16954819D02*
X-25890476Y-17002438D01*
X-25890476Y-17002438D02*
X-25842857Y-17050057D01*
X-24890476Y-17954819D02*
X-25461904Y-17954819D01*
X-25176190Y-17954819D02*
X-25176190Y-16954819D01*
X-25176190Y-16954819D02*
X-25271428Y-17097676D01*
X-25271428Y-17097676D02*
X-25366666Y-17192914D01*
X-25366666Y-17192914D02*
X-25461904Y-17240533D01*
X-24033333Y-16954819D02*
X-24223809Y-16954819D01*
X-24223809Y-16954819D02*
X-24319047Y-17002438D01*
X-24319047Y-17002438D02*
X-24366666Y-17050057D01*
X-24366666Y-17050057D02*
X-24461904Y-17192914D01*
X-24461904Y-17192914D02*
X-24509523Y-17383390D01*
X-24509523Y-17383390D02*
X-24509523Y-17764342D01*
X-24509523Y-17764342D02*
X-24461904Y-17859580D01*
X-24461904Y-17859580D02*
X-24414285Y-17907200D01*
X-24414285Y-17907200D02*
X-24319047Y-17954819D01*
X-24319047Y-17954819D02*
X-24128571Y-17954819D01*
X-24128571Y-17954819D02*
X-24033333Y-17907200D01*
X-24033333Y-17907200D02*
X-23985714Y-17859580D01*
X-23985714Y-17859580D02*
X-23938095Y-17764342D01*
X-23938095Y-17764342D02*
X-23938095Y-17526247D01*
X-23938095Y-17526247D02*
X-23985714Y-17431009D01*
X-23985714Y-17431009D02*
X-24033333Y-17383390D01*
X-24033333Y-17383390D02*
X-24128571Y-17335771D01*
X-24128571Y-17335771D02*
X-24319047Y-17335771D01*
X-24319047Y-17335771D02*
X-24414285Y-17383390D01*
X-24414285Y-17383390D02*
X-24461904Y-17431009D01*
X-24461904Y-17431009D02*
X-24509523Y-17526247D01*
X-26242857Y7940419D02*
X-26290476Y7892800D01*
X-26290476Y7892800D02*
X-26433333Y7845180D01*
X-26433333Y7845180D02*
X-26528571Y7845180D01*
X-26528571Y7845180D02*
X-26671428Y7892800D01*
X-26671428Y7892800D02*
X-26766666Y7988038D01*
X-26766666Y7988038D02*
X-26814285Y8083276D01*
X-26814285Y8083276D02*
X-26861904Y8273752D01*
X-26861904Y8273752D02*
X-26861904Y8416609D01*
X-26861904Y8416609D02*
X-26814285Y8607085D01*
X-26814285Y8607085D02*
X-26766666Y8702323D01*
X-26766666Y8702323D02*
X-26671428Y8797561D01*
X-26671428Y8797561D02*
X-26528571Y8845180D01*
X-26528571Y8845180D02*
X-26433333Y8845180D01*
X-26433333Y8845180D02*
X-26290476Y8797561D01*
X-26290476Y8797561D02*
X-26242857Y8749942D01*
X-25290476Y7845180D02*
X-25861904Y7845180D01*
X-25576190Y7845180D02*
X-25576190Y8845180D01*
X-25576190Y8845180D02*
X-25671428Y8702323D01*
X-25671428Y8702323D02*
X-25766666Y8607085D01*
X-25766666Y8607085D02*
X-25861904Y8559466D01*
X-24719047Y8416609D02*
X-24814285Y8464228D01*
X-24814285Y8464228D02*
X-24861904Y8511847D01*
X-24861904Y8511847D02*
X-24909523Y8607085D01*
X-24909523Y8607085D02*
X-24909523Y8654704D01*
X-24909523Y8654704D02*
X-24861904Y8749942D01*
X-24861904Y8749942D02*
X-24814285Y8797561D01*
X-24814285Y8797561D02*
X-24719047Y8845180D01*
X-24719047Y8845180D02*
X-24528571Y8845180D01*
X-24528571Y8845180D02*
X-24433333Y8797561D01*
X-24433333Y8797561D02*
X-24385714Y8749942D01*
X-24385714Y8749942D02*
X-24338095Y8654704D01*
X-24338095Y8654704D02*
X-24338095Y8607085D01*
X-24338095Y8607085D02*
X-24385714Y8511847D01*
X-24385714Y8511847D02*
X-24433333Y8464228D01*
X-24433333Y8464228D02*
X-24528571Y8416609D01*
X-24528571Y8416609D02*
X-24719047Y8416609D01*
X-24719047Y8416609D02*
X-24814285Y8368990D01*
X-24814285Y8368990D02*
X-24861904Y8321371D01*
X-24861904Y8321371D02*
X-24909523Y8226133D01*
X-24909523Y8226133D02*
X-24909523Y8035657D01*
X-24909523Y8035657D02*
X-24861904Y7940419D01*
X-24861904Y7940419D02*
X-24814285Y7892800D01*
X-24814285Y7892800D02*
X-24719047Y7845180D01*
X-24719047Y7845180D02*
X-24528571Y7845180D01*
X-24528571Y7845180D02*
X-24433333Y7892800D01*
X-24433333Y7892800D02*
X-24385714Y7940419D01*
X-24385714Y7940419D02*
X-24338095Y8035657D01*
X-24338095Y8035657D02*
X-24338095Y8226133D01*
X-24338095Y8226133D02*
X-24385714Y8321371D01*
X-24385714Y8321371D02*
X-24433333Y8368990D01*
X-24433333Y8368990D02*
X-24528571Y8416609D01*
X-39190419Y-20392857D02*
X-39142800Y-20440476D01*
X-39142800Y-20440476D02*
X-39095180Y-20583333D01*
X-39095180Y-20583333D02*
X-39095180Y-20678571D01*
X-39095180Y-20678571D02*
X-39142800Y-20821428D01*
X-39142800Y-20821428D02*
X-39238038Y-20916666D01*
X-39238038Y-20916666D02*
X-39333276Y-20964285D01*
X-39333276Y-20964285D02*
X-39523752Y-21011904D01*
X-39523752Y-21011904D02*
X-39666609Y-21011904D01*
X-39666609Y-21011904D02*
X-39857085Y-20964285D01*
X-39857085Y-20964285D02*
X-39952323Y-20916666D01*
X-39952323Y-20916666D02*
X-40047561Y-20821428D01*
X-40047561Y-20821428D02*
X-40095180Y-20678571D01*
X-40095180Y-20678571D02*
X-40095180Y-20583333D01*
X-40095180Y-20583333D02*
X-40047561Y-20440476D01*
X-40047561Y-20440476D02*
X-39999942Y-20392857D01*
X-39095180Y-19440476D02*
X-39095180Y-20011904D01*
X-39095180Y-19726190D02*
X-40095180Y-19726190D01*
X-40095180Y-19726190D02*
X-39952323Y-19821428D01*
X-39952323Y-19821428D02*
X-39857085Y-19916666D01*
X-39857085Y-19916666D02*
X-39809466Y-20011904D01*
X-40095180Y-18535714D02*
X-40095180Y-19011904D01*
X-40095180Y-19011904D02*
X-39618990Y-19059523D01*
X-39618990Y-19059523D02*
X-39666609Y-19011904D01*
X-39666609Y-19011904D02*
X-39714228Y-18916666D01*
X-39714228Y-18916666D02*
X-39714228Y-18678571D01*
X-39714228Y-18678571D02*
X-39666609Y-18583333D01*
X-39666609Y-18583333D02*
X-39618990Y-18535714D01*
X-39618990Y-18535714D02*
X-39523752Y-18488095D01*
X-39523752Y-18488095D02*
X-39285657Y-18488095D01*
X-39285657Y-18488095D02*
X-39190419Y-18535714D01*
X-39190419Y-18535714D02*
X-39142800Y-18583333D01*
X-39142800Y-18583333D02*
X-39095180Y-18678571D01*
X-39095180Y-18678571D02*
X-39095180Y-18916666D01*
X-39095180Y-18916666D02*
X-39142800Y-19011904D01*
X-39142800Y-19011904D02*
X-39190419Y-19059523D01*
X-12442857Y-43559580D02*
X-12490476Y-43607200D01*
X-12490476Y-43607200D02*
X-12633333Y-43654819D01*
X-12633333Y-43654819D02*
X-12728571Y-43654819D01*
X-12728571Y-43654819D02*
X-12871428Y-43607200D01*
X-12871428Y-43607200D02*
X-12966666Y-43511961D01*
X-12966666Y-43511961D02*
X-13014285Y-43416723D01*
X-13014285Y-43416723D02*
X-13061904Y-43226247D01*
X-13061904Y-43226247D02*
X-13061904Y-43083390D01*
X-13061904Y-43083390D02*
X-13014285Y-42892914D01*
X-13014285Y-42892914D02*
X-12966666Y-42797676D01*
X-12966666Y-42797676D02*
X-12871428Y-42702438D01*
X-12871428Y-42702438D02*
X-12728571Y-42654819D01*
X-12728571Y-42654819D02*
X-12633333Y-42654819D01*
X-12633333Y-42654819D02*
X-12490476Y-42702438D01*
X-12490476Y-42702438D02*
X-12442857Y-42750057D01*
X-12109523Y-42654819D02*
X-11490476Y-42654819D01*
X-11490476Y-42654819D02*
X-11823809Y-43035771D01*
X-11823809Y-43035771D02*
X-11680952Y-43035771D01*
X-11680952Y-43035771D02*
X-11585714Y-43083390D01*
X-11585714Y-43083390D02*
X-11538095Y-43131009D01*
X-11538095Y-43131009D02*
X-11490476Y-43226247D01*
X-11490476Y-43226247D02*
X-11490476Y-43464342D01*
X-11490476Y-43464342D02*
X-11538095Y-43559580D01*
X-11538095Y-43559580D02*
X-11585714Y-43607200D01*
X-11585714Y-43607200D02*
X-11680952Y-43654819D01*
X-11680952Y-43654819D02*
X-11966666Y-43654819D01*
X-11966666Y-43654819D02*
X-12061904Y-43607200D01*
X-12061904Y-43607200D02*
X-12109523Y-43559580D01*
X-11014285Y-43654819D02*
X-10823809Y-43654819D01*
X-10823809Y-43654819D02*
X-10728571Y-43607200D01*
X-10728571Y-43607200D02*
X-10680952Y-43559580D01*
X-10680952Y-43559580D02*
X-10585714Y-43416723D01*
X-10585714Y-43416723D02*
X-10538095Y-43226247D01*
X-10538095Y-43226247D02*
X-10538095Y-42845295D01*
X-10538095Y-42845295D02*
X-10585714Y-42750057D01*
X-10585714Y-42750057D02*
X-10633333Y-42702438D01*
X-10633333Y-42702438D02*
X-10728571Y-42654819D01*
X-10728571Y-42654819D02*
X-10919047Y-42654819D01*
X-10919047Y-42654819D02*
X-11014285Y-42702438D01*
X-11014285Y-42702438D02*
X-11061904Y-42750057D01*
X-11061904Y-42750057D02*
X-11109523Y-42845295D01*
X-11109523Y-42845295D02*
X-11109523Y-43083390D01*
X-11109523Y-43083390D02*
X-11061904Y-43178628D01*
X-11061904Y-43178628D02*
X-11014285Y-43226247D01*
X-11014285Y-43226247D02*
X-10919047Y-43273866D01*
X-10919047Y-43273866D02*
X-10728571Y-43273866D01*
X-10728571Y-43273866D02*
X-10633333Y-43226247D01*
X-10633333Y-43226247D02*
X-10585714Y-43178628D01*
X-10585714Y-43178628D02*
X-10538095Y-43083390D01*
X-14840419Y-24042857D02*
X-14792800Y-24090476D01*
X-14792800Y-24090476D02*
X-14745180Y-24233333D01*
X-14745180Y-24233333D02*
X-14745180Y-24328571D01*
X-14745180Y-24328571D02*
X-14792800Y-24471428D01*
X-14792800Y-24471428D02*
X-14888038Y-24566666D01*
X-14888038Y-24566666D02*
X-14983276Y-24614285D01*
X-14983276Y-24614285D02*
X-15173752Y-24661904D01*
X-15173752Y-24661904D02*
X-15316609Y-24661904D01*
X-15316609Y-24661904D02*
X-15507085Y-24614285D01*
X-15507085Y-24614285D02*
X-15602323Y-24566666D01*
X-15602323Y-24566666D02*
X-15697561Y-24471428D01*
X-15697561Y-24471428D02*
X-15745180Y-24328571D01*
X-15745180Y-24328571D02*
X-15745180Y-24233333D01*
X-15745180Y-24233333D02*
X-15697561Y-24090476D01*
X-15697561Y-24090476D02*
X-15649942Y-24042857D01*
X-15745180Y-23709523D02*
X-15745180Y-23090476D01*
X-15745180Y-23090476D02*
X-15364228Y-23423809D01*
X-15364228Y-23423809D02*
X-15364228Y-23280952D01*
X-15364228Y-23280952D02*
X-15316609Y-23185714D01*
X-15316609Y-23185714D02*
X-15268990Y-23138095D01*
X-15268990Y-23138095D02*
X-15173752Y-23090476D01*
X-15173752Y-23090476D02*
X-14935657Y-23090476D01*
X-14935657Y-23090476D02*
X-14840419Y-23138095D01*
X-14840419Y-23138095D02*
X-14792800Y-23185714D01*
X-14792800Y-23185714D02*
X-14745180Y-23280952D01*
X-14745180Y-23280952D02*
X-14745180Y-23566666D01*
X-14745180Y-23566666D02*
X-14792800Y-23661904D01*
X-14792800Y-23661904D02*
X-14840419Y-23709523D01*
X-15745180Y-22233333D02*
X-15745180Y-22423809D01*
X-15745180Y-22423809D02*
X-15697561Y-22519047D01*
X-15697561Y-22519047D02*
X-15649942Y-22566666D01*
X-15649942Y-22566666D02*
X-15507085Y-22661904D01*
X-15507085Y-22661904D02*
X-15316609Y-22709523D01*
X-15316609Y-22709523D02*
X-14935657Y-22709523D01*
X-14935657Y-22709523D02*
X-14840419Y-22661904D01*
X-14840419Y-22661904D02*
X-14792800Y-22614285D01*
X-14792800Y-22614285D02*
X-14745180Y-22519047D01*
X-14745180Y-22519047D02*
X-14745180Y-22328571D01*
X-14745180Y-22328571D02*
X-14792800Y-22233333D01*
X-14792800Y-22233333D02*
X-14840419Y-22185714D01*
X-14840419Y-22185714D02*
X-14935657Y-22138095D01*
X-14935657Y-22138095D02*
X-15173752Y-22138095D01*
X-15173752Y-22138095D02*
X-15268990Y-22185714D01*
X-15268990Y-22185714D02*
X-15316609Y-22233333D01*
X-15316609Y-22233333D02*
X-15364228Y-22328571D01*
X-15364228Y-22328571D02*
X-15364228Y-22519047D01*
X-15364228Y-22519047D02*
X-15316609Y-22614285D01*
X-15316609Y-22614285D02*
X-15268990Y-22661904D01*
X-15268990Y-22661904D02*
X-15173752Y-22709523D01*
X27857142Y-11759580D02*
X27809523Y-11807200D01*
X27809523Y-11807200D02*
X27666666Y-11854819D01*
X27666666Y-11854819D02*
X27571428Y-11854819D01*
X27571428Y-11854819D02*
X27428571Y-11807200D01*
X27428571Y-11807200D02*
X27333333Y-11711961D01*
X27333333Y-11711961D02*
X27285714Y-11616723D01*
X27285714Y-11616723D02*
X27238095Y-11426247D01*
X27238095Y-11426247D02*
X27238095Y-11283390D01*
X27238095Y-11283390D02*
X27285714Y-11092914D01*
X27285714Y-11092914D02*
X27333333Y-10997676D01*
X27333333Y-10997676D02*
X27428571Y-10902438D01*
X27428571Y-10902438D02*
X27571428Y-10854819D01*
X27571428Y-10854819D02*
X27666666Y-10854819D01*
X27666666Y-10854819D02*
X27809523Y-10902438D01*
X27809523Y-10902438D02*
X27857142Y-10950057D01*
X28238095Y-10950057D02*
X28285714Y-10902438D01*
X28285714Y-10902438D02*
X28380952Y-10854819D01*
X28380952Y-10854819D02*
X28619047Y-10854819D01*
X28619047Y-10854819D02*
X28714285Y-10902438D01*
X28714285Y-10902438D02*
X28761904Y-10950057D01*
X28761904Y-10950057D02*
X28809523Y-11045295D01*
X28809523Y-11045295D02*
X28809523Y-11140533D01*
X28809523Y-11140533D02*
X28761904Y-11283390D01*
X28761904Y-11283390D02*
X28190476Y-11854819D01*
X28190476Y-11854819D02*
X28809523Y-11854819D01*
X29285714Y-11854819D02*
X29476190Y-11854819D01*
X29476190Y-11854819D02*
X29571428Y-11807200D01*
X29571428Y-11807200D02*
X29619047Y-11759580D01*
X29619047Y-11759580D02*
X29714285Y-11616723D01*
X29714285Y-11616723D02*
X29761904Y-11426247D01*
X29761904Y-11426247D02*
X29761904Y-11045295D01*
X29761904Y-11045295D02*
X29714285Y-10950057D01*
X29714285Y-10950057D02*
X29666666Y-10902438D01*
X29666666Y-10902438D02*
X29571428Y-10854819D01*
X29571428Y-10854819D02*
X29380952Y-10854819D01*
X29380952Y-10854819D02*
X29285714Y-10902438D01*
X29285714Y-10902438D02*
X29238095Y-10950057D01*
X29238095Y-10950057D02*
X29190476Y-11045295D01*
X29190476Y-11045295D02*
X29190476Y-11283390D01*
X29190476Y-11283390D02*
X29238095Y-11378628D01*
X29238095Y-11378628D02*
X29285714Y-11426247D01*
X29285714Y-11426247D02*
X29380952Y-11473866D01*
X29380952Y-11473866D02*
X29571428Y-11473866D01*
X29571428Y-11473866D02*
X29666666Y-11426247D01*
X29666666Y-11426247D02*
X29714285Y-11378628D01*
X29714285Y-11378628D02*
X29761904Y-11283390D01*
X8633333Y18540419D02*
X8585714Y18492800D01*
X8585714Y18492800D02*
X8442857Y18445180D01*
X8442857Y18445180D02*
X8347619Y18445180D01*
X8347619Y18445180D02*
X8204762Y18492800D01*
X8204762Y18492800D02*
X8109524Y18588038D01*
X8109524Y18588038D02*
X8061905Y18683276D01*
X8061905Y18683276D02*
X8014286Y18873752D01*
X8014286Y18873752D02*
X8014286Y19016609D01*
X8014286Y19016609D02*
X8061905Y19207085D01*
X8061905Y19207085D02*
X8109524Y19302323D01*
X8109524Y19302323D02*
X8204762Y19397561D01*
X8204762Y19397561D02*
X8347619Y19445180D01*
X8347619Y19445180D02*
X8442857Y19445180D01*
X8442857Y19445180D02*
X8585714Y19397561D01*
X8585714Y19397561D02*
X8633333Y19349942D01*
X9204762Y19016609D02*
X9109524Y19064228D01*
X9109524Y19064228D02*
X9061905Y19111847D01*
X9061905Y19111847D02*
X9014286Y19207085D01*
X9014286Y19207085D02*
X9014286Y19254704D01*
X9014286Y19254704D02*
X9061905Y19349942D01*
X9061905Y19349942D02*
X9109524Y19397561D01*
X9109524Y19397561D02*
X9204762Y19445180D01*
X9204762Y19445180D02*
X9395238Y19445180D01*
X9395238Y19445180D02*
X9490476Y19397561D01*
X9490476Y19397561D02*
X9538095Y19349942D01*
X9538095Y19349942D02*
X9585714Y19254704D01*
X9585714Y19254704D02*
X9585714Y19207085D01*
X9585714Y19207085D02*
X9538095Y19111847D01*
X9538095Y19111847D02*
X9490476Y19064228D01*
X9490476Y19064228D02*
X9395238Y19016609D01*
X9395238Y19016609D02*
X9204762Y19016609D01*
X9204762Y19016609D02*
X9109524Y18968990D01*
X9109524Y18968990D02*
X9061905Y18921371D01*
X9061905Y18921371D02*
X9014286Y18826133D01*
X9014286Y18826133D02*
X9014286Y18635657D01*
X9014286Y18635657D02*
X9061905Y18540419D01*
X9061905Y18540419D02*
X9109524Y18492800D01*
X9109524Y18492800D02*
X9204762Y18445180D01*
X9204762Y18445180D02*
X9395238Y18445180D01*
X9395238Y18445180D02*
X9490476Y18492800D01*
X9490476Y18492800D02*
X9538095Y18540419D01*
X9538095Y18540419D02*
X9585714Y18635657D01*
X9585714Y18635657D02*
X9585714Y18826133D01*
X9585714Y18826133D02*
X9538095Y18921371D01*
X9538095Y18921371D02*
X9490476Y18968990D01*
X9490476Y18968990D02*
X9395238Y19016609D01*
X-13966666Y-3159580D02*
X-14014285Y-3207200D01*
X-14014285Y-3207200D02*
X-14157142Y-3254819D01*
X-14157142Y-3254819D02*
X-14252380Y-3254819D01*
X-14252380Y-3254819D02*
X-14395237Y-3207200D01*
X-14395237Y-3207200D02*
X-14490475Y-3111961D01*
X-14490475Y-3111961D02*
X-14538094Y-3016723D01*
X-14538094Y-3016723D02*
X-14585713Y-2826247D01*
X-14585713Y-2826247D02*
X-14585713Y-2683390D01*
X-14585713Y-2683390D02*
X-14538094Y-2492914D01*
X-14538094Y-2492914D02*
X-14490475Y-2397676D01*
X-14490475Y-2397676D02*
X-14395237Y-2302438D01*
X-14395237Y-2302438D02*
X-14252380Y-2254819D01*
X-14252380Y-2254819D02*
X-14157142Y-2254819D01*
X-14157142Y-2254819D02*
X-14014285Y-2302438D01*
X-14014285Y-2302438D02*
X-13966666Y-2350057D01*
X-13633332Y-2254819D02*
X-13014285Y-2254819D01*
X-13014285Y-2254819D02*
X-13347618Y-2635771D01*
X-13347618Y-2635771D02*
X-13204761Y-2635771D01*
X-13204761Y-2635771D02*
X-13109523Y-2683390D01*
X-13109523Y-2683390D02*
X-13061904Y-2731009D01*
X-13061904Y-2731009D02*
X-13014285Y-2826247D01*
X-13014285Y-2826247D02*
X-13014285Y-3064342D01*
X-13014285Y-3064342D02*
X-13061904Y-3159580D01*
X-13061904Y-3159580D02*
X-13109523Y-3207200D01*
X-13109523Y-3207200D02*
X-13204761Y-3254819D01*
X-13204761Y-3254819D02*
X-13490475Y-3254819D01*
X-13490475Y-3254819D02*
X-13585713Y-3207200D01*
X-13585713Y-3207200D02*
X-13633332Y-3159580D01*
X-43417857Y-809580D02*
X-43465476Y-857200D01*
X-43465476Y-857200D02*
X-43608333Y-904819D01*
X-43608333Y-904819D02*
X-43703571Y-904819D01*
X-43703571Y-904819D02*
X-43846428Y-857200D01*
X-43846428Y-857200D02*
X-43941666Y-761961D01*
X-43941666Y-761961D02*
X-43989285Y-666723D01*
X-43989285Y-666723D02*
X-44036904Y-476247D01*
X-44036904Y-476247D02*
X-44036904Y-333390D01*
X-44036904Y-333390D02*
X-43989285Y-142914D01*
X-43989285Y-142914D02*
X-43941666Y-47676D01*
X-43941666Y-47676D02*
X-43846428Y47561D01*
X-43846428Y47561D02*
X-43703571Y95180D01*
X-43703571Y95180D02*
X-43608333Y95180D01*
X-43608333Y95180D02*
X-43465476Y47561D01*
X-43465476Y47561D02*
X-43417857Y-57D01*
X-42465476Y-904819D02*
X-43036904Y-904819D01*
X-42751190Y-904819D02*
X-42751190Y95180D01*
X-42751190Y95180D02*
X-42846428Y-47676D01*
X-42846428Y-47676D02*
X-42941666Y-142914D01*
X-42941666Y-142914D02*
X-43036904Y-190533D01*
X-41989285Y-904819D02*
X-41798809Y-904819D01*
X-41798809Y-904819D02*
X-41703571Y-857200D01*
X-41703571Y-857200D02*
X-41655952Y-809580D01*
X-41655952Y-809580D02*
X-41560714Y-666723D01*
X-41560714Y-666723D02*
X-41513095Y-476247D01*
X-41513095Y-476247D02*
X-41513095Y-95295D01*
X-41513095Y-95295D02*
X-41560714Y-57D01*
X-41560714Y-57D02*
X-41608333Y47561D01*
X-41608333Y47561D02*
X-41703571Y95180D01*
X-41703571Y95180D02*
X-41894047Y95180D01*
X-41894047Y95180D02*
X-41989285Y47561D01*
X-41989285Y47561D02*
X-42036904Y-57D01*
X-42036904Y-57D02*
X-42084523Y-95295D01*
X-42084523Y-95295D02*
X-42084523Y-333390D01*
X-42084523Y-333390D02*
X-42036904Y-428628D01*
X-42036904Y-428628D02*
X-41989285Y-476247D01*
X-41989285Y-476247D02*
X-41894047Y-523866D01*
X-41894047Y-523866D02*
X-41703571Y-523866D01*
X-41703571Y-523866D02*
X-41608333Y-476247D01*
X-41608333Y-476247D02*
X-41560714Y-428628D01*
X-41560714Y-428628D02*
X-41513095Y-333390D01*
X133333Y18640419D02*
X85714Y18592800D01*
X85714Y18592800D02*
X-57142Y18545180D01*
X-57142Y18545180D02*
X-152380Y18545180D01*
X-152380Y18545180D02*
X-295237Y18592800D01*
X-295237Y18592800D02*
X-390475Y18688038D01*
X-390475Y18688038D02*
X-438094Y18783276D01*
X-438094Y18783276D02*
X-485713Y18973752D01*
X-485713Y18973752D02*
X-485713Y19116609D01*
X-485713Y19116609D02*
X-438094Y19307085D01*
X-438094Y19307085D02*
X-390475Y19402323D01*
X-390475Y19402323D02*
X-295237Y19497561D01*
X-295237Y19497561D02*
X-152380Y19545180D01*
X-152380Y19545180D02*
X-57142Y19545180D01*
X-57142Y19545180D02*
X85714Y19497561D01*
X85714Y19497561D02*
X133333Y19449942D01*
X609524Y18545180D02*
X800000Y18545180D01*
X800000Y18545180D02*
X895238Y18592800D01*
X895238Y18592800D02*
X942857Y18640419D01*
X942857Y18640419D02*
X1038095Y18783276D01*
X1038095Y18783276D02*
X1085714Y18973752D01*
X1085714Y18973752D02*
X1085714Y19354704D01*
X1085714Y19354704D02*
X1038095Y19449942D01*
X1038095Y19449942D02*
X990476Y19497561D01*
X990476Y19497561D02*
X895238Y19545180D01*
X895238Y19545180D02*
X704762Y19545180D01*
X704762Y19545180D02*
X609524Y19497561D01*
X609524Y19497561D02*
X561905Y19449942D01*
X561905Y19449942D02*
X514286Y19354704D01*
X514286Y19354704D02*
X514286Y19116609D01*
X514286Y19116609D02*
X561905Y19021371D01*
X561905Y19021371D02*
X609524Y18973752D01*
X609524Y18973752D02*
X704762Y18926133D01*
X704762Y18926133D02*
X895238Y18926133D01*
X895238Y18926133D02*
X990476Y18973752D01*
X990476Y18973752D02*
X1038095Y19021371D01*
X1038095Y19021371D02*
X1085714Y19116609D01*
X-48154819Y10019047D02*
X-48154819Y10590475D01*
X-48154819Y10304761D02*
X-47154819Y10304761D01*
X-47154819Y10304761D02*
X-47297676Y10399999D01*
X-47297676Y10399999D02*
X-47392914Y10495237D01*
X-47392914Y10495237D02*
X-47440533Y10590475D01*
X-47250057Y9638094D02*
X-47202438Y9590475D01*
X-47202438Y9590475D02*
X-47154819Y9495237D01*
X-47154819Y9495237D02*
X-47154819Y9257142D01*
X-47154819Y9257142D02*
X-47202438Y9161904D01*
X-47202438Y9161904D02*
X-47250057Y9114285D01*
X-47250057Y9114285D02*
X-47345295Y9066666D01*
X-47345295Y9066666D02*
X-47440533Y9066666D01*
X-47440533Y9066666D02*
X-47583390Y9114285D01*
X-47583390Y9114285D02*
X-48154819Y9685713D01*
X-48154819Y9685713D02*
X-48154819Y9066666D01*
X-47154819Y8780951D02*
X-48154819Y8447618D01*
X-48154819Y8447618D02*
X-47154819Y8114285D01*
X4957142Y-34659580D02*
X4909523Y-34707200D01*
X4909523Y-34707200D02*
X4766666Y-34754819D01*
X4766666Y-34754819D02*
X4671428Y-34754819D01*
X4671428Y-34754819D02*
X4528571Y-34707200D01*
X4528571Y-34707200D02*
X4433333Y-34611961D01*
X4433333Y-34611961D02*
X4385714Y-34516723D01*
X4385714Y-34516723D02*
X4338095Y-34326247D01*
X4338095Y-34326247D02*
X4338095Y-34183390D01*
X4338095Y-34183390D02*
X4385714Y-33992914D01*
X4385714Y-33992914D02*
X4433333Y-33897676D01*
X4433333Y-33897676D02*
X4528571Y-33802438D01*
X4528571Y-33802438D02*
X4671428Y-33754819D01*
X4671428Y-33754819D02*
X4766666Y-33754819D01*
X4766666Y-33754819D02*
X4909523Y-33802438D01*
X4909523Y-33802438D02*
X4957142Y-33850057D01*
X5814285Y-34088152D02*
X5814285Y-34754819D01*
X5576190Y-33707200D02*
X5338095Y-34421485D01*
X5338095Y-34421485D02*
X5957142Y-34421485D01*
X6861904Y-34754819D02*
X6290476Y-34754819D01*
X6576190Y-34754819D02*
X6576190Y-33754819D01*
X6576190Y-33754819D02*
X6480952Y-33897676D01*
X6480952Y-33897676D02*
X6385714Y-33992914D01*
X6385714Y-33992914D02*
X6290476Y-34040533D01*
X-7790476Y-39954819D02*
X-8266666Y-39954819D01*
X-8266666Y-39954819D02*
X-8314285Y-40431009D01*
X-8314285Y-40431009D02*
X-8266666Y-40383390D01*
X-8266666Y-40383390D02*
X-8171428Y-40335771D01*
X-8171428Y-40335771D02*
X-7933333Y-40335771D01*
X-7933333Y-40335771D02*
X-7838095Y-40383390D01*
X-7838095Y-40383390D02*
X-7790476Y-40431009D01*
X-7790476Y-40431009D02*
X-7742857Y-40526247D01*
X-7742857Y-40526247D02*
X-7742857Y-40764342D01*
X-7742857Y-40764342D02*
X-7790476Y-40859580D01*
X-7790476Y-40859580D02*
X-7838095Y-40907200D01*
X-7838095Y-40907200D02*
X-7933333Y-40954819D01*
X-7933333Y-40954819D02*
X-8171428Y-40954819D01*
X-8171428Y-40954819D02*
X-8266666Y-40907200D01*
X-8266666Y-40907200D02*
X-8314285Y-40859580D01*
X-7457142Y-39954819D02*
X-7123809Y-40954819D01*
X-7123809Y-40954819D02*
X-6790476Y-39954819D01*
X-40790476Y-41654819D02*
X-41266666Y-41654819D01*
X-41266666Y-41654819D02*
X-41314285Y-42131009D01*
X-41314285Y-42131009D02*
X-41266666Y-42083390D01*
X-41266666Y-42083390D02*
X-41171428Y-42035771D01*
X-41171428Y-42035771D02*
X-40933333Y-42035771D01*
X-40933333Y-42035771D02*
X-40838095Y-42083390D01*
X-40838095Y-42083390D02*
X-40790476Y-42131009D01*
X-40790476Y-42131009D02*
X-40742857Y-42226247D01*
X-40742857Y-42226247D02*
X-40742857Y-42464342D01*
X-40742857Y-42464342D02*
X-40790476Y-42559580D01*
X-40790476Y-42559580D02*
X-40838095Y-42607200D01*
X-40838095Y-42607200D02*
X-40933333Y-42654819D01*
X-40933333Y-42654819D02*
X-41171428Y-42654819D01*
X-41171428Y-42654819D02*
X-41266666Y-42607200D01*
X-41266666Y-42607200D02*
X-41314285Y-42559580D01*
X-40457142Y-41654819D02*
X-40123809Y-42654819D01*
X-40123809Y-42654819D02*
X-39790476Y-41654819D01*
X-40590419Y8557142D02*
X-40542800Y8509523D01*
X-40542800Y8509523D02*
X-40495180Y8366666D01*
X-40495180Y8366666D02*
X-40495180Y8271428D01*
X-40495180Y8271428D02*
X-40542800Y8128571D01*
X-40542800Y8128571D02*
X-40638038Y8033333D01*
X-40638038Y8033333D02*
X-40733276Y7985714D01*
X-40733276Y7985714D02*
X-40923752Y7938095D01*
X-40923752Y7938095D02*
X-41066609Y7938095D01*
X-41066609Y7938095D02*
X-41257085Y7985714D01*
X-41257085Y7985714D02*
X-41352323Y8033333D01*
X-41352323Y8033333D02*
X-41447561Y8128571D01*
X-41447561Y8128571D02*
X-41495180Y8271428D01*
X-41495180Y8271428D02*
X-41495180Y8366666D01*
X-41495180Y8366666D02*
X-41447561Y8509523D01*
X-41447561Y8509523D02*
X-41399942Y8557142D01*
X-40495180Y9509523D02*
X-40495180Y8938095D01*
X-40495180Y9223809D02*
X-41495180Y9223809D01*
X-41495180Y9223809D02*
X-41352323Y9128571D01*
X-41352323Y9128571D02*
X-41257085Y9033333D01*
X-41257085Y9033333D02*
X-41209466Y8938095D01*
X-41495180Y9842857D02*
X-41495180Y10509523D01*
X-41495180Y10509523D02*
X-40495180Y10080952D01*
X20157142Y3740419D02*
X20109523Y3692800D01*
X20109523Y3692800D02*
X19966666Y3645180D01*
X19966666Y3645180D02*
X19871428Y3645180D01*
X19871428Y3645180D02*
X19728571Y3692800D01*
X19728571Y3692800D02*
X19633333Y3788038D01*
X19633333Y3788038D02*
X19585714Y3883276D01*
X19585714Y3883276D02*
X19538095Y4073752D01*
X19538095Y4073752D02*
X19538095Y4216609D01*
X19538095Y4216609D02*
X19585714Y4407085D01*
X19585714Y4407085D02*
X19633333Y4502323D01*
X19633333Y4502323D02*
X19728571Y4597561D01*
X19728571Y4597561D02*
X19871428Y4645180D01*
X19871428Y4645180D02*
X19966666Y4645180D01*
X19966666Y4645180D02*
X20109523Y4597561D01*
X20109523Y4597561D02*
X20157142Y4549942D01*
X20538095Y4549942D02*
X20585714Y4597561D01*
X20585714Y4597561D02*
X20680952Y4645180D01*
X20680952Y4645180D02*
X20919047Y4645180D01*
X20919047Y4645180D02*
X21014285Y4597561D01*
X21014285Y4597561D02*
X21061904Y4549942D01*
X21061904Y4549942D02*
X21109523Y4454704D01*
X21109523Y4454704D02*
X21109523Y4359466D01*
X21109523Y4359466D02*
X21061904Y4216609D01*
X21061904Y4216609D02*
X20490476Y3645180D01*
X20490476Y3645180D02*
X21109523Y3645180D01*
X22014285Y4645180D02*
X21538095Y4645180D01*
X21538095Y4645180D02*
X21490476Y4168990D01*
X21490476Y4168990D02*
X21538095Y4216609D01*
X21538095Y4216609D02*
X21633333Y4264228D01*
X21633333Y4264228D02*
X21871428Y4264228D01*
X21871428Y4264228D02*
X21966666Y4216609D01*
X21966666Y4216609D02*
X22014285Y4168990D01*
X22014285Y4168990D02*
X22061904Y4073752D01*
X22061904Y4073752D02*
X22061904Y3835657D01*
X22061904Y3835657D02*
X22014285Y3740419D01*
X22014285Y3740419D02*
X21966666Y3692800D01*
X21966666Y3692800D02*
X21871428Y3645180D01*
X21871428Y3645180D02*
X21633333Y3645180D01*
X21633333Y3645180D02*
X21538095Y3692800D01*
X21538095Y3692800D02*
X21490476Y3740419D01*
X-22760419Y21632142D02*
X-22712800Y21584523D01*
X-22712800Y21584523D02*
X-22665180Y21441666D01*
X-22665180Y21441666D02*
X-22665180Y21346428D01*
X-22665180Y21346428D02*
X-22712800Y21203571D01*
X-22712800Y21203571D02*
X-22808038Y21108333D01*
X-22808038Y21108333D02*
X-22903276Y21060714D01*
X-22903276Y21060714D02*
X-23093752Y21013095D01*
X-23093752Y21013095D02*
X-23236609Y21013095D01*
X-23236609Y21013095D02*
X-23427085Y21060714D01*
X-23427085Y21060714D02*
X-23522323Y21108333D01*
X-23522323Y21108333D02*
X-23617561Y21203571D01*
X-23617561Y21203571D02*
X-23665180Y21346428D01*
X-23665180Y21346428D02*
X-23665180Y21441666D01*
X-23665180Y21441666D02*
X-23617561Y21584523D01*
X-23617561Y21584523D02*
X-23569942Y21632142D01*
X-23569942Y22013095D02*
X-23617561Y22060714D01*
X-23617561Y22060714D02*
X-23665180Y22155952D01*
X-23665180Y22155952D02*
X-23665180Y22394047D01*
X-23665180Y22394047D02*
X-23617561Y22489285D01*
X-23617561Y22489285D02*
X-23569942Y22536904D01*
X-23569942Y22536904D02*
X-23474704Y22584523D01*
X-23474704Y22584523D02*
X-23379466Y22584523D01*
X-23379466Y22584523D02*
X-23236609Y22536904D01*
X-23236609Y22536904D02*
X-22665180Y21965476D01*
X-22665180Y21965476D02*
X-22665180Y22584523D01*
X-23665180Y23203571D02*
X-23665180Y23298809D01*
X-23665180Y23298809D02*
X-23617561Y23394047D01*
X-23617561Y23394047D02*
X-23569942Y23441666D01*
X-23569942Y23441666D02*
X-23474704Y23489285D01*
X-23474704Y23489285D02*
X-23284228Y23536904D01*
X-23284228Y23536904D02*
X-23046133Y23536904D01*
X-23046133Y23536904D02*
X-22855657Y23489285D01*
X-22855657Y23489285D02*
X-22760419Y23441666D01*
X-22760419Y23441666D02*
X-22712800Y23394047D01*
X-22712800Y23394047D02*
X-22665180Y23298809D01*
X-22665180Y23298809D02*
X-22665180Y23203571D01*
X-22665180Y23203571D02*
X-22712800Y23108333D01*
X-22712800Y23108333D02*
X-22760419Y23060714D01*
X-22760419Y23060714D02*
X-22855657Y23013095D01*
X-22855657Y23013095D02*
X-23046133Y22965476D01*
X-23046133Y22965476D02*
X-23284228Y22965476D01*
X-23284228Y22965476D02*
X-23474704Y23013095D01*
X-23474704Y23013095D02*
X-23569942Y23060714D01*
X-23569942Y23060714D02*
X-23617561Y23108333D01*
X-23617561Y23108333D02*
X-23665180Y23203571D01*
X-7540419Y-35742857D02*
X-7492800Y-35790476D01*
X-7492800Y-35790476D02*
X-7445180Y-35933333D01*
X-7445180Y-35933333D02*
X-7445180Y-36028571D01*
X-7445180Y-36028571D02*
X-7492800Y-36171428D01*
X-7492800Y-36171428D02*
X-7588038Y-36266666D01*
X-7588038Y-36266666D02*
X-7683276Y-36314285D01*
X-7683276Y-36314285D02*
X-7873752Y-36361904D01*
X-7873752Y-36361904D02*
X-8016609Y-36361904D01*
X-8016609Y-36361904D02*
X-8207085Y-36314285D01*
X-8207085Y-36314285D02*
X-8302323Y-36266666D01*
X-8302323Y-36266666D02*
X-8397561Y-36171428D01*
X-8397561Y-36171428D02*
X-8445180Y-36028571D01*
X-8445180Y-36028571D02*
X-8445180Y-35933333D01*
X-8445180Y-35933333D02*
X-8397561Y-35790476D01*
X-8397561Y-35790476D02*
X-8349942Y-35742857D01*
X-8445180Y-35409523D02*
X-8445180Y-34790476D01*
X-8445180Y-34790476D02*
X-8064228Y-35123809D01*
X-8064228Y-35123809D02*
X-8064228Y-34980952D01*
X-8064228Y-34980952D02*
X-8016609Y-34885714D01*
X-8016609Y-34885714D02*
X-7968990Y-34838095D01*
X-7968990Y-34838095D02*
X-7873752Y-34790476D01*
X-7873752Y-34790476D02*
X-7635657Y-34790476D01*
X-7635657Y-34790476D02*
X-7540419Y-34838095D01*
X-7540419Y-34838095D02*
X-7492800Y-34885714D01*
X-7492800Y-34885714D02*
X-7445180Y-34980952D01*
X-7445180Y-34980952D02*
X-7445180Y-35266666D01*
X-7445180Y-35266666D02*
X-7492800Y-35361904D01*
X-7492800Y-35361904D02*
X-7540419Y-35409523D01*
X-8445180Y-33885714D02*
X-8445180Y-34361904D01*
X-8445180Y-34361904D02*
X-7968990Y-34409523D01*
X-7968990Y-34409523D02*
X-8016609Y-34361904D01*
X-8016609Y-34361904D02*
X-8064228Y-34266666D01*
X-8064228Y-34266666D02*
X-8064228Y-34028571D01*
X-8064228Y-34028571D02*
X-8016609Y-33933333D01*
X-8016609Y-33933333D02*
X-7968990Y-33885714D01*
X-7968990Y-33885714D02*
X-7873752Y-33838095D01*
X-7873752Y-33838095D02*
X-7635657Y-33838095D01*
X-7635657Y-33838095D02*
X-7540419Y-33885714D01*
X-7540419Y-33885714D02*
X-7492800Y-33933333D01*
X-7492800Y-33933333D02*
X-7445180Y-34028571D01*
X-7445180Y-34028571D02*
X-7445180Y-34266666D01*
X-7445180Y-34266666D02*
X-7492800Y-34361904D01*
X-7492800Y-34361904D02*
X-7540419Y-34409523D01*
X29257142Y-28659580D02*
X29209523Y-28707200D01*
X29209523Y-28707200D02*
X29066666Y-28754819D01*
X29066666Y-28754819D02*
X28971428Y-28754819D01*
X28971428Y-28754819D02*
X28828571Y-28707200D01*
X28828571Y-28707200D02*
X28733333Y-28611961D01*
X28733333Y-28611961D02*
X28685714Y-28516723D01*
X28685714Y-28516723D02*
X28638095Y-28326247D01*
X28638095Y-28326247D02*
X28638095Y-28183390D01*
X28638095Y-28183390D02*
X28685714Y-27992914D01*
X28685714Y-27992914D02*
X28733333Y-27897676D01*
X28733333Y-27897676D02*
X28828571Y-27802438D01*
X28828571Y-27802438D02*
X28971428Y-27754819D01*
X28971428Y-27754819D02*
X29066666Y-27754819D01*
X29066666Y-27754819D02*
X29209523Y-27802438D01*
X29209523Y-27802438D02*
X29257142Y-27850057D01*
X29638095Y-27850057D02*
X29685714Y-27802438D01*
X29685714Y-27802438D02*
X29780952Y-27754819D01*
X29780952Y-27754819D02*
X30019047Y-27754819D01*
X30019047Y-27754819D02*
X30114285Y-27802438D01*
X30114285Y-27802438D02*
X30161904Y-27850057D01*
X30161904Y-27850057D02*
X30209523Y-27945295D01*
X30209523Y-27945295D02*
X30209523Y-28040533D01*
X30209523Y-28040533D02*
X30161904Y-28183390D01*
X30161904Y-28183390D02*
X29590476Y-28754819D01*
X29590476Y-28754819D02*
X30209523Y-28754819D01*
X30542857Y-27754819D02*
X31209523Y-27754819D01*
X31209523Y-27754819D02*
X30780952Y-28754819D01*
X-9366666Y-3259580D02*
X-9414285Y-3307200D01*
X-9414285Y-3307200D02*
X-9557142Y-3354819D01*
X-9557142Y-3354819D02*
X-9652380Y-3354819D01*
X-9652380Y-3354819D02*
X-9795237Y-3307200D01*
X-9795237Y-3307200D02*
X-9890475Y-3211961D01*
X-9890475Y-3211961D02*
X-9938094Y-3116723D01*
X-9938094Y-3116723D02*
X-9985713Y-2926247D01*
X-9985713Y-2926247D02*
X-9985713Y-2783390D01*
X-9985713Y-2783390D02*
X-9938094Y-2592914D01*
X-9938094Y-2592914D02*
X-9890475Y-2497676D01*
X-9890475Y-2497676D02*
X-9795237Y-2402438D01*
X-9795237Y-2402438D02*
X-9652380Y-2354819D01*
X-9652380Y-2354819D02*
X-9557142Y-2354819D01*
X-9557142Y-2354819D02*
X-9414285Y-2402438D01*
X-9414285Y-2402438D02*
X-9366666Y-2450057D01*
X-8414285Y-3354819D02*
X-8985713Y-3354819D01*
X-8699999Y-3354819D02*
X-8699999Y-2354819D01*
X-8699999Y-2354819D02*
X-8795237Y-2497676D01*
X-8795237Y-2497676D02*
X-8890475Y-2592914D01*
X-8890475Y-2592914D02*
X-8985713Y-2640533D01*
X11357142Y-22259580D02*
X11309523Y-22307200D01*
X11309523Y-22307200D02*
X11166666Y-22354819D01*
X11166666Y-22354819D02*
X11071428Y-22354819D01*
X11071428Y-22354819D02*
X10928571Y-22307200D01*
X10928571Y-22307200D02*
X10833333Y-22211961D01*
X10833333Y-22211961D02*
X10785714Y-22116723D01*
X10785714Y-22116723D02*
X10738095Y-21926247D01*
X10738095Y-21926247D02*
X10738095Y-21783390D01*
X10738095Y-21783390D02*
X10785714Y-21592914D01*
X10785714Y-21592914D02*
X10833333Y-21497676D01*
X10833333Y-21497676D02*
X10928571Y-21402438D01*
X10928571Y-21402438D02*
X11071428Y-21354819D01*
X11071428Y-21354819D02*
X11166666Y-21354819D01*
X11166666Y-21354819D02*
X11309523Y-21402438D01*
X11309523Y-21402438D02*
X11357142Y-21450057D01*
X11690476Y-21354819D02*
X12309523Y-21354819D01*
X12309523Y-21354819D02*
X11976190Y-21735771D01*
X11976190Y-21735771D02*
X12119047Y-21735771D01*
X12119047Y-21735771D02*
X12214285Y-21783390D01*
X12214285Y-21783390D02*
X12261904Y-21831009D01*
X12261904Y-21831009D02*
X12309523Y-21926247D01*
X12309523Y-21926247D02*
X12309523Y-22164342D01*
X12309523Y-22164342D02*
X12261904Y-22259580D01*
X12261904Y-22259580D02*
X12214285Y-22307200D01*
X12214285Y-22307200D02*
X12119047Y-22354819D01*
X12119047Y-22354819D02*
X11833333Y-22354819D01*
X11833333Y-22354819D02*
X11738095Y-22307200D01*
X11738095Y-22307200D02*
X11690476Y-22259580D01*
X12642857Y-21354819D02*
X13309523Y-21354819D01*
X13309523Y-21354819D02*
X12880952Y-22354819D01*
X-47754819Y-30080952D02*
X-47754819Y-29509524D01*
X-47754819Y-29795238D02*
X-46754819Y-29795238D01*
X-46754819Y-29795238D02*
X-46897676Y-29700000D01*
X-46897676Y-29700000D02*
X-46992914Y-29604762D01*
X-46992914Y-29604762D02*
X-47040533Y-29509524D01*
X-46850057Y-30461905D02*
X-46802438Y-30509524D01*
X-46802438Y-30509524D02*
X-46754819Y-30604762D01*
X-46754819Y-30604762D02*
X-46754819Y-30842857D01*
X-46754819Y-30842857D02*
X-46802438Y-30938095D01*
X-46802438Y-30938095D02*
X-46850057Y-30985714D01*
X-46850057Y-30985714D02*
X-46945295Y-31033333D01*
X-46945295Y-31033333D02*
X-47040533Y-31033333D01*
X-47040533Y-31033333D02*
X-47183390Y-30985714D01*
X-47183390Y-30985714D02*
X-47754819Y-30414286D01*
X-47754819Y-30414286D02*
X-47754819Y-31033333D01*
X-46754819Y-31319048D02*
X-47754819Y-31652381D01*
X-47754819Y-31652381D02*
X-46754819Y-31985714D01*
X46954819Y1980952D02*
X46954819Y2171428D01*
X46954819Y2171428D02*
X46907200Y2266666D01*
X46907200Y2266666D02*
X46859580Y2314285D01*
X46859580Y2314285D02*
X46716723Y2409523D01*
X46716723Y2409523D02*
X46526247Y2457142D01*
X46526247Y2457142D02*
X46145295Y2457142D01*
X46145295Y2457142D02*
X46050057Y2409523D01*
X46050057Y2409523D02*
X46002438Y2361904D01*
X46002438Y2361904D02*
X45954819Y2266666D01*
X45954819Y2266666D02*
X45954819Y2076190D01*
X45954819Y2076190D02*
X46002438Y1980952D01*
X46002438Y1980952D02*
X46050057Y1933333D01*
X46050057Y1933333D02*
X46145295Y1885714D01*
X46145295Y1885714D02*
X46383390Y1885714D01*
X46383390Y1885714D02*
X46478628Y1933333D01*
X46478628Y1933333D02*
X46526247Y1980952D01*
X46526247Y1980952D02*
X46573866Y2076190D01*
X46573866Y2076190D02*
X46573866Y2266666D01*
X46573866Y2266666D02*
X46526247Y2361904D01*
X46526247Y2361904D02*
X46478628Y2409523D01*
X46478628Y2409523D02*
X46383390Y2457142D01*
X45954819Y2742857D02*
X46954819Y3076190D01*
X46954819Y3076190D02*
X45954819Y3409523D01*
X-17740419Y12833333D02*
X-17692800Y12785714D01*
X-17692800Y12785714D02*
X-17645180Y12642857D01*
X-17645180Y12642857D02*
X-17645180Y12547619D01*
X-17645180Y12547619D02*
X-17692800Y12404762D01*
X-17692800Y12404762D02*
X-17788038Y12309524D01*
X-17788038Y12309524D02*
X-17883276Y12261905D01*
X-17883276Y12261905D02*
X-18073752Y12214286D01*
X-18073752Y12214286D02*
X-18216609Y12214286D01*
X-18216609Y12214286D02*
X-18407085Y12261905D01*
X-18407085Y12261905D02*
X-18502323Y12309524D01*
X-18502323Y12309524D02*
X-18597561Y12404762D01*
X-18597561Y12404762D02*
X-18645180Y12547619D01*
X-18645180Y12547619D02*
X-18645180Y12642857D01*
X-18645180Y12642857D02*
X-18597561Y12785714D01*
X-18597561Y12785714D02*
X-18549942Y12833333D01*
X-18311847Y13690476D02*
X-17645180Y13690476D01*
X-18692800Y13452381D02*
X-17978514Y13214286D01*
X-17978514Y13214286D02*
X-17978514Y13833333D01*
X19657142Y-24959580D02*
X19609523Y-25007200D01*
X19609523Y-25007200D02*
X19466666Y-25054819D01*
X19466666Y-25054819D02*
X19371428Y-25054819D01*
X19371428Y-25054819D02*
X19228571Y-25007200D01*
X19228571Y-25007200D02*
X19133333Y-24911961D01*
X19133333Y-24911961D02*
X19085714Y-24816723D01*
X19085714Y-24816723D02*
X19038095Y-24626247D01*
X19038095Y-24626247D02*
X19038095Y-24483390D01*
X19038095Y-24483390D02*
X19085714Y-24292914D01*
X19085714Y-24292914D02*
X19133333Y-24197676D01*
X19133333Y-24197676D02*
X19228571Y-24102438D01*
X19228571Y-24102438D02*
X19371428Y-24054819D01*
X19371428Y-24054819D02*
X19466666Y-24054819D01*
X19466666Y-24054819D02*
X19609523Y-24102438D01*
X19609523Y-24102438D02*
X19657142Y-24150057D01*
X20038095Y-24150057D02*
X20085714Y-24102438D01*
X20085714Y-24102438D02*
X20180952Y-24054819D01*
X20180952Y-24054819D02*
X20419047Y-24054819D01*
X20419047Y-24054819D02*
X20514285Y-24102438D01*
X20514285Y-24102438D02*
X20561904Y-24150057D01*
X20561904Y-24150057D02*
X20609523Y-24245295D01*
X20609523Y-24245295D02*
X20609523Y-24340533D01*
X20609523Y-24340533D02*
X20561904Y-24483390D01*
X20561904Y-24483390D02*
X19990476Y-25054819D01*
X19990476Y-25054819D02*
X20609523Y-25054819D01*
X21180952Y-24483390D02*
X21085714Y-24435771D01*
X21085714Y-24435771D02*
X21038095Y-24388152D01*
X21038095Y-24388152D02*
X20990476Y-24292914D01*
X20990476Y-24292914D02*
X20990476Y-24245295D01*
X20990476Y-24245295D02*
X21038095Y-24150057D01*
X21038095Y-24150057D02*
X21085714Y-24102438D01*
X21085714Y-24102438D02*
X21180952Y-24054819D01*
X21180952Y-24054819D02*
X21371428Y-24054819D01*
X21371428Y-24054819D02*
X21466666Y-24102438D01*
X21466666Y-24102438D02*
X21514285Y-24150057D01*
X21514285Y-24150057D02*
X21561904Y-24245295D01*
X21561904Y-24245295D02*
X21561904Y-24292914D01*
X21561904Y-24292914D02*
X21514285Y-24388152D01*
X21514285Y-24388152D02*
X21466666Y-24435771D01*
X21466666Y-24435771D02*
X21371428Y-24483390D01*
X21371428Y-24483390D02*
X21180952Y-24483390D01*
X21180952Y-24483390D02*
X21085714Y-24531009D01*
X21085714Y-24531009D02*
X21038095Y-24578628D01*
X21038095Y-24578628D02*
X20990476Y-24673866D01*
X20990476Y-24673866D02*
X20990476Y-24864342D01*
X20990476Y-24864342D02*
X21038095Y-24959580D01*
X21038095Y-24959580D02*
X21085714Y-25007200D01*
X21085714Y-25007200D02*
X21180952Y-25054819D01*
X21180952Y-25054819D02*
X21371428Y-25054819D01*
X21371428Y-25054819D02*
X21466666Y-25007200D01*
X21466666Y-25007200D02*
X21514285Y-24959580D01*
X21514285Y-24959580D02*
X21561904Y-24864342D01*
X21561904Y-24864342D02*
X21561904Y-24673866D01*
X21561904Y-24673866D02*
X21514285Y-24578628D01*
X21514285Y-24578628D02*
X21466666Y-24531009D01*
X21466666Y-24531009D02*
X21371428Y-24483390D01*
X-2142857Y-23959580D02*
X-2190476Y-24007200D01*
X-2190476Y-24007200D02*
X-2333333Y-24054819D01*
X-2333333Y-24054819D02*
X-2428571Y-24054819D01*
X-2428571Y-24054819D02*
X-2571428Y-24007200D01*
X-2571428Y-24007200D02*
X-2666666Y-23911961D01*
X-2666666Y-23911961D02*
X-2714285Y-23816723D01*
X-2714285Y-23816723D02*
X-2761904Y-23626247D01*
X-2761904Y-23626247D02*
X-2761904Y-23483390D01*
X-2761904Y-23483390D02*
X-2714285Y-23292914D01*
X-2714285Y-23292914D02*
X-2666666Y-23197676D01*
X-2666666Y-23197676D02*
X-2571428Y-23102438D01*
X-2571428Y-23102438D02*
X-2428571Y-23054819D01*
X-2428571Y-23054819D02*
X-2333333Y-23054819D01*
X-2333333Y-23054819D02*
X-2190476Y-23102438D01*
X-2190476Y-23102438D02*
X-2142857Y-23150057D01*
X-1809523Y-23054819D02*
X-1190476Y-23054819D01*
X-1190476Y-23054819D02*
X-1523809Y-23435771D01*
X-1523809Y-23435771D02*
X-1380952Y-23435771D01*
X-1380952Y-23435771D02*
X-1285714Y-23483390D01*
X-1285714Y-23483390D02*
X-1238095Y-23531009D01*
X-1238095Y-23531009D02*
X-1190476Y-23626247D01*
X-1190476Y-23626247D02*
X-1190476Y-23864342D01*
X-1190476Y-23864342D02*
X-1238095Y-23959580D01*
X-1238095Y-23959580D02*
X-1285714Y-24007200D01*
X-1285714Y-24007200D02*
X-1380952Y-24054819D01*
X-1380952Y-24054819D02*
X-1666666Y-24054819D01*
X-1666666Y-24054819D02*
X-1761904Y-24007200D01*
X-1761904Y-24007200D02*
X-1809523Y-23959580D01*
X-619047Y-23483390D02*
X-714285Y-23435771D01*
X-714285Y-23435771D02*
X-761904Y-23388152D01*
X-761904Y-23388152D02*
X-809523Y-23292914D01*
X-809523Y-23292914D02*
X-809523Y-23245295D01*
X-809523Y-23245295D02*
X-761904Y-23150057D01*
X-761904Y-23150057D02*
X-714285Y-23102438D01*
X-714285Y-23102438D02*
X-619047Y-23054819D01*
X-619047Y-23054819D02*
X-428571Y-23054819D01*
X-428571Y-23054819D02*
X-333333Y-23102438D01*
X-333333Y-23102438D02*
X-285714Y-23150057D01*
X-285714Y-23150057D02*
X-238095Y-23245295D01*
X-238095Y-23245295D02*
X-238095Y-23292914D01*
X-238095Y-23292914D02*
X-285714Y-23388152D01*
X-285714Y-23388152D02*
X-333333Y-23435771D01*
X-333333Y-23435771D02*
X-428571Y-23483390D01*
X-428571Y-23483390D02*
X-619047Y-23483390D01*
X-619047Y-23483390D02*
X-714285Y-23531009D01*
X-714285Y-23531009D02*
X-761904Y-23578628D01*
X-761904Y-23578628D02*
X-809523Y-23673866D01*
X-809523Y-23673866D02*
X-809523Y-23864342D01*
X-809523Y-23864342D02*
X-761904Y-23959580D01*
X-761904Y-23959580D02*
X-714285Y-24007200D01*
X-714285Y-24007200D02*
X-619047Y-24054819D01*
X-619047Y-24054819D02*
X-428571Y-24054819D01*
X-428571Y-24054819D02*
X-333333Y-24007200D01*
X-333333Y-24007200D02*
X-285714Y-23959580D01*
X-285714Y-23959580D02*
X-238095Y-23864342D01*
X-238095Y-23864342D02*
X-238095Y-23673866D01*
X-238095Y-23673866D02*
X-285714Y-23578628D01*
X-285714Y-23578628D02*
X-333333Y-23531009D01*
X-333333Y-23531009D02*
X-428571Y-23483390D01*
X-5466666Y-4759580D02*
X-5514285Y-4807200D01*
X-5514285Y-4807200D02*
X-5657142Y-4854819D01*
X-5657142Y-4854819D02*
X-5752380Y-4854819D01*
X-5752380Y-4854819D02*
X-5895237Y-4807200D01*
X-5895237Y-4807200D02*
X-5990475Y-4711961D01*
X-5990475Y-4711961D02*
X-6038094Y-4616723D01*
X-6038094Y-4616723D02*
X-6085713Y-4426247D01*
X-6085713Y-4426247D02*
X-6085713Y-4283390D01*
X-6085713Y-4283390D02*
X-6038094Y-4092914D01*
X-6038094Y-4092914D02*
X-5990475Y-3997676D01*
X-5990475Y-3997676D02*
X-5895237Y-3902438D01*
X-5895237Y-3902438D02*
X-5752380Y-3854819D01*
X-5752380Y-3854819D02*
X-5657142Y-3854819D01*
X-5657142Y-3854819D02*
X-5514285Y-3902438D01*
X-5514285Y-3902438D02*
X-5466666Y-3950057D01*
X-5085713Y-3950057D02*
X-5038094Y-3902438D01*
X-5038094Y-3902438D02*
X-4942856Y-3854819D01*
X-4942856Y-3854819D02*
X-4704761Y-3854819D01*
X-4704761Y-3854819D02*
X-4609523Y-3902438D01*
X-4609523Y-3902438D02*
X-4561904Y-3950057D01*
X-4561904Y-3950057D02*
X-4514285Y-4045295D01*
X-4514285Y-4045295D02*
X-4514285Y-4140533D01*
X-4514285Y-4140533D02*
X-4561904Y-4283390D01*
X-4561904Y-4283390D02*
X-5133332Y-4854819D01*
X-5133332Y-4854819D02*
X-4514285Y-4854819D01*
X20259580Y-9142857D02*
X20307200Y-9190476D01*
X20307200Y-9190476D02*
X20354819Y-9333333D01*
X20354819Y-9333333D02*
X20354819Y-9428571D01*
X20354819Y-9428571D02*
X20307200Y-9571428D01*
X20307200Y-9571428D02*
X20211961Y-9666666D01*
X20211961Y-9666666D02*
X20116723Y-9714285D01*
X20116723Y-9714285D02*
X19926247Y-9761904D01*
X19926247Y-9761904D02*
X19783390Y-9761904D01*
X19783390Y-9761904D02*
X19592914Y-9714285D01*
X19592914Y-9714285D02*
X19497676Y-9666666D01*
X19497676Y-9666666D02*
X19402438Y-9571428D01*
X19402438Y-9571428D02*
X19354819Y-9428571D01*
X19354819Y-9428571D02*
X19354819Y-9333333D01*
X19354819Y-9333333D02*
X19402438Y-9190476D01*
X19402438Y-9190476D02*
X19450057Y-9142857D01*
X19450057Y-8761904D02*
X19402438Y-8714285D01*
X19402438Y-8714285D02*
X19354819Y-8619047D01*
X19354819Y-8619047D02*
X19354819Y-8380952D01*
X19354819Y-8380952D02*
X19402438Y-8285714D01*
X19402438Y-8285714D02*
X19450057Y-8238095D01*
X19450057Y-8238095D02*
X19545295Y-8190476D01*
X19545295Y-8190476D02*
X19640533Y-8190476D01*
X19640533Y-8190476D02*
X19783390Y-8238095D01*
X19783390Y-8238095D02*
X20354819Y-8809523D01*
X20354819Y-8809523D02*
X20354819Y-8190476D01*
X19354819Y-7333333D02*
X19354819Y-7523809D01*
X19354819Y-7523809D02*
X19402438Y-7619047D01*
X19402438Y-7619047D02*
X19450057Y-7666666D01*
X19450057Y-7666666D02*
X19592914Y-7761904D01*
X19592914Y-7761904D02*
X19783390Y-7809523D01*
X19783390Y-7809523D02*
X20164342Y-7809523D01*
X20164342Y-7809523D02*
X20259580Y-7761904D01*
X20259580Y-7761904D02*
X20307200Y-7714285D01*
X20307200Y-7714285D02*
X20354819Y-7619047D01*
X20354819Y-7619047D02*
X20354819Y-7428571D01*
X20354819Y-7428571D02*
X20307200Y-7333333D01*
X20307200Y-7333333D02*
X20259580Y-7285714D01*
X20259580Y-7285714D02*
X20164342Y-7238095D01*
X20164342Y-7238095D02*
X19926247Y-7238095D01*
X19926247Y-7238095D02*
X19831009Y-7285714D01*
X19831009Y-7285714D02*
X19783390Y-7333333D01*
X19783390Y-7333333D02*
X19735771Y-7428571D01*
X19735771Y-7428571D02*
X19735771Y-7619047D01*
X19735771Y-7619047D02*
X19783390Y-7714285D01*
X19783390Y-7714285D02*
X19831009Y-7761904D01*
X19831009Y-7761904D02*
X19926247Y-7809523D01*
X42257142Y-34859580D02*
X42209523Y-34907200D01*
X42209523Y-34907200D02*
X42066666Y-34954819D01*
X42066666Y-34954819D02*
X41971428Y-34954819D01*
X41971428Y-34954819D02*
X41828571Y-34907200D01*
X41828571Y-34907200D02*
X41733333Y-34811961D01*
X41733333Y-34811961D02*
X41685714Y-34716723D01*
X41685714Y-34716723D02*
X41638095Y-34526247D01*
X41638095Y-34526247D02*
X41638095Y-34383390D01*
X41638095Y-34383390D02*
X41685714Y-34192914D01*
X41685714Y-34192914D02*
X41733333Y-34097676D01*
X41733333Y-34097676D02*
X41828571Y-34002438D01*
X41828571Y-34002438D02*
X41971428Y-33954819D01*
X41971428Y-33954819D02*
X42066666Y-33954819D01*
X42066666Y-33954819D02*
X42209523Y-34002438D01*
X42209523Y-34002438D02*
X42257142Y-34050057D01*
X42590476Y-33954819D02*
X43209523Y-33954819D01*
X43209523Y-33954819D02*
X42876190Y-34335771D01*
X42876190Y-34335771D02*
X43019047Y-34335771D01*
X43019047Y-34335771D02*
X43114285Y-34383390D01*
X43114285Y-34383390D02*
X43161904Y-34431009D01*
X43161904Y-34431009D02*
X43209523Y-34526247D01*
X43209523Y-34526247D02*
X43209523Y-34764342D01*
X43209523Y-34764342D02*
X43161904Y-34859580D01*
X43161904Y-34859580D02*
X43114285Y-34907200D01*
X43114285Y-34907200D02*
X43019047Y-34954819D01*
X43019047Y-34954819D02*
X42733333Y-34954819D01*
X42733333Y-34954819D02*
X42638095Y-34907200D01*
X42638095Y-34907200D02*
X42590476Y-34859580D01*
X44161904Y-34954819D02*
X43590476Y-34954819D01*
X43876190Y-34954819D02*
X43876190Y-33954819D01*
X43876190Y-33954819D02*
X43780952Y-34097676D01*
X43780952Y-34097676D02*
X43685714Y-34192914D01*
X43685714Y-34192914D02*
X43590476Y-34240533D01*
X-2166666Y18045180D02*
X-2499999Y18521371D01*
X-2738094Y18045180D02*
X-2738094Y19045180D01*
X-2738094Y19045180D02*
X-2357142Y19045180D01*
X-2357142Y19045180D02*
X-2261904Y18997561D01*
X-2261904Y18997561D02*
X-2214285Y18949942D01*
X-2214285Y18949942D02*
X-2166666Y18854704D01*
X-2166666Y18854704D02*
X-2166666Y18711847D01*
X-2166666Y18711847D02*
X-2214285Y18616609D01*
X-2214285Y18616609D02*
X-2261904Y18568990D01*
X-2261904Y18568990D02*
X-2357142Y18521371D01*
X-2357142Y18521371D02*
X-2738094Y18521371D01*
X-1833332Y19045180D02*
X-1166666Y19045180D01*
X-1166666Y19045180D02*
X-1595237Y18045180D01*
D11*
%TO.C,J7*%
X30400000Y-35100000D02*
X40400000Y-35100000D01*
X30400000Y-42700000D02*
X30400000Y-35100000D01*
X40400000Y-35100000D02*
X40400000Y-42700000D01*
X40400000Y-42700000D02*
X30400000Y-42700000D01*
D12*
X38000000Y-34100000D02*
G75*
G02*
X37800000Y-34100000I-100000J0D01*
G01*
X37800000Y-34100000D02*
G75*
G02*
X38000000Y-34100000I100000J0D01*
G01*
%TO.C,J2*%
X-2850000Y5100000D02*
X-2850000Y-7900000D01*
X-2850000Y-7900000D02*
X-2400000Y-7900000D01*
X-2400000Y7750000D02*
X7600000Y7750000D01*
X-2400000Y5100000D02*
X-2850000Y5100000D01*
X-2400000Y-10900000D02*
X-2400000Y7750000D01*
D13*
X2600000Y-14000000D02*
X2600000Y-14000000D01*
X2600000Y-14100000D02*
X2600000Y-14100000D01*
D12*
X4950000Y-13550000D02*
X250000Y-13550000D01*
X7600000Y7750000D02*
X7600000Y-10900000D01*
X7600000Y-7900000D02*
X8050000Y-7900000D01*
X8050000Y5100000D02*
X7600000Y5100000D01*
X8050000Y-7900000D02*
X8050000Y5100000D01*
D13*
X2600000Y-14000000D02*
G75*
G02*
X2600000Y-14100000I0J-50000D01*
G01*
X2600000Y-14100000D02*
G75*
G02*
X2600000Y-14000000I0J50000D01*
G01*
D14*
%TO.C,C16*%
X-26735000Y-20611252D02*
X-26735000Y-20088748D01*
X-25265000Y-20611252D02*
X-25265000Y-20088748D01*
D12*
%TO.C,L6*%
X32800000Y-18475000D02*
X46300000Y-18475000D01*
X32800000Y-21525000D02*
X32800000Y-18475000D01*
X32800000Y-27900000D02*
X32800000Y-30950000D01*
X32800000Y-30950000D02*
X46300000Y-30950000D01*
X46300000Y-18475000D02*
X46300000Y-21500000D01*
X46300000Y-30950000D02*
X46300000Y-27925000D01*
D14*
%TO.C,C18*%
X-29040000Y5776248D02*
X-29040000Y6298752D01*
X-27570000Y5776248D02*
X-27570000Y6298752D01*
D13*
%TO.C,U7*%
X19612500Y-2525000D02*
X19612500Y-2525000D01*
X19712500Y-2525000D02*
X19712500Y-2525000D01*
D12*
X20112500Y-1775000D02*
X20512500Y-1775000D01*
X20112500Y-2175000D02*
X20112500Y-1775000D01*
X20112500Y-5375000D02*
X20112500Y-5775000D01*
X20112500Y-5775000D02*
X20512500Y-5775000D01*
X23712500Y-1775000D02*
X24112500Y-1775000D01*
X24112500Y-1775000D02*
X24112500Y-2175000D01*
X24112500Y-5375000D02*
X24112500Y-5775000D01*
X24112500Y-5775000D02*
X23712500Y-5775000D01*
D13*
X19612500Y-2525000D02*
G75*
G02*
X19712500Y-2525000I50000J0D01*
G01*
X19712500Y-2525000D02*
G75*
G02*
X19612500Y-2525000I-50000J0D01*
G01*
D14*
%TO.C,C15*%
X-38160000Y-20223752D02*
X-38160000Y-18801248D01*
X-36340000Y-20223752D02*
X-36340000Y-18801248D01*
D12*
%TO.C,L5*%
X26925000Y4250000D02*
X26925000Y-9250000D01*
X26925000Y-9250000D02*
X29950000Y-9250000D01*
X29975000Y4250000D02*
X26925000Y4250000D01*
X36350000Y4250000D02*
X39400000Y4250000D01*
X39400000Y4250000D02*
X39400000Y-9250000D01*
X39400000Y-9250000D02*
X36375000Y-9250000D01*
%TO.C,U3*%
X3300000Y17537500D02*
X4500000Y17537500D01*
X4850000Y17487500D02*
X5450000Y17487500D01*
X4850000Y14587500D02*
X4850000Y17487500D01*
X5450000Y17487500D02*
X5450000Y14587500D01*
X5450000Y14587500D02*
X4850000Y14587500D01*
D14*
%TO.C,C39*%
X-14085000Y-40623752D02*
X-14085000Y-40101248D01*
X-12615000Y-40623752D02*
X-12615000Y-40101248D01*
%TO.C,C36*%
X-11776248Y-23952500D02*
X-12298752Y-23952500D01*
X-11776248Y-25422500D02*
X-12298752Y-25422500D01*
%TO.C,C29*%
X32561252Y-10565000D02*
X32038748Y-10565000D01*
X32561252Y-12035000D02*
X32038748Y-12035000D01*
D12*
%TO.C,U8*%
X23450000Y-18800000D02*
X23450000Y-19200000D01*
X23450000Y-22800000D02*
X23450000Y-22400000D01*
X23850000Y-18800000D02*
X23450000Y-18800000D01*
X23850000Y-22800000D02*
X23450000Y-22800000D01*
D13*
X26700000Y-18300000D02*
X26700000Y-18300000D01*
X26700000Y-18400000D02*
X26700000Y-18400000D01*
D12*
X27050000Y-18800000D02*
X27450000Y-18800000D01*
X27450000Y-18800000D02*
X27450000Y-19200000D01*
X27450000Y-22400000D02*
X27450000Y-22800000D01*
X27450000Y-22800000D02*
X27050000Y-22800000D01*
D13*
X26700000Y-18300000D02*
G75*
G02*
X26700000Y-18400000I0J-50000D01*
G01*
X26700000Y-18400000D02*
G75*
G02*
X26700000Y-18300000I0J50000D01*
G01*
D12*
%TO.C,U9*%
X-12575000Y-26837500D02*
X-12175000Y-26837500D01*
X-12575000Y-27237500D02*
X-12575000Y-26837500D01*
X-12575000Y-30837500D02*
X-12575000Y-30437500D01*
X-12175000Y-30837500D02*
X-12575000Y-30837500D01*
X-8575000Y-26837500D02*
X-8975000Y-26837500D01*
X-8575000Y-27237500D02*
X-8575000Y-26837500D01*
X-8575000Y-30437500D02*
X-8575000Y-30837500D01*
X-8575000Y-30837500D02*
X-8975000Y-30837500D01*
D13*
X-8175000Y-30087500D02*
X-8175000Y-30087500D01*
X-8075000Y-30087500D02*
X-8075000Y-30087500D01*
X-8175000Y-30087500D02*
G75*
G02*
X-8075000Y-30087500I50000J0D01*
G01*
X-8075000Y-30087500D02*
G75*
G02*
X-8175000Y-30087500I-50000J0D01*
G01*
D14*
%TO.C,C8*%
X8065000Y16286252D02*
X8065000Y15763748D01*
X9535000Y16286252D02*
X9535000Y15763748D01*
%TO.C,C3*%
X-15261252Y-65000D02*
X-14738748Y-65000D01*
X-15261252Y-1535000D02*
X-14738748Y-1535000D01*
%TO.C,C19*%
X-42998752Y-1665000D02*
X-42476248Y-1665000D01*
X-42998752Y-3135000D02*
X-42476248Y-3135000D01*
%TO.C,C9*%
X-535000Y16361252D02*
X-535000Y15838748D01*
X935000Y16361252D02*
X935000Y15838748D01*
D12*
%TO.C,L4*%
X-39350000Y24550000D02*
X-36325000Y24550000D01*
X-39350000Y11050000D02*
X-39350000Y24550000D01*
X-36300000Y11050000D02*
X-39350000Y11050000D01*
X-29925000Y11050000D02*
X-26875000Y11050000D01*
X-26875000Y24550000D02*
X-29900000Y24550000D01*
X-26875000Y11050000D02*
X-26875000Y24550000D01*
D11*
%TO.C,J5*%
X-48900000Y21575000D02*
X-41300000Y21575000D01*
X-48900000Y11575000D02*
X-48900000Y21575000D01*
X-41300000Y21575000D02*
X-41300000Y11575000D01*
X-41300000Y11575000D02*
X-48900000Y11575000D01*
D12*
X-40200000Y14075000D02*
G75*
G02*
X-40400000Y14075000I-100000J0D01*
G01*
X-40400000Y14075000D02*
G75*
G02*
X-40200000Y14075000I100000J0D01*
G01*
D14*
%TO.C,C41*%
X5565000Y-38648752D02*
X5565000Y-38126248D01*
X7035000Y-38648752D02*
X7035000Y-38126248D01*
D12*
%TO.C,U6*%
X-34790000Y7175000D02*
X-34390000Y7175000D01*
X-34790000Y6775000D02*
X-34790000Y7175000D01*
X-34790000Y3175000D02*
X-34790000Y3575000D01*
X-34390000Y3175000D02*
X-34790000Y3175000D01*
D13*
X-34040000Y2775000D02*
X-34040000Y2775000D01*
X-34040000Y2675000D02*
X-34040000Y2675000D01*
D12*
X-31190000Y7175000D02*
X-30790000Y7175000D01*
X-31190000Y3175000D02*
X-30790000Y3175000D01*
X-30790000Y7175000D02*
X-30790000Y6775000D01*
X-30790000Y3175000D02*
X-30790000Y3575000D01*
D13*
X-34040000Y2775000D02*
G75*
G02*
X-34040000Y2675000I0J-50000D01*
G01*
X-34040000Y2675000D02*
G75*
G02*
X-34040000Y2775000I0J50000D01*
G01*
D11*
%TO.C,J9*%
X-5400000Y-35700000D02*
X4600000Y-35700000D01*
X-5400000Y-43300000D02*
X-5400000Y-35700000D01*
X4600000Y-35700000D02*
X4600000Y-43300000D01*
X4600000Y-43300000D02*
X-5400000Y-43300000D01*
D12*
X2200000Y-34700000D02*
G75*
G02*
X2000000Y-34700000I-100000J0D01*
G01*
X2000000Y-34700000D02*
G75*
G02*
X2200000Y-34700000I100000J0D01*
G01*
D11*
%TO.C,J8*%
X-38700000Y-36500000D02*
X-28700000Y-36500000D01*
X-38700000Y-44100000D02*
X-38700000Y-36500000D01*
X-28700000Y-36500000D02*
X-28700000Y-44100000D01*
X-28700000Y-44100000D02*
X-38700000Y-44100000D01*
D12*
X-31100000Y-35500000D02*
G75*
G02*
X-31300000Y-35500000I-100000J0D01*
G01*
X-31300000Y-35500000D02*
G75*
G02*
X-31100000Y-35500000I100000J0D01*
G01*
D14*
%TO.C,C17*%
X-39810000Y7088748D02*
X-39810000Y8511252D01*
X-37990000Y7088748D02*
X-37990000Y8511252D01*
D12*
%TO.C,L8*%
X8025000Y-29000000D02*
X8025000Y-42500000D01*
X8025000Y-42500000D02*
X11050000Y-42500000D01*
X11075000Y-29000000D02*
X8025000Y-29000000D01*
X17450000Y-29000000D02*
X20500000Y-29000000D01*
X20500000Y-29000000D02*
X20500000Y-42500000D01*
X20500000Y-42500000D02*
X17475000Y-42500000D01*
D14*
%TO.C,C25*%
X22526248Y3110000D02*
X23948752Y3110000D01*
X22526248Y1290000D02*
X23948752Y1290000D01*
%TO.C,C20*%
X-25535000Y22536252D02*
X-25535000Y22013748D01*
X-24065000Y22536252D02*
X-24065000Y22013748D01*
%TO.C,C35*%
X-11051248Y-34240000D02*
X-12473752Y-34240000D01*
X-11051248Y-36060000D02*
X-12473752Y-36060000D01*
%TO.C,C27*%
X29140000Y-23876248D02*
X29140000Y-25298752D01*
X30960000Y-23876248D02*
X30960000Y-25298752D01*
D12*
%TO.C,U10*%
X2110000Y-24450000D02*
X2110000Y-24850000D01*
X2110000Y-28450000D02*
X2110000Y-28050000D01*
X2510000Y-24450000D02*
X2110000Y-24450000D01*
X2510000Y-28450000D02*
X2110000Y-28450000D01*
D13*
X5360000Y-23950000D02*
X5360000Y-23950000D01*
X5360000Y-24050000D02*
X5360000Y-24050000D01*
D12*
X5710000Y-24450000D02*
X6110000Y-24450000D01*
X6110000Y-24450000D02*
X6110000Y-24850000D01*
X6110000Y-28050000D02*
X6110000Y-28450000D01*
X6110000Y-28450000D02*
X5710000Y-28450000D01*
D13*
X5360000Y-23950000D02*
G75*
G02*
X5360000Y-24050000I0J-50000D01*
G01*
X5360000Y-24050000D02*
G75*
G02*
X5360000Y-23950000I0J50000D01*
G01*
%TO.C,S3*%
X-10250000Y20600000D02*
X-10250000Y20600000D01*
X-10150000Y20600000D02*
X-10150000Y20600000D01*
D12*
X-8400000Y19850000D02*
X-8400000Y17850000D01*
X-5900000Y21550000D02*
X-8400000Y21550000D01*
X-5900000Y19650000D02*
X-5900000Y21550000D01*
X-5900000Y18050000D02*
X-5900000Y16150000D01*
X-5900000Y16150000D02*
X-8400000Y16150000D01*
D13*
X-10250000Y20600000D02*
G75*
G02*
X-10150000Y20600000I50000J0D01*
G01*
X-10150000Y20600000D02*
G75*
G02*
X-10250000Y20600000I-50000J0D01*
G01*
D12*
%TO.C,L1*%
X-15998000Y1120000D02*
X-5202000Y1120000D01*
X-5202000Y11280000D02*
X-15998000Y11280000D01*
D14*
%TO.C,C1*%
X-9073752Y110000D02*
X-7651248Y110000D01*
X-9073752Y-1710000D02*
X-7651248Y-1710000D01*
%TO.C,C37*%
X10340000Y-24826248D02*
X10340000Y-26248752D01*
X12160000Y-24826248D02*
X12160000Y-26248752D01*
D11*
%TO.C,J4*%
X-48962500Y-18450000D02*
X-41362500Y-18450000D01*
X-48962500Y-28450000D02*
X-48962500Y-18450000D01*
X-41362500Y-18450000D02*
X-41362500Y-28450000D01*
X-41362500Y-28450000D02*
X-48962500Y-28450000D01*
D12*
X-40262500Y-25950000D02*
G75*
G02*
X-40462500Y-25950000I-100000J0D01*
G01*
X-40462500Y-25950000D02*
G75*
G02*
X-40262500Y-25950000I100000J0D01*
G01*
D11*
%TO.C,J6*%
X40737500Y700000D02*
X48337500Y700000D01*
X40737500Y-9300000D02*
X40737500Y700000D01*
X48337500Y700000D02*
X48337500Y-9300000D01*
X48337500Y-9300000D02*
X40737500Y-9300000D01*
D12*
X39837500Y-1800000D02*
G75*
G02*
X39637500Y-1800000I-100000J0D01*
G01*
X39637500Y-1800000D02*
G75*
G02*
X39837500Y-1800000I100000J0D01*
G01*
D14*
%TO.C,C4*%
X-15261252Y13735000D02*
X-14738748Y13735000D01*
X-15261252Y12265000D02*
X-14738748Y12265000D01*
D12*
%TO.C,L7*%
X-27425000Y-29850000D02*
X-27425000Y-43350000D01*
X-27425000Y-43350000D02*
X-24400000Y-43350000D01*
X-24375000Y-29850000D02*
X-27425000Y-29850000D01*
X-18000000Y-29850000D02*
X-14950000Y-29850000D01*
X-14950000Y-29850000D02*
X-14950000Y-43350000D01*
X-14950000Y-43350000D02*
X-17975000Y-43350000D01*
D14*
%TO.C,C28*%
X20465000Y-21301248D02*
X20465000Y-21823752D01*
X21935000Y-21301248D02*
X21935000Y-21823752D01*
%TO.C,C38*%
X-910000Y-26976248D02*
X-910000Y-27498752D01*
X560000Y-26976248D02*
X560000Y-27498752D01*
D12*
%TO.C,U2*%
X-10825000Y-8525000D02*
X-10825000Y-7275000D01*
X-10648000Y-6375000D02*
X-7752000Y-6375000D01*
X-10648000Y-6925000D02*
X-10648000Y-6375000D01*
X-7752000Y-6375000D02*
X-7752000Y-6925000D01*
X-7752000Y-6925000D02*
X-10648000Y-6925000D01*
%TO.C,U5*%
X-32170000Y-19447500D02*
X-31770000Y-19447500D01*
X-32170000Y-19847500D02*
X-32170000Y-19447500D01*
X-32170000Y-23447500D02*
X-32170000Y-23047500D01*
X-31770000Y-23447500D02*
X-32170000Y-23447500D01*
D13*
X-31420000Y-23847500D02*
X-31420000Y-23847500D01*
X-31420000Y-23947500D02*
X-31420000Y-23947500D01*
D12*
X-28570000Y-19447500D02*
X-28170000Y-19447500D01*
X-28570000Y-23447500D02*
X-28170000Y-23447500D01*
X-28170000Y-19447500D02*
X-28170000Y-19847500D01*
X-28170000Y-23447500D02*
X-28170000Y-23047500D01*
D13*
X-31420000Y-23847500D02*
G75*
G02*
X-31420000Y-23947500I0J-50000D01*
G01*
X-31420000Y-23947500D02*
G75*
G02*
X-31420000Y-23847500I0J50000D01*
G01*
D14*
%TO.C,C2*%
X-5845000Y-7051248D02*
X-5845000Y-7573752D01*
X-4375000Y-7051248D02*
X-4375000Y-7573752D01*
%TO.C,C26*%
X22901248Y-7352500D02*
X23423752Y-7352500D01*
X22901248Y-8822500D02*
X23423752Y-8822500D01*
%TO.C,C31*%
X42448752Y-31740000D02*
X41926248Y-31740000D01*
X42448752Y-33210000D02*
X41926248Y-33210000D01*
%TO.C,R7*%
X-2722500Y16242224D02*
X-2722500Y15732776D01*
X-1677500Y16242224D02*
X-1677500Y15732776D01*
D12*
%TO.C,L3*%
X-45200000Y-4025000D02*
X-45200000Y-7050000D01*
X-45200000Y-16500000D02*
X-45200000Y-13475000D01*
X-31700000Y-4025000D02*
X-45200000Y-4025000D01*
X-31700000Y-7075000D02*
X-31700000Y-4025000D01*
X-31700000Y-13450000D02*
X-31700000Y-16500000D01*
X-31700000Y-16500000D02*
X-45200000Y-16500000D01*
%TD*%
M02*
