M48
; DRILL file {KiCad 9.0.7} date 2026-04-05T20:44:26-0700
; FORMAT={-:-/ absolute / metric / decimal}
; #@! TF.CreationDate,2026-04-05T20:44:26-07:00
; #@! TF.GenerationSoftware,Kicad,Pcbnew,9.0.7
; #@! TF.FileFunction,Plated,1,4,PTH
FMAT,2
METRIC
; #@! TA.AperFunction,Plated,PTH,ViaDrill
T1C0.300
; #@! TA.AperFunction,Plated,PTH,ComponentDrill
T2C0.550
; #@! TA.AperFunction,Plated,PTH,ComponentDrill
T3C0.850
; #@! TA.AperFunction,Plated,PTH,ComponentDrill
T4C1.000
; #@! TA.AperFunction,Plated,PTH,ComponentDrill
T5C1.300
; #@! TA.AperFunction,Plated,PTH,ComponentDrill
T6C6.100
%
G90
G05
T1
X-40.5Y7.1
X-40.263Y-2.398
X-40.25Y0.6
X-40.15Y4.25
X-39.59Y-24.35
X-38.18Y-25.82
X-38.02Y-23.57
X-37.9Y4.0
X-37.05Y5.8
X-36.8Y3.6
X-36.0Y5.9
X-35.6Y2.6
X-34.8Y1.4
X-34.65Y-21.15
X-33.963Y-20.31
X-33.1Y1.3
X-33.094Y-24.255
X-32.86Y-22.07
X-32.75Y-23.29
X-32.746Y2.6
X-32.6Y7.99
X-32.28Y8.89
X-32.24Y-24.87
X-31.775Y1.05
X-31.64Y7.96
X-31.57Y-25.71
X-31.21Y8.92
X-31.05Y1.825
X-30.74Y-26.39
X-30.4Y-17.55
X-30.4Y-18.65
X-30.25Y-16.55
X-30.18Y9.19
X-30.12Y-24.23
X-30.1Y-25.5
X-29.89Y7.16
X-29.65Y-1.625
X-29.6Y-15.4
X-29.4Y-18.65
X-29.35Y-17.55
X-28.95Y9.43
X-28.95Y-16.5
X-28.94Y-25.45
X-28.675Y2.75
X-28.3Y-18.65
X-28.25Y-15.45
X-28.2Y-17.5
X-28.175Y1.875
X-28.16Y-24.61
X-27.92Y-2.87
X-27.8Y-13.35
X-27.75Y-12.3
X-27.54Y9.52
X-27.45Y-16.5
X-27.03Y-24.85
X-26.95Y-15.45
X-26.91Y-23.76
X-26.75Y-2.5
X-26.45Y7.06
X-26.41Y9.64
X-25.5Y5.33
X-25.48Y10.44
X-24.8Y19.925
X-24.49Y6.08
X-24.403Y-22.942
X-24.35Y-19.3
X-24.15Y-26.3
X-23.94Y-23.89
X-23.85Y16.35
X-23.7Y-12.25
X-23.7Y-13.35
X-23.3Y17.35
X-22.3Y23.3
X-15.75Y-28.25
X-15.7Y-27.2
X-15.65Y-2.925
X-15.65Y-26.05
X-14.6Y-26.5
X-14.6Y-27.6
X-14.6Y-28.6
X-13.6Y-28.85
X-13.55Y-26.85
X-13.55Y-27.85
X-13.35Y-38.05
X-13.15Y-6.525
X-13.05Y-23.15
X-12.5Y-0.8
X-12.4Y12.99
X-11.8Y-8.775
X-11.6Y-31.75
X-11.2Y-41.4
X-10.95Y-32.65
X-10.875Y-9.4
X-10.8Y-38.9
X-9.5Y-31.8
X-8.65Y-32.35
X-8.55Y-9.975
X-8.0Y-31.15
X-7.948Y-22.936
X-7.85Y-27.35
X-7.8Y-28.7
X-7.7Y-37.5
X-7.575Y-9.525
X-7.5Y-32.258
X-7.35Y-25.8
X-7.1Y-28.1
X-6.9Y-23.0
X-6.85Y-7.9
X-6.3Y-25.75
X-6.3Y-29.1
X-6.2Y-30.6
X-5.4Y-29.8
X-5.1Y-9.8
X-4.75Y-25.5
X-2.65Y22.3
X-2.35Y-32.0
X-1.85Y-27.5
X-1.65Y-26.05
X-0.175Y-29.75
X0.2Y13.7
X0.9Y-22.55
X1.15Y-23.6
X1.15Y-33.7
X1.475Y-20.0
X1.9Y-22.5
X2.3Y16.05
X2.65Y-23.3
X2.65Y-29.35
X2.65Y-30.6
X2.65Y-32.05
X2.65Y-33.35
X4.0Y-22.5
X4.0Y-23.75
X4.1Y-31.65
X4.1Y-32.9
X4.15Y-29.3
X4.3Y-30.45
X5.0Y-21.3
X5.2Y-31.95
X6.0Y-22.5
X6.3Y-35.825
X6.725Y-24.075
X7.35Y-27.7
X7.575Y-25.5
X7.75Y-24.375
X8.4Y-27.2
X8.8Y13.6
X9.75Y-20.575
X13.025Y27.125
X13.8Y-26.1
X14.15Y21.65
X14.95Y21.0
X14.95Y0.4
X14.95Y-23.9
X15.2Y-3.45
X16.5Y-2.75
X17.45Y-1.9
X18.075Y20.05
X18.13Y-21.61
X18.15Y-5.95
X18.35Y-1.1
X18.35Y-4.75
X18.4Y4.7
X18.4Y-20.64
X18.425Y-2.15
X18.45Y20.95
X18.45Y5.95
X18.5Y13.6
X19.139Y-3.759
X19.2Y26.375
X19.25Y-5.8
X19.3Y25.3
X19.65Y-1.25
X19.65Y-22.6
X19.9Y0.3
X20.875Y0.2
X21.1Y-10.1
X21.325Y26.725
X21.8Y-9.0
X21.85Y-11.25
X22.09Y-16.72
X22.45Y-32.0
X22.5Y-30.9
X22.59Y-17.66
X23.0Y4.0
X23.07Y-25.74
X23.1Y0.3
X23.1Y-0.7
X23.14Y-23.64
X23.14Y-24.75
X23.15Y13.975
X23.3Y-16.73
X23.57Y-26.68
X23.7Y16.4
X24.05Y-17.43
X24.09Y-25.64
X24.2Y-9.7
X24.21Y-23.64
X24.35Y-24.72
X24.68Y-26.6
X24.825Y15.875
X24.85Y5.35
X24.97Y-13.01
X25.15Y-3.55
X25.15Y-4.55
X25.15Y-5.6
X25.21Y-23.62
X25.43Y-18.087
X25.44Y-24.73
X25.54Y-25.71
X25.8Y-26.46
X26.05Y-17.25
X26.2Y-2.7
X26.2Y-3.85
X26.2Y-5.05
X26.775Y-16.55
X27.0Y-28.14
X27.5Y23.35
X27.5Y-2.45
X27.55Y-3.75
X27.75Y-16.7
X28.2Y-18.79
X28.4Y-21.9
X28.5Y28.0
X28.5Y23.3
X29.17Y-18.86
X29.3Y27.55
X29.45Y-21.6
X29.6Y21.3
X29.675Y-14.05
X29.7Y-29.8
X30.05Y28.25
X30.272Y-20.1
X30.35Y21.95
X30.45Y-30.75
X31.25Y-13.125
X31.35Y27.35
X31.36Y-20.12
X32.5Y26.8
X33.52Y-14.77
X35.544Y18.35
X36.35Y28.0
X36.65Y26.3
X39.705Y-32.475
X40.73Y16.81
X45.9Y19.0
X47.2Y19.2
T4
X29.52Y32.6
X32.06Y32.6
X34.6Y32.6
X37.14Y32.6
T5
X-44.862Y-20.95
X-44.862Y-25.95
X-44.8Y19.075
X-44.8Y14.075
X-36.2Y-40.0
X-31.2Y-40.0
X-2.9Y-39.2
X2.1Y-39.2
X32.9Y-38.6
X37.9Y-38.6
X44.237Y-1.8
X44.237Y-6.8
T6
X2.6Y2.6
X2.6Y-8.4
T2
G00X47.935Y21.959
M15
G01X47.285Y21.959
M16
G05
G00X47.935Y14.21
M15
G01X47.285Y14.21
M16
G05
T3
G00X44.085Y21.809
M15
G01X43.535Y21.809
M16
G05
G00X44.085Y14.359
M15
G01X43.535Y14.359
M16
G05
M30
