%TF.GenerationSoftware,KiCad,Pcbnew,9.0.7*%
%TF.CreationDate,2026-04-05T20:44:23-07:00*%
%TF.ProjectId,Power-Distribution-Board,506f7765-722d-4446-9973-747269627574,rev?*%
%TF.SameCoordinates,Original*%
%TF.FileFunction,Copper,L3,Inr*%
%TF.FilePolarity,Positive*%
%FSLAX46Y46*%
G04 Gerber Fmt 4.6, Leading zero omitted, Abs format (unit mm)*
G04 Created by KiCad (PCBNEW 9.0.7) date 2026-04-05 20:44:23*
%MOMM*%
%LPD*%
G01*
G04 APERTURE LIST*
%TA.AperFunction,ComponentPad*%
%ADD10C,1.950000*%
%TD*%
%TA.AperFunction,ComponentPad*%
%ADD11R,9.150000X9.150000*%
%TD*%
%TA.AperFunction,ComponentPad*%
%ADD12C,9.150000*%
%TD*%
%TA.AperFunction,ComponentPad*%
%ADD13R,1.700000X1.700000*%
%TD*%
%TA.AperFunction,ComponentPad*%
%ADD14C,1.700000*%
%TD*%
%TA.AperFunction,HeatsinkPad*%
%ADD15O,1.800000X1.150000*%
%TD*%
%TA.AperFunction,HeatsinkPad*%
%ADD16O,2.000000X1.450000*%
%TD*%
%TA.AperFunction,ViaPad*%
%ADD17C,0.700000*%
%TD*%
G04 APERTURE END LIST*
D10*
%TO.N,/7V_OUT_1*%
%TO.C,J7*%
X37900000Y-38600000D03*
%TO.N,GND*%
X32900000Y-38600000D03*
%TD*%
D11*
%TO.N,+14V8*%
%TO.C,J2*%
X2600000Y-8400000D03*
D12*
%TO.N,GND*%
X2600000Y2600000D03*
%TD*%
D10*
%TO.N,GND*%
%TO.C,J5*%
X-44800000Y14075000D03*
%TO.N,/12V_OUT1*%
X-44800000Y19075000D03*
%TD*%
%TO.N,/5V_OUT_2*%
%TO.C,J9*%
X2100000Y-39200000D03*
%TO.N,GND*%
X-2900000Y-39200000D03*
%TD*%
%TO.N,/5V_OUT_1*%
%TO.C,J8*%
X-31200000Y-40000000D03*
%TO.N,GND*%
X-36200000Y-40000000D03*
%TD*%
%TO.N,GND*%
%TO.C,J4*%
X-44862500Y-25950000D03*
%TO.N,/12V_OUT_2*%
X-44862500Y-20950000D03*
%TD*%
%TO.N,GND*%
%TO.C,J6*%
X44237500Y-1800000D03*
%TO.N,/9V_OUT_1*%
X44237500Y-6800000D03*
%TD*%
D13*
%TO.N,+3V3*%
%TO.C,J1*%
X37140000Y32600000D03*
D14*
%TO.N,/SWDIO*%
X34600000Y32600000D03*
%TO.N,/SWCLK*%
X32060000Y32600000D03*
%TO.N,GND*%
X29520000Y32600000D03*
%TD*%
D15*
%TO.N,unconnected-(J3-Shield-Pad6)*%
%TO.C,J3*%
X47610000Y21959500D03*
D16*
%TO.N,unconnected-(J3-Shield-Pad6)_1*%
X43810000Y21809500D03*
%TO.N,unconnected-(J3-Shield-Pad6)_2*%
X43810000Y14359500D03*
D15*
%TO.N,unconnected-(J3-Shield-Pad6)_3*%
X47610000Y14209500D03*
%TD*%
D17*
%TO.N,+14V8*%
X21800000Y-9000000D03*
X18400000Y-20640000D03*
X-7947715Y-22935878D03*
X-24403059Y-22942139D03*
X-25500000Y5330000D03*
X-1650000Y-26050000D03*
%TO.N,GND*%
X2300000Y16050000D03*
X5000000Y-21300000D03*
X-40250000Y600000D03*
X2650000Y-33350000D03*
X-28940000Y-25450000D03*
X-27450000Y-16500000D03*
X-13550000Y-27850000D03*
X-39590000Y-24350000D03*
X25150000Y-4550000D03*
X24350000Y-24720000D03*
X25540000Y-25710000D03*
X-29890000Y7160000D03*
X19650000Y-22600000D03*
X6300000Y-35825000D03*
X-14600000Y-28600000D03*
X-30400000Y-18650000D03*
X-5100000Y-9800000D03*
X-24150000Y-26300000D03*
X-23300000Y17350000D03*
X900000Y-22550000D03*
X-10800000Y-38900000D03*
X-29600000Y-15400000D03*
X-24800000Y19925000D03*
X25150000Y-5600000D03*
X-6850000Y-7900000D03*
X29600000Y21300000D03*
X25440000Y-24730000D03*
X19900000Y300000D03*
X-28950000Y9430000D03*
X31360000Y-20120000D03*
X-27750000Y-12300000D03*
X-28175000Y1875000D03*
X14950000Y-23900000D03*
X1900000Y-22500000D03*
X23140000Y-23640000D03*
X18400000Y4700000D03*
X7750000Y-24375000D03*
X27550000Y-3750000D03*
X-26750000Y-2500000D03*
X23000000Y4000000D03*
X33520000Y-14770000D03*
X-7500247Y-32257651D03*
X-29350000Y-17550000D03*
X-28950000Y-16500000D03*
X-5400000Y-29800000D03*
X-40150000Y4250000D03*
X18350000Y-1100000D03*
X21100000Y-10100000D03*
X-11800000Y-8775000D03*
X4100000Y-32900000D03*
X-40500000Y7100000D03*
X25150000Y-3550000D03*
X2650000Y-29350000D03*
X24210000Y-23640000D03*
X-13550000Y-26850000D03*
X29450000Y-21600000D03*
X24200000Y-9700000D03*
X18150000Y-5950000D03*
X-30250000Y-16550000D03*
X-31640000Y7960000D03*
X27500000Y23350000D03*
X1475000Y-20000000D03*
X24850000Y5350000D03*
X-31775000Y1050000D03*
X200000Y13700000D03*
X17450000Y-1900000D03*
X25800000Y-26460000D03*
X22500000Y-30900000D03*
X-24490000Y6080000D03*
X-30740000Y-26390000D03*
X-14600000Y-26500000D03*
X-38020000Y-23570000D03*
X-7800000Y-28700000D03*
X18500000Y13600000D03*
X-30400000Y-17550000D03*
X4150000Y-29300000D03*
X-32750000Y-23290000D03*
X9750000Y-20575000D03*
X36350000Y28000000D03*
X23070000Y-25740000D03*
X-7575000Y-9525000D03*
X-28250000Y-15450000D03*
X31350000Y27350000D03*
X-32600000Y7990000D03*
X-26410000Y9640000D03*
X39705000Y-32475000D03*
X-27030000Y-24850000D03*
X14150000Y21650000D03*
X-29400000Y-18650000D03*
X-28300000Y-18650000D03*
X26200000Y-3850000D03*
X-2350000Y-32000000D03*
X-15650000Y-26050000D03*
X18130000Y-21610000D03*
X-26950000Y-15450000D03*
X-29650000Y-1625000D03*
X-28200000Y-17500000D03*
X-25480000Y10440000D03*
X-26450000Y7060000D03*
X8800000Y13600000D03*
X8400000Y-27200000D03*
X-32280000Y8890000D03*
X24825000Y15875000D03*
X-12400000Y12990000D03*
X19200000Y26375000D03*
X-13350000Y-38050000D03*
X-38180000Y-25820000D03*
X-2650000Y22300000D03*
X26200000Y-5050000D03*
X-15700000Y-27200000D03*
X40730000Y16810000D03*
X-27540000Y9520000D03*
X30450000Y-30750000D03*
X19139444Y-3759167D03*
X4300000Y-30450000D03*
X-7700000Y-37500000D03*
X22090000Y-16720000D03*
X26775000Y-16550000D03*
X47200000Y19200000D03*
X4100000Y-31650000D03*
X-23700000Y-12250000D03*
X2650000Y-30600000D03*
X-7100000Y-28100000D03*
X-37900000Y4000000D03*
X13800000Y-26100000D03*
X-24350000Y-19300000D03*
X-30180000Y9190000D03*
X23570000Y-26680000D03*
X27000000Y-28140000D03*
X29300000Y27550000D03*
X14950000Y400000D03*
X-13050000Y-23150000D03*
X23150000Y13975000D03*
X-23940000Y-23890000D03*
X5200000Y-31950000D03*
X36650000Y26300000D03*
X23140000Y-24750000D03*
X24090000Y-25640000D03*
X-12500000Y-800000D03*
X-10950000Y-32650000D03*
X23100000Y300000D03*
X-6900000Y-23000000D03*
X-34650000Y-21150000D03*
X21325000Y26725000D03*
X24680000Y-26600000D03*
X31250000Y-13125000D03*
X-31210000Y8920000D03*
X-8650000Y-32350000D03*
X-40263285Y-2398352D03*
X-30120000Y-24230000D03*
X23300000Y-16730000D03*
X25430000Y-18087500D03*
X35544239Y18350000D03*
X29675000Y-14050000D03*
X-14600000Y-27600000D03*
X2650000Y-32050000D03*
X-175000Y-29750000D03*
X-1850000Y-27500000D03*
X26200000Y-2700000D03*
X-32240000Y-24870000D03*
X25210000Y-23620000D03*
X4000000Y-23750000D03*
X24970000Y-13010000D03*
X18075000Y20050000D03*
X29170000Y-18860000D03*
X-32745794Y2600390D03*
X-6300000Y-25750000D03*
X-4750000Y-25500000D03*
X27500000Y-2450000D03*
X15200000Y-3450000D03*
X-37050000Y5800000D03*
X-13600000Y-28850000D03*
X-15750000Y-28250000D03*
X13025000Y27125000D03*
X-13150000Y-6525000D03*
%TO.N,+5V*%
X29700000Y-29800000D03*
X-32860000Y-22070000D03*
X22450000Y-32000000D03*
X-9500000Y-31800000D03*
X-27800000Y-13350000D03*
X-23700000Y-13350000D03*
X30271528Y-20100331D03*
X20875000Y200000D03*
X7575000Y-25500000D03*
X-36800000Y3600000D03*
X-23850000Y16350000D03*
X-15650000Y-2925000D03*
%TO.N,+3V3*%
X18450000Y5950000D03*
X19300000Y25300000D03*
X32500000Y26800002D03*
X23700000Y16400000D03*
%TO.N,/12V_OUT_2*%
X-27920000Y-2870000D03*
%TO.N,/12V_OUT1*%
X-22300000Y23300000D03*
%TO.N,/12V_SS_2*%
X-33093761Y-24255046D03*
%TO.N,/12V_SS_1*%
X-35600000Y2600000D03*
%TO.N,/9V_OUT_1*%
X21850000Y-11250000D03*
%TO.N,/9V_SS_1*%
X19650000Y-1250000D03*
%TO.N,/7V_SS_1*%
X28200000Y-18790000D03*
%TO.N,/5V_OUT_1*%
X-11200000Y-41400000D03*
%TO.N,/5V_SS_1*%
X-8000000Y-31150000D03*
%TO.N,/5V_OUT_2*%
X1150000Y-33700000D03*
%TO.N,/5V_SS_2*%
X6725000Y-24075000D03*
%TO.N,/SWCLK*%
X28500000Y28000000D03*
X28500000Y23300000D03*
%TO.N,/SWDIO*%
X30050000Y28250000D03*
X30350000Y21950000D03*
%TO.N,/USB_VBUS*%
X14950000Y21000000D03*
X18450000Y20950000D03*
X45900000Y19000000D03*
%TO.N,/12V_PGOOD_2*%
X-31570000Y-25710000D03*
%TO.N,/12V_PGOOD_1*%
X-34800000Y1400000D03*
%TO.N,/12V_TON_2*%
X-26910000Y-23760000D03*
%TO.N,/12V_TON_1*%
X-28675000Y2750000D03*
%TO.N,/12V_FB_2*%
X-28160000Y-24610000D03*
%TO.N,/12V_FB_1*%
X-31050000Y1825000D03*
%TO.N,/12V_OSC_2*%
X-33963302Y-20310000D03*
%TO.N,/12V_OSC_1*%
X-36000000Y5900000D03*
%TO.N,/9V_PGOOD_1*%
X18425000Y-2150000D03*
%TO.N,/7V_PGOOD_1*%
X27750000Y-16700000D03*
%TO.N,/9V_TON_1*%
X19250000Y-5800000D03*
%TO.N,/7V_TON_1*%
X22590000Y-17660000D03*
%TO.N,/9V_FB_1*%
X18350000Y-4750000D03*
%TO.N,/9V_OSC_1*%
X23100000Y-700000D03*
%TO.N,/7V_FB_1*%
X24050000Y-17430000D03*
%TO.N,/7V_OSC_1*%
X28400000Y-21900000D03*
%TO.N,/5V_PGOOD_1*%
X-6200000Y-30600000D03*
%TO.N,/5V_PGOOD_2*%
X6000000Y-22500000D03*
%TO.N,/5V_TON_1*%
X-7350000Y-25800000D03*
%TO.N,/5V_TON_2*%
X1150000Y-23600000D03*
%TO.N,/5V_FB_1*%
X-7850000Y-27350000D03*
%TO.N,/5V_OSC_1*%
X-11600000Y-31750000D03*
%TO.N,/5V_FB_2*%
X2650000Y-23300000D03*
%TO.N,/5V_OSC_2*%
X7350000Y-27700000D03*
%TO.N,/5V0_EN*%
X-8550000Y-9975000D03*
%TO.N,/5V0_FB*%
X-10875000Y-9400000D03*
%TO.N,/5V_EN_2*%
X4000000Y-22500000D03*
%TO.N,/7V_EN_1*%
X26050000Y-17250000D03*
%TO.N,/9V_EN_1*%
X16500000Y-2750000D03*
%TO.N,/12V_EN_2*%
X-30100000Y-25500000D03*
%TO.N,/12V_EN_1*%
X-33100000Y1300000D03*
%TO.N,/5V_EN_1*%
X-6300000Y-29100000D03*
%TD*%
%TA.AperFunction,Conductor*%
%TO.N,GND*%
G36*
X49442539Y34479815D02*
G01*
X49488294Y34427011D01*
X49499500Y34375500D01*
X49499500Y-44375500D01*
X49479815Y-44442539D01*
X49427011Y-44488294D01*
X49375500Y-44499500D01*
X-49375500Y-44499500D01*
X-49442539Y-44479815D01*
X-49488294Y-44427011D01*
X-49499500Y-44375500D01*
X-49499500Y-39878450D01*
X-46854500Y-39878450D01*
X-46854500Y-40121550D01*
X-46822769Y-40362571D01*
X-46759850Y-40597388D01*
X-46666819Y-40821984D01*
X-46545269Y-41032516D01*
X-46397278Y-41225380D01*
X-46397273Y-41225384D01*
X-46397270Y-41225389D01*
X-46225389Y-41397270D01*
X-46225384Y-41397273D01*
X-46225380Y-41397278D01*
X-46032516Y-41545269D01*
X-45821984Y-41666819D01*
X-45597388Y-41759850D01*
X-45362571Y-41822769D01*
X-45121550Y-41854500D01*
X-45121543Y-41854500D01*
X-44878457Y-41854500D01*
X-44878450Y-41854500D01*
X-44637429Y-41822769D01*
X-44402612Y-41759850D01*
X-44294171Y-41714932D01*
X-44178027Y-41666824D01*
X-44178012Y-41666817D01*
X-43967483Y-41545269D01*
X-43774619Y-41397277D01*
X-43774611Y-41397270D01*
X-43704866Y-41327525D01*
X-11750500Y-41327525D01*
X-11750500Y-41472475D01*
X-11712984Y-41612485D01*
X-11640509Y-41738015D01*
X-11538015Y-41840509D01*
X-11412488Y-41912982D01*
X-11412487Y-41912982D01*
X-11412485Y-41912984D01*
X-11272475Y-41950500D01*
X-11272472Y-41950500D01*
X-11127528Y-41950500D01*
X-11127525Y-41950500D01*
X-10987515Y-41912984D01*
X-10987512Y-41912982D01*
X-10987511Y-41912982D01*
X-10861988Y-41840511D01*
X-10861986Y-41840510D01*
X-10861985Y-41840509D01*
X-10759491Y-41738015D01*
X-10759490Y-41738013D01*
X-10759488Y-41738011D01*
X-10687017Y-41612488D01*
X-10687016Y-41612485D01*
X-10649500Y-41472475D01*
X-10649500Y-41327525D01*
X-10687016Y-41187515D01*
X-10687015Y-41187515D01*
X-10687017Y-41187511D01*
X-10759488Y-41061988D01*
X-10759493Y-41061982D01*
X-10861982Y-40959493D01*
X-10861988Y-40959488D01*
X-10987511Y-40887017D01*
X-10987510Y-40887017D01*
X-11029108Y-40875870D01*
X-11127525Y-40849500D01*
X-11272475Y-40849500D01*
X-11412485Y-40887016D01*
X-11412488Y-40887017D01*
X-11538011Y-40959488D01*
X-11538013Y-40959490D01*
X-11538015Y-40959491D01*
X-11640509Y-41061985D01*
X-11712984Y-41187515D01*
X-11750500Y-41327525D01*
X-43704866Y-41327525D01*
X-43602730Y-41225389D01*
X-43602722Y-41225380D01*
X-43454730Y-41032516D01*
X-43333182Y-40821987D01*
X-43333175Y-40821972D01*
X-43240149Y-40597386D01*
X-43177230Y-40362569D01*
X-43145501Y-40121559D01*
X-43145500Y-40121543D01*
X-43145500Y-39907486D01*
X-32375500Y-39907486D01*
X-32375500Y-40092514D01*
X-32346555Y-40275264D01*
X-32289379Y-40451235D01*
X-32205378Y-40616096D01*
X-32096621Y-40765787D01*
X-31965787Y-40896621D01*
X-31816096Y-41005378D01*
X-31651235Y-41089379D01*
X-31475264Y-41146555D01*
X-31292514Y-41175500D01*
X-31292513Y-41175500D01*
X-31107487Y-41175500D01*
X-31107486Y-41175500D01*
X-30924736Y-41146555D01*
X-30836750Y-41117967D01*
X-30748767Y-41089380D01*
X-30748764Y-41089379D01*
X-30664763Y-41046577D01*
X-30583904Y-41005378D01*
X-30434213Y-40896621D01*
X-30303379Y-40765787D01*
X-30194622Y-40616096D01*
X-30185089Y-40597386D01*
X-30110620Y-40451235D01*
X-30110619Y-40451232D01*
X-30053445Y-40275265D01*
X-30029098Y-40121543D01*
X-30024500Y-40092514D01*
X-30024500Y-39907486D01*
X-30038975Y-39816096D01*
X-30053445Y-39724734D01*
X-30110619Y-39548767D01*
X-30110620Y-39548764D01*
X-30194622Y-39383903D01*
X-30261022Y-39292513D01*
X-30303379Y-39234213D01*
X-30303381Y-39234211D01*
X-30303381Y-39234210D01*
X-30347297Y-39190295D01*
X-30430105Y-39107486D01*
X924500Y-39107486D01*
X924500Y-39292513D01*
X953445Y-39475265D01*
X1010619Y-39651232D01*
X1010620Y-39651235D01*
X1073937Y-39775500D01*
X1094622Y-39816096D01*
X1203379Y-39965787D01*
X1334213Y-40096621D01*
X1483904Y-40205378D01*
X1564763Y-40246577D01*
X1648764Y-40289379D01*
X1648767Y-40289380D01*
X1736750Y-40317967D01*
X1824736Y-40346555D01*
X2007486Y-40375500D01*
X2007487Y-40375500D01*
X2192513Y-40375500D01*
X2192514Y-40375500D01*
X2375264Y-40346555D01*
X2551235Y-40289379D01*
X2716096Y-40205378D01*
X2865787Y-40096621D01*
X2996621Y-39965787D01*
X3060071Y-39878456D01*
X43145500Y-39878456D01*
X43145500Y-40121543D01*
X43145501Y-40121559D01*
X43177230Y-40362569D01*
X43240149Y-40597386D01*
X43333175Y-40821972D01*
X43333182Y-40821987D01*
X43454730Y-41032516D01*
X43602722Y-41225380D01*
X43602730Y-41225389D01*
X43774611Y-41397270D01*
X43774619Y-41397277D01*
X43967483Y-41545269D01*
X44178012Y-41666817D01*
X44178027Y-41666824D01*
X44294171Y-41714932D01*
X44402612Y-41759850D01*
X44637429Y-41822769D01*
X44878450Y-41854500D01*
X44878457Y-41854500D01*
X45121543Y-41854500D01*
X45121550Y-41854500D01*
X45362571Y-41822769D01*
X45597388Y-41759850D01*
X45821984Y-41666819D01*
X46032516Y-41545269D01*
X46225380Y-41397278D01*
X46225384Y-41397273D01*
X46225389Y-41397270D01*
X46397270Y-41225389D01*
X46397273Y-41225384D01*
X46397278Y-41225380D01*
X46545269Y-41032516D01*
X46666819Y-40821984D01*
X46759850Y-40597388D01*
X46822769Y-40362571D01*
X46854500Y-40121550D01*
X46854500Y-39878450D01*
X46822769Y-39637429D01*
X46759850Y-39402612D01*
X46690096Y-39234211D01*
X46666824Y-39178027D01*
X46666817Y-39178012D01*
X46545269Y-38967483D01*
X46397277Y-38774619D01*
X46397270Y-38774611D01*
X46225389Y-38602730D01*
X46225380Y-38602722D01*
X46032516Y-38454730D01*
X45821987Y-38333182D01*
X45821972Y-38333175D01*
X45597386Y-38240149D01*
X45362569Y-38177230D01*
X45121559Y-38145501D01*
X45121556Y-38145500D01*
X45121550Y-38145500D01*
X44878450Y-38145500D01*
X44878444Y-38145500D01*
X44878440Y-38145501D01*
X44637430Y-38177230D01*
X44402613Y-38240149D01*
X44178027Y-38333175D01*
X44178012Y-38333182D01*
X43967483Y-38454730D01*
X43774619Y-38602722D01*
X43602722Y-38774619D01*
X43454730Y-38967483D01*
X43333182Y-39178012D01*
X43333175Y-39178027D01*
X43240149Y-39402613D01*
X43177230Y-39637430D01*
X43145501Y-39878440D01*
X43145500Y-39878456D01*
X3060071Y-39878456D01*
X3105378Y-39816096D01*
X3189379Y-39651235D01*
X3246555Y-39475264D01*
X3275500Y-39292514D01*
X3275500Y-39107486D01*
X3246555Y-38924736D01*
X3197780Y-38774620D01*
X3189380Y-38748767D01*
X3189379Y-38748764D01*
X3105377Y-38583903D01*
X3099272Y-38575500D01*
X3049857Y-38507486D01*
X36724500Y-38507486D01*
X36724500Y-38692513D01*
X36753445Y-38875265D01*
X36810619Y-39051232D01*
X36810620Y-39051235D01*
X36839282Y-39107486D01*
X36894622Y-39216096D01*
X37003379Y-39365787D01*
X37134213Y-39496621D01*
X37283904Y-39605378D01*
X37364763Y-39646577D01*
X37448764Y-39689379D01*
X37448767Y-39689380D01*
X37536750Y-39717967D01*
X37624736Y-39746555D01*
X37807486Y-39775500D01*
X37807487Y-39775500D01*
X37992513Y-39775500D01*
X37992514Y-39775500D01*
X38175264Y-39746555D01*
X38351235Y-39689379D01*
X38516096Y-39605378D01*
X38665787Y-39496621D01*
X38796621Y-39365787D01*
X38905378Y-39216096D01*
X38989379Y-39051235D01*
X39046555Y-38875264D01*
X39075500Y-38692514D01*
X39075500Y-38507486D01*
X39046555Y-38324736D01*
X38989379Y-38148765D01*
X38989379Y-38148764D01*
X38940811Y-38053445D01*
X38905378Y-37983904D01*
X38796621Y-37834213D01*
X38665787Y-37703379D01*
X38516096Y-37594622D01*
X38351235Y-37510620D01*
X38351232Y-37510619D01*
X38175265Y-37453445D01*
X38083889Y-37438972D01*
X37992514Y-37424500D01*
X37807486Y-37424500D01*
X37746569Y-37434148D01*
X37624734Y-37453445D01*
X37448767Y-37510619D01*
X37448764Y-37510620D01*
X37283903Y-37594622D01*
X37198499Y-37656672D01*
X37134213Y-37703379D01*
X37134211Y-37703381D01*
X37134210Y-37703381D01*
X37003381Y-37834210D01*
X37003381Y-37834211D01*
X37003379Y-37834213D01*
X36956672Y-37898499D01*
X36894622Y-37983903D01*
X36810620Y-38148764D01*
X36810619Y-38148767D01*
X36753445Y-38324734D01*
X36724500Y-38507486D01*
X3049857Y-38507486D01*
X2996621Y-38434213D01*
X2865787Y-38303379D01*
X2716096Y-38194622D01*
X2551235Y-38110620D01*
X2551232Y-38110619D01*
X2375265Y-38053445D01*
X2283889Y-38038972D01*
X2192514Y-38024500D01*
X2007486Y-38024500D01*
X1946569Y-38034148D01*
X1824734Y-38053445D01*
X1648767Y-38110619D01*
X1648764Y-38110620D01*
X1483903Y-38194622D01*
X1421240Y-38240150D01*
X1334213Y-38303379D01*
X1334211Y-38303381D01*
X1334210Y-38303381D01*
X1203381Y-38434210D01*
X1203381Y-38434211D01*
X1203379Y-38434213D01*
X1188473Y-38454730D01*
X1094622Y-38583903D01*
X1010620Y-38748764D01*
X1010619Y-38748767D01*
X953445Y-38924734D01*
X924500Y-39107486D01*
X-30430105Y-39107486D01*
X-30434210Y-39103381D01*
X-30583903Y-38994622D01*
X-30748764Y-38910620D01*
X-30748767Y-38910619D01*
X-30924734Y-38853445D01*
X-31046569Y-38834148D01*
X-31107486Y-38824500D01*
X-31292514Y-38824500D01*
X-31383889Y-38838972D01*
X-31475265Y-38853445D01*
X-31651232Y-38910619D01*
X-31651235Y-38910620D01*
X-31762833Y-38967483D01*
X-31816096Y-38994622D01*
X-31965787Y-39103379D01*
X-32096621Y-39234213D01*
X-32205378Y-39383904D01*
X-32246577Y-39464763D01*
X-32289379Y-39548764D01*
X-32289379Y-39548765D01*
X-32346555Y-39724736D01*
X-32375500Y-39907486D01*
X-43145500Y-39907486D01*
X-43145500Y-39878456D01*
X-43145501Y-39878440D01*
X-43177230Y-39637430D01*
X-43240149Y-39402613D01*
X-43333175Y-39178027D01*
X-43333182Y-39178012D01*
X-43454730Y-38967483D01*
X-43602722Y-38774619D01*
X-43774619Y-38602722D01*
X-43967483Y-38454730D01*
X-44178012Y-38333182D01*
X-44178027Y-38333175D01*
X-44402613Y-38240149D01*
X-44637430Y-38177230D01*
X-44878440Y-38145501D01*
X-44878444Y-38145500D01*
X-44878450Y-38145500D01*
X-45121550Y-38145500D01*
X-45121556Y-38145500D01*
X-45121559Y-38145501D01*
X-45362569Y-38177230D01*
X-45597386Y-38240149D01*
X-45821972Y-38333175D01*
X-45821987Y-38333182D01*
X-46032516Y-38454730D01*
X-46225380Y-38602722D01*
X-46225389Y-38602730D01*
X-46397270Y-38774611D01*
X-46397277Y-38774619D01*
X-46545269Y-38967483D01*
X-46666817Y-39178012D01*
X-46666824Y-39178027D01*
X-46690096Y-39234211D01*
X-46759850Y-39402612D01*
X-46822769Y-39637429D01*
X-46854500Y-39878450D01*
X-49499500Y-39878450D01*
X-49499500Y-33627525D01*
X599500Y-33627525D01*
X599500Y-33772475D01*
X637016Y-33912485D01*
X637017Y-33912488D01*
X709488Y-34038011D01*
X709490Y-34038013D01*
X709491Y-34038015D01*
X811985Y-34140509D01*
X811986Y-34140510D01*
X811988Y-34140511D01*
X937511Y-34212982D01*
X937512Y-34212982D01*
X937515Y-34212984D01*
X1077525Y-34250500D01*
X1077528Y-34250500D01*
X1222472Y-34250500D01*
X1222475Y-34250500D01*
X1362485Y-34212984D01*
X1488015Y-34140509D01*
X1590509Y-34038015D01*
X1662984Y-33912485D01*
X1700500Y-33772475D01*
X1700500Y-33627525D01*
X1662984Y-33487515D01*
X1590509Y-33361985D01*
X1488015Y-33259491D01*
X1488013Y-33259490D01*
X1488011Y-33259488D01*
X1362488Y-33187017D01*
X1362489Y-33187017D01*
X1351006Y-33183940D01*
X1222475Y-33149500D01*
X1077525Y-33149500D01*
X948993Y-33183940D01*
X937511Y-33187017D01*
X811988Y-33259488D01*
X811982Y-33259493D01*
X709493Y-33361982D01*
X709488Y-33361988D01*
X637017Y-33487511D01*
X637016Y-33487515D01*
X599500Y-33627525D01*
X-49499500Y-33627525D01*
X-49499500Y-31677525D01*
X-12150500Y-31677525D01*
X-12150500Y-31822475D01*
X-12112984Y-31962485D01*
X-12040509Y-32088015D01*
X-11938015Y-32190509D01*
X-11812488Y-32262982D01*
X-11812487Y-32262982D01*
X-11812485Y-32262984D01*
X-11672475Y-32300500D01*
X-11672472Y-32300500D01*
X-11527528Y-32300500D01*
X-11527525Y-32300500D01*
X-11387515Y-32262984D01*
X-11387512Y-32262982D01*
X-11387511Y-32262982D01*
X-11261988Y-32190511D01*
X-11261986Y-32190510D01*
X-11261985Y-32190509D01*
X-11159491Y-32088015D01*
X-11159490Y-32088013D01*
X-11159488Y-32088011D01*
X-11087017Y-31962488D01*
X-11077649Y-31927527D01*
X-11049500Y-31822475D01*
X-11049500Y-31727525D01*
X-10050500Y-31727525D01*
X-10050500Y-31872475D01*
X-10012984Y-32012485D01*
X-9940509Y-32138015D01*
X-9838015Y-32240509D01*
X-9712488Y-32312982D01*
X-9712487Y-32312982D01*
X-9712485Y-32312984D01*
X-9572475Y-32350500D01*
X-9572472Y-32350500D01*
X-9427528Y-32350500D01*
X-9427525Y-32350500D01*
X-9287515Y-32312984D01*
X-9287512Y-32312982D01*
X-9287511Y-32312982D01*
X-9161988Y-32240511D01*
X-9161986Y-32240510D01*
X-9161985Y-32240509D01*
X-9059491Y-32138015D01*
X-9059490Y-32138013D01*
X-9059488Y-32138011D01*
X-8987017Y-32012488D01*
X-8987016Y-32012485D01*
X-8964251Y-31927525D01*
X21899500Y-31927525D01*
X21899500Y-32072475D01*
X21931128Y-32190511D01*
X21937017Y-32212488D01*
X22009488Y-32338011D01*
X22009490Y-32338013D01*
X22009491Y-32338015D01*
X22111985Y-32440509D01*
X22111986Y-32440510D01*
X22111988Y-32440511D01*
X22237511Y-32512982D01*
X22237512Y-32512982D01*
X22237515Y-32512984D01*
X22377525Y-32550500D01*
X22377528Y-32550500D01*
X22522472Y-32550500D01*
X22522475Y-32550500D01*
X22662485Y-32512984D01*
X22788015Y-32440509D01*
X22890509Y-32338015D01*
X22962984Y-32212485D01*
X23000500Y-32072475D01*
X23000500Y-31927525D01*
X22962984Y-31787515D01*
X22890509Y-31661985D01*
X22788015Y-31559491D01*
X22788013Y-31559490D01*
X22788011Y-31559488D01*
X22662488Y-31487017D01*
X22662489Y-31487017D01*
X22651006Y-31483940D01*
X22522475Y-31449500D01*
X22377525Y-31449500D01*
X22248993Y-31483940D01*
X22237511Y-31487017D01*
X22111988Y-31559488D01*
X22111982Y-31559493D01*
X22009493Y-31661982D01*
X22009488Y-31661988D01*
X21937017Y-31787511D01*
X21937016Y-31787515D01*
X21899500Y-31927525D01*
X-8964251Y-31927525D01*
X-8949500Y-31872475D01*
X-8949500Y-31727525D01*
X-8986214Y-31590509D01*
X-8987017Y-31587511D01*
X-9059488Y-31461988D01*
X-9059493Y-31461982D01*
X-9161982Y-31359493D01*
X-9161988Y-31359488D01*
X-9287511Y-31287017D01*
X-9287510Y-31287017D01*
X-9329108Y-31275870D01*
X-9427525Y-31249500D01*
X-9572475Y-31249500D01*
X-9712485Y-31287016D01*
X-9712488Y-31287017D01*
X-9838011Y-31359488D01*
X-9838017Y-31359493D01*
X-9940506Y-31461982D01*
X-9940511Y-31461988D01*
X-9996805Y-31559493D01*
X-10012984Y-31587515D01*
X-10050500Y-31727525D01*
X-11049500Y-31727525D01*
X-11049500Y-31677525D01*
X-11087016Y-31537515D01*
X-11087015Y-31537515D01*
X-11087017Y-31537511D01*
X-11159488Y-31411988D01*
X-11159493Y-31411982D01*
X-11261982Y-31309493D01*
X-11261988Y-31309488D01*
X-11387511Y-31237017D01*
X-11387510Y-31237017D01*
X-11429108Y-31225870D01*
X-11527525Y-31199500D01*
X-11672475Y-31199500D01*
X-11812485Y-31237016D01*
X-11812488Y-31237017D01*
X-11938011Y-31309488D01*
X-11938017Y-31309493D01*
X-12040506Y-31411982D01*
X-12040511Y-31411988D01*
X-12084406Y-31488017D01*
X-12112984Y-31537515D01*
X-12150500Y-31677525D01*
X-49499500Y-31677525D01*
X-49499500Y-31077525D01*
X-8550500Y-31077525D01*
X-8550500Y-31222475D01*
X-8512984Y-31362485D01*
X-8440509Y-31488015D01*
X-8338015Y-31590509D01*
X-8212488Y-31662982D01*
X-8212487Y-31662982D01*
X-8212485Y-31662984D01*
X-8072475Y-31700500D01*
X-8072472Y-31700500D01*
X-7927528Y-31700500D01*
X-7927525Y-31700500D01*
X-7787515Y-31662984D01*
X-7787512Y-31662982D01*
X-7787511Y-31662982D01*
X-7661988Y-31590511D01*
X-7661986Y-31590510D01*
X-7661985Y-31590509D01*
X-7559491Y-31488015D01*
X-7559490Y-31488013D01*
X-7559488Y-31488011D01*
X-7487017Y-31362488D01*
X-7472817Y-31309493D01*
X-7449500Y-31222475D01*
X-7449500Y-31077525D01*
X-7487016Y-30937515D01*
X-7487015Y-30937515D01*
X-7487017Y-30937511D01*
X-7559488Y-30811988D01*
X-7559493Y-30811982D01*
X-7661982Y-30709493D01*
X-7661988Y-30709488D01*
X-7787509Y-30637018D01*
X-7787513Y-30637017D01*
X-7787513Y-30637016D01*
X-7787515Y-30637016D01*
X-7927525Y-30599500D01*
X-8072475Y-30599500D01*
X-8212485Y-30637016D01*
X-8212488Y-30637017D01*
X-8338011Y-30709488D01*
X-8338017Y-30709493D01*
X-8440506Y-30811982D01*
X-8440511Y-30811988D01*
X-8440799Y-30812488D01*
X-8512984Y-30937515D01*
X-8550500Y-31077525D01*
X-49499500Y-31077525D01*
X-49499500Y-30527525D01*
X-6750500Y-30527525D01*
X-6750500Y-30672475D01*
X-6712984Y-30812485D01*
X-6640509Y-30938015D01*
X-6538015Y-31040509D01*
X-6412488Y-31112982D01*
X-6412487Y-31112982D01*
X-6412485Y-31112984D01*
X-6272475Y-31150500D01*
X-6272472Y-31150500D01*
X-6127528Y-31150500D01*
X-6127525Y-31150500D01*
X-5987515Y-31112984D01*
X-5987512Y-31112982D01*
X-5987511Y-31112982D01*
X-5861988Y-31040511D01*
X-5861986Y-31040510D01*
X-5861985Y-31040509D01*
X-5759491Y-30938015D01*
X-5759490Y-30938013D01*
X-5759488Y-30938011D01*
X-5687017Y-30812488D01*
X-5686881Y-30811982D01*
X-5649500Y-30672475D01*
X-5649500Y-30527525D01*
X-5687016Y-30387515D01*
X-5687015Y-30387515D01*
X-5687017Y-30387511D01*
X-5759488Y-30261988D01*
X-5759493Y-30261982D01*
X-5861982Y-30159493D01*
X-5861988Y-30159488D01*
X-5987511Y-30087017D01*
X-5987510Y-30087017D01*
X-6029108Y-30075870D01*
X-6127525Y-30049500D01*
X-6272475Y-30049500D01*
X-6412485Y-30087016D01*
X-6412488Y-30087017D01*
X-6538011Y-30159488D01*
X-6538017Y-30159493D01*
X-6640506Y-30261982D01*
X-6640511Y-30261988D01*
X-6691613Y-30350500D01*
X-6712984Y-30387515D01*
X-6750500Y-30527525D01*
X-49499500Y-30527525D01*
X-49499500Y-29727525D01*
X29149500Y-29727525D01*
X29149500Y-29872475D01*
X29187016Y-30012485D01*
X29187017Y-30012488D01*
X29259488Y-30138011D01*
X29259490Y-30138013D01*
X29259491Y-30138015D01*
X29361985Y-30240509D01*
X29361986Y-30240510D01*
X29361988Y-30240511D01*
X29487511Y-30312982D01*
X29487512Y-30312982D01*
X29487515Y-30312984D01*
X29627525Y-30350500D01*
X29627528Y-30350500D01*
X29772472Y-30350500D01*
X29772475Y-30350500D01*
X29912485Y-30312984D01*
X30038015Y-30240509D01*
X30140509Y-30138015D01*
X30212984Y-30012485D01*
X30250500Y-29872475D01*
X30250500Y-29727525D01*
X30212984Y-29587515D01*
X30185843Y-29540506D01*
X30140511Y-29461988D01*
X30140506Y-29461982D01*
X30038017Y-29359493D01*
X30038011Y-29359488D01*
X29912488Y-29287017D01*
X29912489Y-29287017D01*
X29901006Y-29283940D01*
X29772475Y-29249500D01*
X29627525Y-29249500D01*
X29498993Y-29283940D01*
X29487511Y-29287017D01*
X29361988Y-29359488D01*
X29361982Y-29359493D01*
X29259493Y-29461982D01*
X29259488Y-29461988D01*
X29187017Y-29587511D01*
X29187016Y-29587515D01*
X29149500Y-29727525D01*
X-49499500Y-29727525D01*
X-49499500Y-29027525D01*
X-6850500Y-29027525D01*
X-6850500Y-29172475D01*
X-6812984Y-29312485D01*
X-6740509Y-29438015D01*
X-6638015Y-29540509D01*
X-6512488Y-29612982D01*
X-6512487Y-29612982D01*
X-6512485Y-29612984D01*
X-6372475Y-29650500D01*
X-6372472Y-29650500D01*
X-6227528Y-29650500D01*
X-6227525Y-29650500D01*
X-6087515Y-29612984D01*
X-6085831Y-29612012D01*
X-6085829Y-29612011D01*
X-6040988Y-29586121D01*
X-5961985Y-29540509D01*
X-5859491Y-29438015D01*
X-5859490Y-29438013D01*
X-5859488Y-29438011D01*
X-5787017Y-29312488D01*
X-5770139Y-29249500D01*
X-5749500Y-29172475D01*
X-5749500Y-29027525D01*
X-5787016Y-28887515D01*
X-5787015Y-28887515D01*
X-5787017Y-28887511D01*
X-5859488Y-28761988D01*
X-5859493Y-28761982D01*
X-5961982Y-28659493D01*
X-5961988Y-28659488D01*
X-6087511Y-28587017D01*
X-6087510Y-28587017D01*
X-6129108Y-28575870D01*
X-6227525Y-28549500D01*
X-6372475Y-28549500D01*
X-6512485Y-28587016D01*
X-6512488Y-28587017D01*
X-6638011Y-28659488D01*
X-6638013Y-28659490D01*
X-6638015Y-28659491D01*
X-6740509Y-28761985D01*
X-6812984Y-28887515D01*
X-6850500Y-29027525D01*
X-49499500Y-29027525D01*
X-49499500Y-27277525D01*
X-8400500Y-27277525D01*
X-8400500Y-27422475D01*
X-8362984Y-27562485D01*
X-8290509Y-27688015D01*
X-8188015Y-27790509D01*
X-8062488Y-27862982D01*
X-8062487Y-27862982D01*
X-8062485Y-27862984D01*
X-7922475Y-27900500D01*
X-7922472Y-27900500D01*
X-7777528Y-27900500D01*
X-7777525Y-27900500D01*
X-7637515Y-27862984D01*
X-7637512Y-27862982D01*
X-7637511Y-27862982D01*
X-7511988Y-27790511D01*
X-7511986Y-27790510D01*
X-7511985Y-27790509D01*
X-7409491Y-27688015D01*
X-7374567Y-27627525D01*
X6799500Y-27627525D01*
X6799500Y-27772475D01*
X6833805Y-27900500D01*
X6837017Y-27912488D01*
X6909488Y-28038011D01*
X6909490Y-28038013D01*
X6909491Y-28038015D01*
X7011985Y-28140509D01*
X7011986Y-28140510D01*
X7011988Y-28140511D01*
X7137511Y-28212982D01*
X7137512Y-28212982D01*
X7137515Y-28212984D01*
X7277525Y-28250500D01*
X7277528Y-28250500D01*
X7422472Y-28250500D01*
X7422475Y-28250500D01*
X7562485Y-28212984D01*
X7688015Y-28140509D01*
X7790509Y-28038015D01*
X7862984Y-27912485D01*
X7900500Y-27772475D01*
X7900500Y-27627525D01*
X7862984Y-27487515D01*
X7825431Y-27422472D01*
X7790511Y-27361988D01*
X7790506Y-27361982D01*
X7688017Y-27259493D01*
X7688011Y-27259488D01*
X7562488Y-27187017D01*
X7562489Y-27187017D01*
X7551006Y-27183940D01*
X7422475Y-27149500D01*
X7277525Y-27149500D01*
X7148993Y-27183940D01*
X7137511Y-27187017D01*
X7011988Y-27259488D01*
X7011982Y-27259493D01*
X6909493Y-27361982D01*
X6909488Y-27361988D01*
X6837017Y-27487511D01*
X6837016Y-27487515D01*
X6799500Y-27627525D01*
X-7374567Y-27627525D01*
X-7337017Y-27562488D01*
X-7316927Y-27487511D01*
X-7299500Y-27422475D01*
X-7299500Y-27277525D01*
X-7337016Y-27137515D01*
X-7337015Y-27137515D01*
X-7337017Y-27137511D01*
X-7409488Y-27011988D01*
X-7409493Y-27011982D01*
X-7511982Y-26909493D01*
X-7511988Y-26909488D01*
X-7637511Y-26837017D01*
X-7637510Y-26837017D01*
X-7679108Y-26825870D01*
X-7777525Y-26799500D01*
X-7922475Y-26799500D01*
X-8062485Y-26837016D01*
X-8062488Y-26837017D01*
X-8188011Y-26909488D01*
X-8188013Y-26909490D01*
X-8188015Y-26909491D01*
X-8290509Y-27011985D01*
X-8362984Y-27137515D01*
X-8400500Y-27277525D01*
X-49499500Y-27277525D01*
X-49499500Y-25637525D01*
X-32120500Y-25637525D01*
X-32120500Y-25782475D01*
X-32082984Y-25922485D01*
X-32010509Y-26048015D01*
X-31908015Y-26150509D01*
X-31782488Y-26222982D01*
X-31782487Y-26222982D01*
X-31782485Y-26222984D01*
X-31642475Y-26260500D01*
X-31642472Y-26260500D01*
X-31497528Y-26260500D01*
X-31497525Y-26260500D01*
X-31357515Y-26222984D01*
X-31357512Y-26222982D01*
X-31357511Y-26222982D01*
X-31231988Y-26150511D01*
X-31231986Y-26150510D01*
X-31231985Y-26150509D01*
X-31129491Y-26048015D01*
X-31129490Y-26048013D01*
X-31129488Y-26048011D01*
X-31057017Y-25922488D01*
X-31034383Y-25838017D01*
X-31019500Y-25782475D01*
X-31019500Y-25637525D01*
X-31057016Y-25497515D01*
X-31057016Y-25497514D01*
X-31057017Y-25497512D01*
X-31066320Y-25481400D01*
X-31066320Y-25481398D01*
X-31066321Y-25481398D01*
X-31097425Y-25427525D01*
X-30650500Y-25427525D01*
X-30650500Y-25572475D01*
X-30612984Y-25712485D01*
X-30540509Y-25838015D01*
X-30438015Y-25940509D01*
X-30312488Y-26012982D01*
X-30312487Y-26012982D01*
X-30312485Y-26012984D01*
X-30172475Y-26050500D01*
X-30172472Y-26050500D01*
X-30027528Y-26050500D01*
X-30027525Y-26050500D01*
X-29887515Y-26012984D01*
X-29887512Y-26012982D01*
X-29887511Y-26012982D01*
X-29761988Y-25940511D01*
X-29761986Y-25940510D01*
X-29761985Y-25940509D01*
X-29659491Y-25838015D01*
X-29659490Y-25838013D01*
X-29659488Y-25838011D01*
X-29595699Y-25727525D01*
X-7900500Y-25727525D01*
X-7900500Y-25872475D01*
X-7862984Y-26012485D01*
X-7790509Y-26138015D01*
X-7688015Y-26240509D01*
X-7562488Y-26312982D01*
X-7562487Y-26312982D01*
X-7562485Y-26312984D01*
X-7422475Y-26350500D01*
X-7422472Y-26350500D01*
X-7277528Y-26350500D01*
X-7277525Y-26350500D01*
X-7137515Y-26312984D01*
X-7137512Y-26312982D01*
X-7137511Y-26312982D01*
X-7011988Y-26240511D01*
X-7011986Y-26240510D01*
X-7011985Y-26240509D01*
X-6909491Y-26138015D01*
X-6909490Y-26138013D01*
X-6909488Y-26138011D01*
X-6837017Y-26012488D01*
X-6837017Y-26012487D01*
X-6827649Y-25977527D01*
X-6827648Y-25977525D01*
X-2200500Y-25977525D01*
X-2200500Y-26122475D01*
X-2162984Y-26262485D01*
X-2090509Y-26388015D01*
X-1988015Y-26490509D01*
X-1862488Y-26562982D01*
X-1862487Y-26562982D01*
X-1862485Y-26562984D01*
X-1722475Y-26600500D01*
X-1722472Y-26600500D01*
X-1577528Y-26600500D01*
X-1577525Y-26600500D01*
X-1437515Y-26562984D01*
X-1437512Y-26562982D01*
X-1437511Y-26562982D01*
X-1311988Y-26490511D01*
X-1311986Y-26490510D01*
X-1311985Y-26490509D01*
X-1209491Y-26388015D01*
X-1209490Y-26388013D01*
X-1209488Y-26388011D01*
X-1137017Y-26262488D01*
X-1131128Y-26240511D01*
X-1099500Y-26122475D01*
X-1099500Y-25977525D01*
X-1137016Y-25837515D01*
X-1137015Y-25837515D01*
X-1137017Y-25837511D01*
X-1209488Y-25711988D01*
X-1209493Y-25711982D01*
X-1311982Y-25609493D01*
X-1311988Y-25609488D01*
X-1437509Y-25537018D01*
X-1437513Y-25537017D01*
X-1437513Y-25537016D01*
X-1437515Y-25537016D01*
X-1577525Y-25499500D01*
X-1722475Y-25499500D01*
X-1862485Y-25537016D01*
X-1862488Y-25537017D01*
X-1988011Y-25609488D01*
X-1988017Y-25609493D01*
X-2090506Y-25711982D01*
X-2090511Y-25711988D01*
X-2090799Y-25712488D01*
X-2162984Y-25837515D01*
X-2200500Y-25977525D01*
X-6827648Y-25977525D01*
X-6799500Y-25872475D01*
X-6799500Y-25727525D01*
X-6837016Y-25587515D01*
X-6837015Y-25587515D01*
X-6837017Y-25587511D01*
X-6909488Y-25461988D01*
X-6909493Y-25461982D01*
X-6943950Y-25427525D01*
X7024500Y-25427525D01*
X7024500Y-25572475D01*
X7062016Y-25712485D01*
X7062017Y-25712488D01*
X7134488Y-25838011D01*
X7134490Y-25838013D01*
X7134491Y-25838015D01*
X7236985Y-25940509D01*
X7236986Y-25940510D01*
X7236988Y-25940511D01*
X7362511Y-26012982D01*
X7362512Y-26012982D01*
X7362515Y-26012984D01*
X7502525Y-26050500D01*
X7502528Y-26050500D01*
X7647472Y-26050500D01*
X7647475Y-26050500D01*
X7787485Y-26012984D01*
X7913015Y-25940509D01*
X8015509Y-25838015D01*
X8087984Y-25712485D01*
X8125500Y-25572475D01*
X8125500Y-25427525D01*
X8087984Y-25287515D01*
X8087696Y-25287017D01*
X8015511Y-25161988D01*
X8015506Y-25161982D01*
X7913017Y-25059493D01*
X7913011Y-25059488D01*
X7787488Y-24987017D01*
X7787489Y-24987017D01*
X7776006Y-24983940D01*
X7647475Y-24949500D01*
X7502525Y-24949500D01*
X7373993Y-24983940D01*
X7362511Y-24987017D01*
X7236988Y-25059488D01*
X7236982Y-25059493D01*
X7134493Y-25161982D01*
X7134488Y-25161988D01*
X7062017Y-25287511D01*
X7062016Y-25287515D01*
X7024500Y-25427525D01*
X-6943950Y-25427525D01*
X-7011982Y-25359493D01*
X-7011988Y-25359488D01*
X-7137511Y-25287017D01*
X-7137510Y-25287017D01*
X-7179108Y-25275870D01*
X-7277525Y-25249500D01*
X-7422475Y-25249500D01*
X-7562485Y-25287016D01*
X-7562488Y-25287017D01*
X-7688011Y-25359488D01*
X-7688017Y-25359493D01*
X-7790506Y-25461982D01*
X-7790511Y-25461988D01*
X-7833829Y-25537018D01*
X-7862984Y-25587515D01*
X-7900500Y-25727525D01*
X-29595699Y-25727525D01*
X-29587017Y-25712488D01*
X-29587015Y-25712483D01*
X-29580271Y-25687315D01*
X-29580269Y-25687304D01*
X-29566931Y-25637527D01*
X-29549500Y-25572475D01*
X-29549500Y-25427525D01*
X-29587016Y-25287515D01*
X-29587015Y-25287515D01*
X-29587017Y-25287511D01*
X-29659488Y-25161988D01*
X-29659493Y-25161982D01*
X-29761982Y-25059493D01*
X-29761988Y-25059488D01*
X-29887511Y-24987017D01*
X-29887510Y-24987017D01*
X-29929108Y-24975870D01*
X-30027525Y-24949500D01*
X-30172475Y-24949500D01*
X-30312485Y-24987016D01*
X-30312488Y-24987017D01*
X-30438011Y-25059488D01*
X-30438017Y-25059493D01*
X-30540506Y-25161982D01*
X-30540511Y-25161988D01*
X-30612696Y-25287017D01*
X-30612984Y-25287515D01*
X-30650500Y-25427525D01*
X-31097425Y-25427525D01*
X-31129489Y-25371988D01*
X-31129493Y-25371982D01*
X-31231982Y-25269493D01*
X-31231988Y-25269488D01*
X-31357511Y-25197017D01*
X-31357510Y-25197017D01*
X-31399108Y-25185870D01*
X-31497525Y-25159500D01*
X-31642475Y-25159500D01*
X-31782485Y-25197016D01*
X-31782488Y-25197017D01*
X-31908011Y-25269488D01*
X-31908017Y-25269493D01*
X-32010506Y-25371982D01*
X-32010511Y-25371988D01*
X-32062472Y-25461988D01*
X-32082984Y-25497515D01*
X-32120500Y-25637525D01*
X-49499500Y-25637525D01*
X-49499500Y-24182571D01*
X-33644261Y-24182571D01*
X-33644261Y-24327521D01*
X-33606745Y-24467531D01*
X-33534270Y-24593061D01*
X-33431776Y-24695555D01*
X-33306249Y-24768028D01*
X-33306248Y-24768028D01*
X-33306246Y-24768030D01*
X-33166236Y-24805546D01*
X-33166233Y-24805546D01*
X-33021289Y-24805546D01*
X-33021286Y-24805546D01*
X-32881276Y-24768030D01*
X-32881273Y-24768028D01*
X-32881272Y-24768028D01*
X-32755749Y-24695557D01*
X-32755747Y-24695556D01*
X-32755746Y-24695555D01*
X-32653252Y-24593061D01*
X-32621188Y-24537525D01*
X-28710500Y-24537525D01*
X-28710500Y-24682475D01*
X-28672984Y-24822485D01*
X-28600509Y-24948015D01*
X-28498015Y-25050509D01*
X-28372488Y-25122982D01*
X-28372487Y-25122982D01*
X-28372485Y-25122984D01*
X-28232475Y-25160500D01*
X-28232472Y-25160500D01*
X-28087528Y-25160500D01*
X-28087525Y-25160500D01*
X-27947515Y-25122984D01*
X-27947512Y-25122982D01*
X-27947511Y-25122982D01*
X-27821988Y-25050511D01*
X-27821986Y-25050510D01*
X-27821985Y-25050509D01*
X-27719491Y-24948015D01*
X-27719490Y-24948013D01*
X-27719488Y-24948011D01*
X-27647017Y-24822488D01*
X-27632425Y-24768030D01*
X-27609500Y-24682475D01*
X-27609500Y-24537525D01*
X-27647016Y-24397515D01*
X-27647015Y-24397515D01*
X-27647017Y-24397511D01*
X-27719488Y-24271988D01*
X-27719493Y-24271982D01*
X-27821982Y-24169493D01*
X-27821988Y-24169488D01*
X-27947511Y-24097017D01*
X-27947510Y-24097017D01*
X-27989108Y-24085870D01*
X-28087525Y-24059500D01*
X-28232475Y-24059500D01*
X-28372485Y-24097016D01*
X-28372488Y-24097017D01*
X-28498011Y-24169488D01*
X-28498013Y-24169490D01*
X-28498015Y-24169491D01*
X-28600509Y-24271985D01*
X-28672984Y-24397515D01*
X-28710500Y-24537525D01*
X-32621188Y-24537525D01*
X-32580777Y-24467531D01*
X-32543261Y-24327521D01*
X-32543261Y-24182571D01*
X-32580777Y-24042561D01*
X-32580776Y-24042561D01*
X-32580778Y-24042557D01*
X-32653249Y-23917034D01*
X-32653254Y-23917028D01*
X-32755743Y-23814539D01*
X-32755746Y-23814537D01*
X-32803814Y-23786785D01*
X-32803815Y-23786783D01*
X-32881272Y-23742063D01*
X-32881271Y-23742063D01*
X-32922869Y-23730916D01*
X-33021286Y-23704546D01*
X-33166236Y-23704546D01*
X-33306246Y-23742062D01*
X-33306249Y-23742063D01*
X-33431772Y-23814534D01*
X-33431778Y-23814539D01*
X-33534267Y-23917028D01*
X-33534272Y-23917034D01*
X-33605561Y-24040511D01*
X-33606745Y-24042561D01*
X-33644261Y-24182571D01*
X-49499500Y-24182571D01*
X-49499500Y-23687525D01*
X-27460500Y-23687525D01*
X-27460500Y-23832475D01*
X-27422984Y-23972485D01*
X-27350509Y-24098015D01*
X-27248015Y-24200509D01*
X-27122488Y-24272982D01*
X-27122487Y-24272982D01*
X-27122485Y-24272984D01*
X-26982475Y-24310500D01*
X-26982472Y-24310500D01*
X-26837528Y-24310500D01*
X-26837525Y-24310500D01*
X-26697515Y-24272984D01*
X-26697512Y-24272982D01*
X-26697511Y-24272982D01*
X-26571988Y-24200511D01*
X-26571986Y-24200510D01*
X-26571985Y-24200509D01*
X-26469491Y-24098015D01*
X-26469490Y-24098013D01*
X-26469488Y-24098011D01*
X-26397017Y-23972488D01*
X-26397016Y-23972485D01*
X-26359500Y-23832475D01*
X-26359500Y-23687525D01*
X-26397016Y-23547515D01*
X-26397015Y-23547515D01*
X-26397017Y-23547511D01*
X-26408556Y-23527525D01*
X599500Y-23527525D01*
X599500Y-23672475D01*
X630129Y-23786783D01*
X637017Y-23812488D01*
X709488Y-23938011D01*
X709490Y-23938013D01*
X709491Y-23938015D01*
X811985Y-24040509D01*
X811986Y-24040510D01*
X811988Y-24040511D01*
X937511Y-24112982D01*
X937512Y-24112982D01*
X937515Y-24112984D01*
X1077525Y-24150500D01*
X1077528Y-24150500D01*
X1222472Y-24150500D01*
X1222475Y-24150500D01*
X1362485Y-24112984D01*
X1488015Y-24040509D01*
X1525999Y-24002525D01*
X6174500Y-24002525D01*
X6174500Y-24147475D01*
X6212016Y-24287485D01*
X6212017Y-24287488D01*
X6284488Y-24413011D01*
X6284490Y-24413013D01*
X6284491Y-24413015D01*
X6386985Y-24515509D01*
X6386986Y-24515510D01*
X6386988Y-24515511D01*
X6512511Y-24587982D01*
X6512512Y-24587982D01*
X6512515Y-24587984D01*
X6652525Y-24625500D01*
X6652528Y-24625500D01*
X6797472Y-24625500D01*
X6797475Y-24625500D01*
X6937485Y-24587984D01*
X7063015Y-24515509D01*
X7165509Y-24413015D01*
X7237984Y-24287485D01*
X7275500Y-24147475D01*
X7275500Y-24002525D01*
X7237984Y-23862515D01*
X7220640Y-23832475D01*
X7165511Y-23736988D01*
X7165506Y-23736982D01*
X7063017Y-23634493D01*
X7063011Y-23634488D01*
X6937488Y-23562017D01*
X6937489Y-23562017D01*
X6926006Y-23558940D01*
X6797475Y-23524500D01*
X6652525Y-23524500D01*
X6523993Y-23558940D01*
X6512511Y-23562017D01*
X6386988Y-23634488D01*
X6386982Y-23634493D01*
X6284493Y-23736982D01*
X6284488Y-23736988D01*
X6212017Y-23862511D01*
X6212016Y-23862515D01*
X6174500Y-24002525D01*
X1525999Y-24002525D01*
X1590509Y-23938015D01*
X1662984Y-23812485D01*
X1700500Y-23672475D01*
X1700500Y-23527525D01*
X1662984Y-23387515D01*
X1590509Y-23261985D01*
X1556049Y-23227525D01*
X2099500Y-23227525D01*
X2099500Y-23372475D01*
X2137016Y-23512485D01*
X2137017Y-23512488D01*
X2209488Y-23638011D01*
X2209490Y-23638013D01*
X2209491Y-23638015D01*
X2311985Y-23740509D01*
X2311986Y-23740510D01*
X2311988Y-23740511D01*
X2437511Y-23812982D01*
X2437512Y-23812982D01*
X2437515Y-23812984D01*
X2577525Y-23850500D01*
X2577528Y-23850500D01*
X2722472Y-23850500D01*
X2722475Y-23850500D01*
X2862485Y-23812984D01*
X2988015Y-23740509D01*
X3090509Y-23638015D01*
X3162984Y-23512485D01*
X3200500Y-23372475D01*
X3200500Y-23227525D01*
X3162984Y-23087515D01*
X3162696Y-23087017D01*
X3090511Y-22961988D01*
X3090506Y-22961982D01*
X2988017Y-22859493D01*
X2988011Y-22859488D01*
X2862488Y-22787017D01*
X2862489Y-22787017D01*
X2851006Y-22783940D01*
X2722475Y-22749500D01*
X2577525Y-22749500D01*
X2448993Y-22783940D01*
X2437511Y-22787017D01*
X2311988Y-22859488D01*
X2311982Y-22859493D01*
X2209493Y-22961982D01*
X2209488Y-22961988D01*
X2137017Y-23087511D01*
X2137016Y-23087515D01*
X2099500Y-23227525D01*
X1556049Y-23227525D01*
X1488015Y-23159491D01*
X1488013Y-23159490D01*
X1488011Y-23159488D01*
X1362488Y-23087017D01*
X1362489Y-23087017D01*
X1351006Y-23083940D01*
X1222475Y-23049500D01*
X1077525Y-23049500D01*
X948993Y-23083940D01*
X937511Y-23087017D01*
X811988Y-23159488D01*
X811982Y-23159493D01*
X709493Y-23261982D01*
X709488Y-23261988D01*
X637017Y-23387511D01*
X637016Y-23387515D01*
X599500Y-23527525D01*
X-26408556Y-23527525D01*
X-26469488Y-23421988D01*
X-26469493Y-23421982D01*
X-26571982Y-23319493D01*
X-26571988Y-23319488D01*
X-26697511Y-23247017D01*
X-26697510Y-23247017D01*
X-26739108Y-23235870D01*
X-26837525Y-23209500D01*
X-26982475Y-23209500D01*
X-27122485Y-23247016D01*
X-27122488Y-23247017D01*
X-27248011Y-23319488D01*
X-27248017Y-23319493D01*
X-27350506Y-23421982D01*
X-27350511Y-23421988D01*
X-27409696Y-23524500D01*
X-27422984Y-23547515D01*
X-27460500Y-23687525D01*
X-49499500Y-23687525D01*
X-49499500Y-22869664D01*
X-24953559Y-22869664D01*
X-24953559Y-23014614D01*
X-24916043Y-23154624D01*
X-24843568Y-23280154D01*
X-24741074Y-23382648D01*
X-24615547Y-23455121D01*
X-24615546Y-23455121D01*
X-24615544Y-23455123D01*
X-24475534Y-23492639D01*
X-24475531Y-23492639D01*
X-24330587Y-23492639D01*
X-24330584Y-23492639D01*
X-24190574Y-23455123D01*
X-24190571Y-23455121D01*
X-24190570Y-23455121D01*
X-24065047Y-23382650D01*
X-24065045Y-23382649D01*
X-24065044Y-23382648D01*
X-23962550Y-23280154D01*
X-23962549Y-23280152D01*
X-23962547Y-23280150D01*
X-23890076Y-23154627D01*
X-23888398Y-23148366D01*
X-23852559Y-23014614D01*
X-23852559Y-22869664D01*
X-23854237Y-22863403D01*
X-8498215Y-22863403D01*
X-8498215Y-23008353D01*
X-8460699Y-23148363D01*
X-8388224Y-23273893D01*
X-8285730Y-23376387D01*
X-8160203Y-23448860D01*
X-8160202Y-23448860D01*
X-8160200Y-23448862D01*
X-8020190Y-23486378D01*
X-8020187Y-23486378D01*
X-7875243Y-23486378D01*
X-7875240Y-23486378D01*
X-7735230Y-23448862D01*
X-7628967Y-23387511D01*
X-7609703Y-23376389D01*
X-7609701Y-23376388D01*
X-7609700Y-23376387D01*
X-7507206Y-23273893D01*
X-7507205Y-23273891D01*
X-7507203Y-23273889D01*
X-7434732Y-23148366D01*
X-7418426Y-23087511D01*
X-7397215Y-23008353D01*
X-7397215Y-22863403D01*
X-7434731Y-22723393D01*
X-7434730Y-22723393D01*
X-7434732Y-22723389D01*
X-7507203Y-22597866D01*
X-7507208Y-22597860D01*
X-7597990Y-22507079D01*
X-7609697Y-22495371D01*
X-7609703Y-22495366D01*
X-7727207Y-22427525D01*
X3449500Y-22427525D01*
X3449500Y-22572475D01*
X3487016Y-22712485D01*
X3487017Y-22712488D01*
X3559488Y-22838011D01*
X3559490Y-22838013D01*
X3559491Y-22838015D01*
X3661985Y-22940509D01*
X3661986Y-22940510D01*
X3661988Y-22940511D01*
X3787511Y-23012982D01*
X3787512Y-23012982D01*
X3787515Y-23012984D01*
X3927525Y-23050500D01*
X3927528Y-23050500D01*
X4072472Y-23050500D01*
X4072475Y-23050500D01*
X4212485Y-23012984D01*
X4338015Y-22940509D01*
X4440509Y-22838015D01*
X4512984Y-22712485D01*
X4550500Y-22572475D01*
X4550500Y-22427525D01*
X5449500Y-22427525D01*
X5449500Y-22572475D01*
X5487016Y-22712485D01*
X5487017Y-22712488D01*
X5559488Y-22838011D01*
X5559490Y-22838013D01*
X5559491Y-22838015D01*
X5661985Y-22940509D01*
X5661986Y-22940510D01*
X5661988Y-22940511D01*
X5787511Y-23012982D01*
X5787512Y-23012982D01*
X5787515Y-23012984D01*
X5927525Y-23050500D01*
X5927528Y-23050500D01*
X6072472Y-23050500D01*
X6072475Y-23050500D01*
X6212485Y-23012984D01*
X6338015Y-22940509D01*
X6440509Y-22838015D01*
X6512984Y-22712485D01*
X6550500Y-22572475D01*
X6550500Y-22427525D01*
X6512984Y-22287515D01*
X6484406Y-22238017D01*
X6440511Y-22161988D01*
X6440506Y-22161982D01*
X6338017Y-22059493D01*
X6338011Y-22059488D01*
X6212488Y-21987017D01*
X6212489Y-21987017D01*
X6201006Y-21983940D01*
X6072475Y-21949500D01*
X5927525Y-21949500D01*
X5798993Y-21983940D01*
X5787511Y-21987017D01*
X5661988Y-22059488D01*
X5661982Y-22059493D01*
X5559493Y-22161982D01*
X5559488Y-22161988D01*
X5487017Y-22287511D01*
X5487016Y-22287515D01*
X5449500Y-22427525D01*
X4550500Y-22427525D01*
X4512984Y-22287515D01*
X4484406Y-22238017D01*
X4440511Y-22161988D01*
X4440506Y-22161982D01*
X4338017Y-22059493D01*
X4338011Y-22059488D01*
X4212488Y-21987017D01*
X4212489Y-21987017D01*
X4201006Y-21983940D01*
X4072475Y-21949500D01*
X3927525Y-21949500D01*
X3798993Y-21983940D01*
X3787511Y-21987017D01*
X3661988Y-22059488D01*
X3661982Y-22059493D01*
X3559493Y-22161982D01*
X3559488Y-22161988D01*
X3487017Y-22287511D01*
X3487016Y-22287515D01*
X3449500Y-22427525D01*
X-7727207Y-22427525D01*
X-7735226Y-22422895D01*
X-7735225Y-22422895D01*
X-7776823Y-22411748D01*
X-7875240Y-22385378D01*
X-8020190Y-22385378D01*
X-8160200Y-22422894D01*
X-8160203Y-22422895D01*
X-8285726Y-22495366D01*
X-8285732Y-22495371D01*
X-8388221Y-22597860D01*
X-8388226Y-22597866D01*
X-8454401Y-22712485D01*
X-8460699Y-22723393D01*
X-8498215Y-22863403D01*
X-23854237Y-22863403D01*
X-23890075Y-22729654D01*
X-23890074Y-22729654D01*
X-23890076Y-22729650D01*
X-23962547Y-22604127D01*
X-23962552Y-22604121D01*
X-24065041Y-22501632D01*
X-24065047Y-22501627D01*
X-24190570Y-22429156D01*
X-24190569Y-22429156D01*
X-24232167Y-22418009D01*
X-24330584Y-22391639D01*
X-24475534Y-22391639D01*
X-24615544Y-22429155D01*
X-24615547Y-22429156D01*
X-24741070Y-22501627D01*
X-24741076Y-22501632D01*
X-24843565Y-22604121D01*
X-24843570Y-22604127D01*
X-24912428Y-22723393D01*
X-24916043Y-22729654D01*
X-24953559Y-22869664D01*
X-49499500Y-22869664D01*
X-49499500Y-20857486D01*
X-46038000Y-20857486D01*
X-46038000Y-21042514D01*
X-46009055Y-21225264D01*
X-45951879Y-21401235D01*
X-45867878Y-21566096D01*
X-45759121Y-21715787D01*
X-45628287Y-21846621D01*
X-45478596Y-21955378D01*
X-45313735Y-22039379D01*
X-45137764Y-22096555D01*
X-44955014Y-22125500D01*
X-44955013Y-22125500D01*
X-44769987Y-22125500D01*
X-44769986Y-22125500D01*
X-44587236Y-22096555D01*
X-44473164Y-22059491D01*
X-44411267Y-22039380D01*
X-44411264Y-22039379D01*
X-44329122Y-21997525D01*
X-33410500Y-21997525D01*
X-33410500Y-22142475D01*
X-33372984Y-22282485D01*
X-33300509Y-22408015D01*
X-33198015Y-22510509D01*
X-33072488Y-22582982D01*
X-33072487Y-22582982D01*
X-33072485Y-22582984D01*
X-32932475Y-22620500D01*
X-32932472Y-22620500D01*
X-32787528Y-22620500D01*
X-32787525Y-22620500D01*
X-32647515Y-22582984D01*
X-32647512Y-22582982D01*
X-32647511Y-22582982D01*
X-32521988Y-22510511D01*
X-32521986Y-22510510D01*
X-32521985Y-22510509D01*
X-32419491Y-22408015D01*
X-32419490Y-22408013D01*
X-32419488Y-22408011D01*
X-32347017Y-22282488D01*
X-32335101Y-22238017D01*
X-32309500Y-22142475D01*
X-32309500Y-21997525D01*
X-32320793Y-21955378D01*
X-32347015Y-21857515D01*
X-32347017Y-21857511D01*
X-32364329Y-21827525D01*
X27849500Y-21827525D01*
X27849500Y-21972475D01*
X27882748Y-22096555D01*
X27887017Y-22112488D01*
X27959488Y-22238011D01*
X27959490Y-22238013D01*
X27959491Y-22238015D01*
X28061985Y-22340509D01*
X28061986Y-22340510D01*
X28061988Y-22340511D01*
X28187511Y-22412982D01*
X28187512Y-22412982D01*
X28187515Y-22412984D01*
X28327525Y-22450500D01*
X28327528Y-22450500D01*
X28472472Y-22450500D01*
X28472475Y-22450500D01*
X28612485Y-22412984D01*
X28738015Y-22340509D01*
X28840509Y-22238015D01*
X28912984Y-22112485D01*
X28950500Y-21972475D01*
X28950500Y-21827525D01*
X28912984Y-21687515D01*
X28842882Y-21566096D01*
X28840511Y-21561988D01*
X28840506Y-21561982D01*
X28738017Y-21459493D01*
X28738011Y-21459488D01*
X28612488Y-21387017D01*
X28612489Y-21387017D01*
X28601006Y-21383940D01*
X28472475Y-21349500D01*
X28327525Y-21349500D01*
X28198993Y-21383940D01*
X28187511Y-21387017D01*
X28061988Y-21459488D01*
X28061982Y-21459493D01*
X27959493Y-21561982D01*
X27959488Y-21561988D01*
X27887017Y-21687511D01*
X27887016Y-21687515D01*
X27849500Y-21827525D01*
X-32364329Y-21827525D01*
X-32419488Y-21731988D01*
X-32419493Y-21731982D01*
X-32521982Y-21629493D01*
X-32521988Y-21629488D01*
X-32647511Y-21557017D01*
X-32647510Y-21557017D01*
X-32689108Y-21545870D01*
X-32787525Y-21519500D01*
X-32932475Y-21519500D01*
X-33072485Y-21557016D01*
X-33072488Y-21557017D01*
X-33198011Y-21629488D01*
X-33198017Y-21629493D01*
X-33300506Y-21731982D01*
X-33300511Y-21731988D01*
X-33366694Y-21846621D01*
X-33372984Y-21857515D01*
X-33410500Y-21997525D01*
X-44329122Y-21997525D01*
X-44279953Y-21972472D01*
X-44246404Y-21955378D01*
X-44096713Y-21846621D01*
X-43965879Y-21715787D01*
X-43857122Y-21566096D01*
X-43852496Y-21557017D01*
X-43773120Y-21401235D01*
X-43773119Y-21401232D01*
X-43715945Y-21225265D01*
X-43687000Y-21042513D01*
X-43687000Y-20857486D01*
X-43715945Y-20674734D01*
X-43773119Y-20498767D01*
X-43773120Y-20498764D01*
X-43857121Y-20333904D01*
X-43880096Y-20302283D01*
X-43880096Y-20302282D01*
X-43927145Y-20237525D01*
X-34513802Y-20237525D01*
X-34513802Y-20382475D01*
X-34476286Y-20522485D01*
X-34403811Y-20648015D01*
X-34301317Y-20750509D01*
X-34175790Y-20822982D01*
X-34175789Y-20822982D01*
X-34175787Y-20822984D01*
X-34035777Y-20860500D01*
X-34035774Y-20860500D01*
X-33890830Y-20860500D01*
X-33890827Y-20860500D01*
X-33750817Y-20822984D01*
X-33750814Y-20822982D01*
X-33750813Y-20822982D01*
X-33625290Y-20750511D01*
X-33625288Y-20750510D01*
X-33625287Y-20750509D01*
X-33522793Y-20648015D01*
X-33522792Y-20648013D01*
X-33522790Y-20648011D01*
X-33476321Y-20567525D01*
X17849500Y-20567525D01*
X17849500Y-20712475D01*
X17859692Y-20750511D01*
X17887017Y-20852488D01*
X17959488Y-20978011D01*
X17959490Y-20978013D01*
X17959491Y-20978015D01*
X18061985Y-21080509D01*
X18061986Y-21080510D01*
X18061988Y-21080511D01*
X18187511Y-21152982D01*
X18187512Y-21152982D01*
X18187515Y-21152984D01*
X18327525Y-21190500D01*
X18327528Y-21190500D01*
X18472472Y-21190500D01*
X18472475Y-21190500D01*
X18612485Y-21152984D01*
X18738015Y-21080509D01*
X18840509Y-20978015D01*
X18912984Y-20852485D01*
X18950500Y-20712475D01*
X18950500Y-20567525D01*
X18912984Y-20427515D01*
X18886978Y-20382472D01*
X18840511Y-20301988D01*
X18840506Y-20301982D01*
X18738017Y-20199493D01*
X18738011Y-20199488D01*
X18612659Y-20127116D01*
X18612658Y-20127115D01*
X18612657Y-20127115D01*
X18612487Y-20127017D01*
X18612486Y-20127016D01*
X18612485Y-20127016D01*
X18472475Y-20089500D01*
X18327525Y-20089500D01*
X18198993Y-20123940D01*
X18187511Y-20127017D01*
X18061988Y-20199488D01*
X18061982Y-20199493D01*
X17959493Y-20301982D01*
X17959488Y-20301988D01*
X17887017Y-20427511D01*
X17887016Y-20427515D01*
X17849500Y-20567525D01*
X-33476321Y-20567525D01*
X-33450319Y-20522489D01*
X-33443962Y-20498764D01*
X-33412802Y-20382475D01*
X-33412802Y-20237525D01*
X-33450318Y-20097515D01*
X-33450317Y-20097515D01*
X-33450319Y-20097511D01*
X-33490534Y-20027856D01*
X29721028Y-20027856D01*
X29721028Y-20172806D01*
X29755722Y-20302283D01*
X29758545Y-20312819D01*
X29831016Y-20438342D01*
X29831018Y-20438344D01*
X29831019Y-20438346D01*
X29933513Y-20540840D01*
X29933514Y-20540841D01*
X29933516Y-20540842D01*
X30059039Y-20613313D01*
X30059040Y-20613313D01*
X30059043Y-20613315D01*
X30199053Y-20650831D01*
X30199056Y-20650831D01*
X30344000Y-20650831D01*
X30344003Y-20650831D01*
X30484013Y-20613315D01*
X30609543Y-20540840D01*
X30712037Y-20438346D01*
X30784512Y-20312816D01*
X30822028Y-20172806D01*
X30822028Y-20027856D01*
X30784512Y-19887846D01*
X30768792Y-19860619D01*
X30712039Y-19762319D01*
X30712034Y-19762313D01*
X30609545Y-19659824D01*
X30609539Y-19659819D01*
X30484016Y-19587348D01*
X30484017Y-19587348D01*
X30472534Y-19584271D01*
X30344003Y-19549831D01*
X30199053Y-19549831D01*
X30070521Y-19584271D01*
X30059039Y-19587348D01*
X29933516Y-19659819D01*
X29933510Y-19659824D01*
X29831021Y-19762313D01*
X29831016Y-19762319D01*
X29758545Y-19887842D01*
X29758544Y-19887846D01*
X29721028Y-20027856D01*
X-33490534Y-20027856D01*
X-33522790Y-19971988D01*
X-33522795Y-19971982D01*
X-33625284Y-19869493D01*
X-33625290Y-19869488D01*
X-33750813Y-19797017D01*
X-33750812Y-19797017D01*
X-33792410Y-19785870D01*
X-33890827Y-19759500D01*
X-34035777Y-19759500D01*
X-34175787Y-19797016D01*
X-34175790Y-19797017D01*
X-34301313Y-19869488D01*
X-34301319Y-19869493D01*
X-34403808Y-19971982D01*
X-34403813Y-19971988D01*
X-34436069Y-20027858D01*
X-34476286Y-20097515D01*
X-34513802Y-20237525D01*
X-43927145Y-20237525D01*
X-43965880Y-20184211D01*
X-44096710Y-20053381D01*
X-44246403Y-19944622D01*
X-44411264Y-19860620D01*
X-44411267Y-19860619D01*
X-44587234Y-19803445D01*
X-44709069Y-19784148D01*
X-44769986Y-19774500D01*
X-44955014Y-19774500D01*
X-45046389Y-19788972D01*
X-45137765Y-19803445D01*
X-45313732Y-19860619D01*
X-45313735Y-19860620D01*
X-45478596Y-19944622D01*
X-45628287Y-20053379D01*
X-45759121Y-20184213D01*
X-45867878Y-20333904D01*
X-45892626Y-20382475D01*
X-45951879Y-20498764D01*
X-45951880Y-20498767D01*
X-45965549Y-20540837D01*
X-46009055Y-20674736D01*
X-46038000Y-20857486D01*
X-49499500Y-20857486D01*
X-49499500Y-18717525D01*
X27649500Y-18717525D01*
X27649500Y-18862475D01*
X27687016Y-19002485D01*
X27687017Y-19002488D01*
X27759488Y-19128011D01*
X27759490Y-19128013D01*
X27759491Y-19128015D01*
X27861985Y-19230509D01*
X27861986Y-19230510D01*
X27861988Y-19230511D01*
X27987511Y-19302982D01*
X27987512Y-19302982D01*
X27987515Y-19302984D01*
X28127525Y-19340500D01*
X28127528Y-19340500D01*
X28272472Y-19340500D01*
X28272475Y-19340500D01*
X28412485Y-19302984D01*
X28538015Y-19230509D01*
X28640509Y-19128015D01*
X28712984Y-19002485D01*
X28750500Y-18862475D01*
X28750500Y-18717525D01*
X28712984Y-18577515D01*
X28640509Y-18451985D01*
X28538015Y-18349491D01*
X28538013Y-18349490D01*
X28538011Y-18349488D01*
X28412488Y-18277017D01*
X28412489Y-18277017D01*
X28401006Y-18273940D01*
X28272475Y-18239500D01*
X28127525Y-18239500D01*
X27998993Y-18273940D01*
X27987511Y-18277017D01*
X27861988Y-18349488D01*
X27861982Y-18349493D01*
X27759493Y-18451982D01*
X27759488Y-18451988D01*
X27687017Y-18577511D01*
X27687016Y-18577515D01*
X27649500Y-18717525D01*
X-49499500Y-18717525D01*
X-49499500Y-17587525D01*
X22039500Y-17587525D01*
X22039500Y-17732475D01*
X22076486Y-17870506D01*
X22077017Y-17872488D01*
X22149488Y-17998011D01*
X22149490Y-17998013D01*
X22149491Y-17998015D01*
X22251985Y-18100509D01*
X22251986Y-18100510D01*
X22251988Y-18100511D01*
X22377511Y-18172982D01*
X22377512Y-18172982D01*
X22377515Y-18172984D01*
X22517525Y-18210500D01*
X22517528Y-18210500D01*
X22662472Y-18210500D01*
X22662475Y-18210500D01*
X22802485Y-18172984D01*
X22928015Y-18100509D01*
X23030509Y-17998015D01*
X23102984Y-17872485D01*
X23140500Y-17732475D01*
X23140500Y-17587525D01*
X23102984Y-17447515D01*
X23051028Y-17357525D01*
X23499500Y-17357525D01*
X23499500Y-17502475D01*
X23537016Y-17642485D01*
X23537017Y-17642488D01*
X23609488Y-17768011D01*
X23609490Y-17768013D01*
X23609491Y-17768015D01*
X23711985Y-17870509D01*
X23711986Y-17870510D01*
X23711988Y-17870511D01*
X23837511Y-17942982D01*
X23837512Y-17942982D01*
X23837515Y-17942984D01*
X23977525Y-17980500D01*
X23977528Y-17980500D01*
X24122472Y-17980500D01*
X24122475Y-17980500D01*
X24262485Y-17942984D01*
X24388015Y-17870509D01*
X24490509Y-17768015D01*
X24562984Y-17642485D01*
X24600500Y-17502475D01*
X24600500Y-17357525D01*
X24562984Y-17217515D01*
X24539896Y-17177525D01*
X25499500Y-17177525D01*
X25499500Y-17322475D01*
X25533004Y-17447511D01*
X25537017Y-17462488D01*
X25609488Y-17588011D01*
X25609490Y-17588013D01*
X25609491Y-17588015D01*
X25711985Y-17690509D01*
X25711986Y-17690510D01*
X25711988Y-17690511D01*
X25837511Y-17762982D01*
X25837512Y-17762982D01*
X25837515Y-17762984D01*
X25977525Y-17800500D01*
X25977528Y-17800500D01*
X26122472Y-17800500D01*
X26122475Y-17800500D01*
X26262485Y-17762984D01*
X26388015Y-17690509D01*
X26490509Y-17588015D01*
X26562984Y-17462485D01*
X26600500Y-17322475D01*
X26600500Y-17177525D01*
X26562984Y-17037515D01*
X26535258Y-16989493D01*
X26490511Y-16911988D01*
X26490506Y-16911982D01*
X26388017Y-16809493D01*
X26388011Y-16809488D01*
X26262490Y-16737018D01*
X26262487Y-16737017D01*
X26262485Y-16737016D01*
X26122475Y-16699500D01*
X25977525Y-16699500D01*
X25848993Y-16733940D01*
X25837511Y-16737017D01*
X25711988Y-16809488D01*
X25711982Y-16809493D01*
X25609493Y-16911982D01*
X25609488Y-16911988D01*
X25537017Y-17037511D01*
X25537016Y-17037515D01*
X25499500Y-17177525D01*
X24539896Y-17177525D01*
X24522281Y-17147016D01*
X24490511Y-17091988D01*
X24490506Y-17091982D01*
X24388017Y-16989493D01*
X24388011Y-16989488D01*
X24262488Y-16917017D01*
X24262489Y-16917017D01*
X24243698Y-16911982D01*
X24122475Y-16879500D01*
X23977525Y-16879500D01*
X23856302Y-16911982D01*
X23837511Y-16917017D01*
X23711988Y-16989488D01*
X23711982Y-16989493D01*
X23609493Y-17091982D01*
X23609488Y-17091988D01*
X23537017Y-17217511D01*
X23536486Y-17219493D01*
X23499500Y-17357525D01*
X23051028Y-17357525D01*
X23030509Y-17321985D01*
X22928015Y-17219491D01*
X22928013Y-17219490D01*
X22928011Y-17219488D01*
X22802488Y-17147017D01*
X22802489Y-17147017D01*
X22778201Y-17140509D01*
X22662475Y-17109500D01*
X22517525Y-17109500D01*
X22401799Y-17140509D01*
X22377511Y-17147017D01*
X22251988Y-17219488D01*
X22251982Y-17219493D01*
X22149493Y-17321982D01*
X22149488Y-17321988D01*
X22077017Y-17447511D01*
X22077016Y-17447515D01*
X22039500Y-17587525D01*
X-49499500Y-17587525D01*
X-49499500Y-16627525D01*
X27199500Y-16627525D01*
X27199500Y-16772475D01*
X27228178Y-16879500D01*
X27237017Y-16912488D01*
X27309488Y-17038011D01*
X27309490Y-17038013D01*
X27309491Y-17038015D01*
X27411985Y-17140509D01*
X27411986Y-17140510D01*
X27411988Y-17140511D01*
X27537511Y-17212982D01*
X27537512Y-17212982D01*
X27537515Y-17212984D01*
X27677525Y-17250500D01*
X27677528Y-17250500D01*
X27822472Y-17250500D01*
X27822475Y-17250500D01*
X27962485Y-17212984D01*
X28088015Y-17140509D01*
X28190509Y-17038015D01*
X28262984Y-16912485D01*
X28300500Y-16772475D01*
X28300500Y-16627525D01*
X28262984Y-16487515D01*
X28190509Y-16361985D01*
X28088015Y-16259491D01*
X28088013Y-16259490D01*
X28088011Y-16259488D01*
X27962488Y-16187017D01*
X27962489Y-16187017D01*
X27951006Y-16183940D01*
X27822475Y-16149500D01*
X27677525Y-16149500D01*
X27548993Y-16183940D01*
X27537511Y-16187017D01*
X27411988Y-16259488D01*
X27411982Y-16259493D01*
X27309493Y-16361982D01*
X27309488Y-16361988D01*
X27237017Y-16487511D01*
X27237016Y-16487515D01*
X27199500Y-16627525D01*
X-49499500Y-16627525D01*
X-49499500Y-13277525D01*
X-28350500Y-13277525D01*
X-28350500Y-13422475D01*
X-28312984Y-13562485D01*
X-28240509Y-13688015D01*
X-28138015Y-13790509D01*
X-28012488Y-13862982D01*
X-28012487Y-13862982D01*
X-28012485Y-13862984D01*
X-27872475Y-13900500D01*
X-27872472Y-13900500D01*
X-27727528Y-13900500D01*
X-27727525Y-13900500D01*
X-27587515Y-13862984D01*
X-27587512Y-13862982D01*
X-27587511Y-13862982D01*
X-27461988Y-13790511D01*
X-27461986Y-13790510D01*
X-27461985Y-13790509D01*
X-27359491Y-13688015D01*
X-27359490Y-13688013D01*
X-27359488Y-13688011D01*
X-27287017Y-13562488D01*
X-27287016Y-13562485D01*
X-27249500Y-13422475D01*
X-27249500Y-13277525D01*
X-24250500Y-13277525D01*
X-24250500Y-13422475D01*
X-24212984Y-13562485D01*
X-24140509Y-13688015D01*
X-24038015Y-13790509D01*
X-23912488Y-13862982D01*
X-23912487Y-13862982D01*
X-23912485Y-13862984D01*
X-23772475Y-13900500D01*
X-23772472Y-13900500D01*
X-23627528Y-13900500D01*
X-23627525Y-13900500D01*
X-23487515Y-13862984D01*
X-23487512Y-13862982D01*
X-23487511Y-13862982D01*
X-23361988Y-13790511D01*
X-23361986Y-13790510D01*
X-23361985Y-13790509D01*
X-23259491Y-13688015D01*
X-23259490Y-13688013D01*
X-23259488Y-13688011D01*
X-23187017Y-13562488D01*
X-23187016Y-13562485D01*
X-23149500Y-13422475D01*
X-23149500Y-13277525D01*
X-23187016Y-13137515D01*
X-23187015Y-13137515D01*
X-23187017Y-13137511D01*
X-23259488Y-13011988D01*
X-23259493Y-13011982D01*
X-23361982Y-12909493D01*
X-23361988Y-12909488D01*
X-23487511Y-12837017D01*
X-23487510Y-12837017D01*
X-23529108Y-12825870D01*
X-23627525Y-12799500D01*
X-23772475Y-12799500D01*
X-23912485Y-12837016D01*
X-23912488Y-12837017D01*
X-24038011Y-12909488D01*
X-24038017Y-12909493D01*
X-24140506Y-13011982D01*
X-24140511Y-13011988D01*
X-24164322Y-13053231D01*
X-24212984Y-13137515D01*
X-24250500Y-13277525D01*
X-27249500Y-13277525D01*
X-27287016Y-13137515D01*
X-27287015Y-13137515D01*
X-27287017Y-13137511D01*
X-27359488Y-13011988D01*
X-27359493Y-13011982D01*
X-27461982Y-12909493D01*
X-27461988Y-12909488D01*
X-27587511Y-12837017D01*
X-27587510Y-12837017D01*
X-27629108Y-12825870D01*
X-27727525Y-12799500D01*
X-27872475Y-12799500D01*
X-28012485Y-12837016D01*
X-28012488Y-12837017D01*
X-28138011Y-12909488D01*
X-28138017Y-12909493D01*
X-28240506Y-13011982D01*
X-28240511Y-13011988D01*
X-28264322Y-13053231D01*
X-28312984Y-13137515D01*
X-28350500Y-13277525D01*
X-49499500Y-13277525D01*
X-49499500Y-9327525D01*
X-11425500Y-9327525D01*
X-11425500Y-9472475D01*
X-11387984Y-9612485D01*
X-11315509Y-9738015D01*
X-11213015Y-9840509D01*
X-11087488Y-9912982D01*
X-11087487Y-9912982D01*
X-11087485Y-9912984D01*
X-10947475Y-9950500D01*
X-10947472Y-9950500D01*
X-10802528Y-9950500D01*
X-10802525Y-9950500D01*
X-10662515Y-9912984D01*
X-10662512Y-9912982D01*
X-10662511Y-9912982D01*
X-10644399Y-9902525D01*
X-9100500Y-9902525D01*
X-9100500Y-10047475D01*
X-9062984Y-10187485D01*
X-8990509Y-10313015D01*
X-8888015Y-10415509D01*
X-8762488Y-10487982D01*
X-8762487Y-10487982D01*
X-8762485Y-10487984D01*
X-8622475Y-10525500D01*
X-8622472Y-10525500D01*
X-8477528Y-10525500D01*
X-8477525Y-10525500D01*
X-8337515Y-10487984D01*
X-8337512Y-10487982D01*
X-8337511Y-10487982D01*
X-8211988Y-10415511D01*
X-8211986Y-10415510D01*
X-8211985Y-10415509D01*
X-8109491Y-10313015D01*
X-8109490Y-10313013D01*
X-8109488Y-10313011D01*
X-8037017Y-10187488D01*
X-8037016Y-10187485D01*
X-7999500Y-10047475D01*
X-7999500Y-9902525D01*
X-8037016Y-9762515D01*
X-8037015Y-9762515D01*
X-8037017Y-9762511D01*
X-8109488Y-9636988D01*
X-8109493Y-9636982D01*
X-8211982Y-9534493D01*
X-8211988Y-9534488D01*
X-8337511Y-9462017D01*
X-8337510Y-9462017D01*
X-8379108Y-9450870D01*
X-8477525Y-9424500D01*
X-8622475Y-9424500D01*
X-8762485Y-9462016D01*
X-8762488Y-9462017D01*
X-8888011Y-9534488D01*
X-8888013Y-9534490D01*
X-8888015Y-9534491D01*
X-8990509Y-9636985D01*
X-9062984Y-9762515D01*
X-9100500Y-9902525D01*
X-10644399Y-9902525D01*
X-10536988Y-9840511D01*
X-10536986Y-9840510D01*
X-10536985Y-9840509D01*
X-10434491Y-9738015D01*
X-10434490Y-9738013D01*
X-10434488Y-9738011D01*
X-10362017Y-9612488D01*
X-10341118Y-9534493D01*
X-10324500Y-9472475D01*
X-10324500Y-9327525D01*
X-10362016Y-9187515D01*
X-10362015Y-9187515D01*
X-10362017Y-9187511D01*
X-10434488Y-9061988D01*
X-10434493Y-9061982D01*
X-10536982Y-8959493D01*
X-10536988Y-8959488D01*
X-10662511Y-8887017D01*
X-10662510Y-8887017D01*
X-10704108Y-8875870D01*
X-10802525Y-8849500D01*
X-10947475Y-8849500D01*
X-11087485Y-8887016D01*
X-11087488Y-8887017D01*
X-11213011Y-8959488D01*
X-11213017Y-8959493D01*
X-11315506Y-9061982D01*
X-11315511Y-9061988D01*
X-11321565Y-9072475D01*
X-11387984Y-9187515D01*
X-11425500Y-9327525D01*
X-49499500Y-9327525D01*
X-49499500Y-3805249D01*
X-2175500Y-3805249D01*
X-2175500Y-12994750D01*
X-2175499Y-12994752D01*
X-2163868Y-13053229D01*
X-2163867Y-13053229D01*
X-2163867Y-13053231D01*
X-2119552Y-13119552D01*
X-2053231Y-13163867D01*
X-2053229Y-13163867D01*
X-2053229Y-13163868D01*
X-2009568Y-13172552D01*
X-1994751Y-13175499D01*
X-1994750Y-13175500D01*
X-1994748Y-13175500D01*
X7194750Y-13175500D01*
X7194751Y-13175499D01*
X7209568Y-13172552D01*
X7253229Y-13163868D01*
X7253229Y-13163867D01*
X7253231Y-13163867D01*
X7319552Y-13119552D01*
X7363867Y-13053231D01*
X7363867Y-13053229D01*
X7363868Y-13053229D01*
X7375499Y-12994752D01*
X7375500Y-12994750D01*
X7375500Y-11177525D01*
X21299500Y-11177525D01*
X21299500Y-11322475D01*
X21337016Y-11462485D01*
X21337017Y-11462488D01*
X21409488Y-11588011D01*
X21409490Y-11588013D01*
X21409491Y-11588015D01*
X21511985Y-11690509D01*
X21511986Y-11690510D01*
X21511988Y-11690511D01*
X21637511Y-11762982D01*
X21637512Y-11762982D01*
X21637515Y-11762984D01*
X21777525Y-11800500D01*
X21777528Y-11800500D01*
X21922472Y-11800500D01*
X21922475Y-11800500D01*
X22062485Y-11762984D01*
X22188015Y-11690509D01*
X22290509Y-11588015D01*
X22362984Y-11462485D01*
X22400500Y-11322475D01*
X22400500Y-11177525D01*
X22362984Y-11037515D01*
X22290509Y-10911985D01*
X22188015Y-10809491D01*
X22188013Y-10809490D01*
X22188011Y-10809488D01*
X22062488Y-10737017D01*
X22062489Y-10737017D01*
X22051006Y-10733940D01*
X21922475Y-10699500D01*
X21777525Y-10699500D01*
X21648993Y-10733940D01*
X21637511Y-10737017D01*
X21511988Y-10809488D01*
X21511982Y-10809493D01*
X21409493Y-10911982D01*
X21409488Y-10911988D01*
X21337017Y-11037511D01*
X21337016Y-11037515D01*
X21299500Y-11177525D01*
X7375500Y-11177525D01*
X7375500Y-8927525D01*
X21249500Y-8927525D01*
X21249500Y-9072475D01*
X21287016Y-9212485D01*
X21287017Y-9212488D01*
X21359488Y-9338011D01*
X21359490Y-9338013D01*
X21359491Y-9338015D01*
X21461985Y-9440509D01*
X21461986Y-9440510D01*
X21461988Y-9440511D01*
X21587511Y-9512982D01*
X21587512Y-9512982D01*
X21587515Y-9512984D01*
X21727525Y-9550500D01*
X21727528Y-9550500D01*
X21872472Y-9550500D01*
X21872475Y-9550500D01*
X22012485Y-9512984D01*
X22138015Y-9440509D01*
X22240509Y-9338015D01*
X22312984Y-9212485D01*
X22350500Y-9072475D01*
X22350500Y-8927525D01*
X22312984Y-8787515D01*
X22240509Y-8661985D01*
X22138015Y-8559491D01*
X22138013Y-8559490D01*
X22138011Y-8559488D01*
X22012488Y-8487017D01*
X22012489Y-8487017D01*
X22001006Y-8483940D01*
X21872475Y-8449500D01*
X21727525Y-8449500D01*
X21598993Y-8483940D01*
X21587511Y-8487017D01*
X21461988Y-8559488D01*
X21461982Y-8559493D01*
X21359493Y-8661982D01*
X21359488Y-8661988D01*
X21287017Y-8787511D01*
X21287016Y-8787515D01*
X21249500Y-8927525D01*
X7375500Y-8927525D01*
X7375500Y-6707486D01*
X43062000Y-6707486D01*
X43062000Y-6892513D01*
X43090945Y-7075265D01*
X43148119Y-7251232D01*
X43148120Y-7251235D01*
X43232122Y-7416096D01*
X43340879Y-7565787D01*
X43471713Y-7696621D01*
X43621404Y-7805378D01*
X43702263Y-7846577D01*
X43786264Y-7889379D01*
X43786267Y-7889380D01*
X43874250Y-7917967D01*
X43962236Y-7946555D01*
X44144986Y-7975500D01*
X44144987Y-7975500D01*
X44330013Y-7975500D01*
X44330014Y-7975500D01*
X44512764Y-7946555D01*
X44688735Y-7889379D01*
X44853596Y-7805378D01*
X45003287Y-7696621D01*
X45134121Y-7565787D01*
X45242878Y-7416096D01*
X45326879Y-7251235D01*
X45384055Y-7075264D01*
X45413000Y-6892514D01*
X45413000Y-6707486D01*
X45384055Y-6524736D01*
X45326879Y-6348765D01*
X45326879Y-6348764D01*
X45242877Y-6183903D01*
X45134121Y-6034213D01*
X45003287Y-5903379D01*
X44853596Y-5794622D01*
X44688735Y-5710620D01*
X44688732Y-5710619D01*
X44512765Y-5653445D01*
X44421389Y-5638972D01*
X44330014Y-5624500D01*
X44144986Y-5624500D01*
X44084069Y-5634148D01*
X43962234Y-5653445D01*
X43786267Y-5710619D01*
X43786264Y-5710620D01*
X43621403Y-5794622D01*
X43535999Y-5856672D01*
X43471713Y-5903379D01*
X43471711Y-5903381D01*
X43471710Y-5903381D01*
X43340881Y-6034210D01*
X43340881Y-6034211D01*
X43340879Y-6034213D01*
X43294172Y-6098499D01*
X43232122Y-6183903D01*
X43148120Y-6348764D01*
X43148119Y-6348767D01*
X43090945Y-6524734D01*
X43062000Y-6707486D01*
X7375500Y-6707486D01*
X7375500Y-5727525D01*
X18699500Y-5727525D01*
X18699500Y-5872475D01*
X18737016Y-6012485D01*
X18737017Y-6012488D01*
X18809488Y-6138011D01*
X18809490Y-6138013D01*
X18809491Y-6138015D01*
X18911985Y-6240509D01*
X18911986Y-6240510D01*
X18911988Y-6240511D01*
X19037511Y-6312982D01*
X19037512Y-6312982D01*
X19037515Y-6312984D01*
X19177525Y-6350500D01*
X19177528Y-6350500D01*
X19322472Y-6350500D01*
X19322475Y-6350500D01*
X19462485Y-6312984D01*
X19588015Y-6240509D01*
X19690509Y-6138015D01*
X19762984Y-6012485D01*
X19800500Y-5872475D01*
X19800500Y-5727525D01*
X19762984Y-5587515D01*
X19690509Y-5461985D01*
X19588015Y-5359491D01*
X19588013Y-5359490D01*
X19588011Y-5359488D01*
X19462488Y-5287017D01*
X19462489Y-5287017D01*
X19451006Y-5283940D01*
X19322475Y-5249500D01*
X19177525Y-5249500D01*
X19048993Y-5283940D01*
X19037511Y-5287017D01*
X18911988Y-5359488D01*
X18911982Y-5359493D01*
X18809493Y-5461982D01*
X18809488Y-5461988D01*
X18737017Y-5587511D01*
X18737016Y-5587515D01*
X18699500Y-5727525D01*
X7375500Y-5727525D01*
X7375500Y-4677525D01*
X17799500Y-4677525D01*
X17799500Y-4822475D01*
X17837016Y-4962485D01*
X17837017Y-4962488D01*
X17909488Y-5088011D01*
X17909490Y-5088013D01*
X17909491Y-5088015D01*
X18011985Y-5190509D01*
X18011986Y-5190510D01*
X18011988Y-5190511D01*
X18137511Y-5262982D01*
X18137512Y-5262982D01*
X18137515Y-5262984D01*
X18277525Y-5300500D01*
X18277528Y-5300500D01*
X18422472Y-5300500D01*
X18422475Y-5300500D01*
X18562485Y-5262984D01*
X18688015Y-5190509D01*
X18790509Y-5088015D01*
X18862984Y-4962485D01*
X18900500Y-4822475D01*
X18900500Y-4677525D01*
X18862984Y-4537515D01*
X18790509Y-4411985D01*
X18688015Y-4309491D01*
X18688013Y-4309490D01*
X18688011Y-4309488D01*
X18562488Y-4237017D01*
X18562489Y-4237017D01*
X18551006Y-4233940D01*
X18422475Y-4199500D01*
X18277525Y-4199500D01*
X18148993Y-4233940D01*
X18137511Y-4237017D01*
X18011988Y-4309488D01*
X18011982Y-4309493D01*
X17909493Y-4411982D01*
X17909488Y-4411988D01*
X17837017Y-4537511D01*
X17837016Y-4537515D01*
X17799500Y-4677525D01*
X7375500Y-4677525D01*
X7375500Y-3805249D01*
X7375499Y-3805247D01*
X7363868Y-3746770D01*
X7363867Y-3746769D01*
X7319552Y-3680447D01*
X7253230Y-3636132D01*
X7253229Y-3636131D01*
X7194752Y-3624500D01*
X7194748Y-3624500D01*
X-1994748Y-3624500D01*
X-1994752Y-3624500D01*
X-2053229Y-3636131D01*
X-2053230Y-3636132D01*
X-2119552Y-3680447D01*
X-2163867Y-3746769D01*
X-2163868Y-3746770D01*
X-2175499Y-3805247D01*
X-2175500Y-3805249D01*
X-49499500Y-3805249D01*
X-49499500Y-2797525D01*
X-28470500Y-2797525D01*
X-28470500Y-2942475D01*
X-28432984Y-3082485D01*
X-28360509Y-3208015D01*
X-28258015Y-3310509D01*
X-28132488Y-3382982D01*
X-28132487Y-3382982D01*
X-28132485Y-3382984D01*
X-27992475Y-3420500D01*
X-27992472Y-3420500D01*
X-27847528Y-3420500D01*
X-27847525Y-3420500D01*
X-27707515Y-3382984D01*
X-27707512Y-3382982D01*
X-27707511Y-3382982D01*
X-27581988Y-3310511D01*
X-27581986Y-3310510D01*
X-27581985Y-3310509D01*
X-27479491Y-3208015D01*
X-27479490Y-3208013D01*
X-27479488Y-3208011D01*
X-27407017Y-3082488D01*
X-27407016Y-3082485D01*
X-27369500Y-2942475D01*
X-27369500Y-2852525D01*
X-16200500Y-2852525D01*
X-16200500Y-2997475D01*
X-16162984Y-3137485D01*
X-16090509Y-3263015D01*
X-15988015Y-3365509D01*
X-15862488Y-3437982D01*
X-15862487Y-3437982D01*
X-15862485Y-3437984D01*
X-15722475Y-3475500D01*
X-15722472Y-3475500D01*
X-15577528Y-3475500D01*
X-15577525Y-3475500D01*
X-15437515Y-3437984D01*
X-15437512Y-3437982D01*
X-15437511Y-3437982D01*
X-15311988Y-3365511D01*
X-15311986Y-3365510D01*
X-15311985Y-3365509D01*
X-15209491Y-3263015D01*
X-15209490Y-3263013D01*
X-15209488Y-3263011D01*
X-15137017Y-3137488D01*
X-15123761Y-3088017D01*
X-15099500Y-2997475D01*
X-15099500Y-2852525D01*
X-15137016Y-2712515D01*
X-15137015Y-2712515D01*
X-15137017Y-2712511D01*
X-15157216Y-2677525D01*
X15949500Y-2677525D01*
X15949500Y-2822475D01*
X15987016Y-2962485D01*
X15987017Y-2962488D01*
X16059488Y-3088011D01*
X16059490Y-3088013D01*
X16059491Y-3088015D01*
X16161985Y-3190509D01*
X16161986Y-3190510D01*
X16161988Y-3190511D01*
X16287511Y-3262982D01*
X16287512Y-3262982D01*
X16287515Y-3262984D01*
X16427525Y-3300500D01*
X16427528Y-3300500D01*
X16572472Y-3300500D01*
X16572475Y-3300500D01*
X16712485Y-3262984D01*
X16838015Y-3190509D01*
X16940509Y-3088015D01*
X17012984Y-2962485D01*
X17050500Y-2822475D01*
X17050500Y-2677525D01*
X17012984Y-2537515D01*
X17009791Y-2531985D01*
X16940511Y-2411988D01*
X16940506Y-2411982D01*
X16838017Y-2309493D01*
X16838011Y-2309488D01*
X16712488Y-2237017D01*
X16712489Y-2237017D01*
X16701006Y-2233940D01*
X16572475Y-2199500D01*
X16427525Y-2199500D01*
X16298993Y-2233940D01*
X16287511Y-2237017D01*
X16161988Y-2309488D01*
X16161982Y-2309493D01*
X16059493Y-2411982D01*
X16059488Y-2411988D01*
X15987017Y-2537511D01*
X15987016Y-2537515D01*
X15949500Y-2677525D01*
X-15157216Y-2677525D01*
X-15209488Y-2586988D01*
X-15209493Y-2586982D01*
X-15311982Y-2484493D01*
X-15311988Y-2484488D01*
X-15437511Y-2412017D01*
X-15437510Y-2412017D01*
X-15479108Y-2400870D01*
X-15577525Y-2374500D01*
X-15722475Y-2374500D01*
X-15862485Y-2412016D01*
X-15862488Y-2412017D01*
X-15988011Y-2484488D01*
X-15988017Y-2484493D01*
X-16090506Y-2586982D01*
X-16090511Y-2586988D01*
X-16142782Y-2677525D01*
X-16162984Y-2712515D01*
X-16200500Y-2852525D01*
X-27369500Y-2852525D01*
X-27369500Y-2797525D01*
X-27407016Y-2657515D01*
X-27407015Y-2657515D01*
X-27407017Y-2657511D01*
X-27479488Y-2531988D01*
X-27479493Y-2531982D01*
X-27581982Y-2429493D01*
X-27581988Y-2429488D01*
X-27707511Y-2357017D01*
X-27707510Y-2357017D01*
X-27749108Y-2345870D01*
X-27847525Y-2319500D01*
X-27992475Y-2319500D01*
X-28132485Y-2357016D01*
X-28132488Y-2357017D01*
X-28258011Y-2429488D01*
X-28258017Y-2429493D01*
X-28360506Y-2531982D01*
X-28360511Y-2531988D01*
X-28394296Y-2590506D01*
X-28432984Y-2657515D01*
X-28470500Y-2797525D01*
X-49499500Y-2797525D01*
X-49499500Y-2077525D01*
X17874500Y-2077525D01*
X17874500Y-2222475D01*
X17897817Y-2309493D01*
X17912017Y-2362488D01*
X17984488Y-2488011D01*
X17984490Y-2488013D01*
X17984491Y-2488015D01*
X18086985Y-2590509D01*
X18086986Y-2590510D01*
X18086988Y-2590511D01*
X18212511Y-2662982D01*
X18212512Y-2662982D01*
X18212515Y-2662984D01*
X18352525Y-2700500D01*
X18352528Y-2700500D01*
X18497472Y-2700500D01*
X18497475Y-2700500D01*
X18637485Y-2662984D01*
X18763015Y-2590509D01*
X18865509Y-2488015D01*
X18937984Y-2362485D01*
X18975500Y-2222475D01*
X18975500Y-2077525D01*
X18937984Y-1937515D01*
X18865509Y-1811985D01*
X18763015Y-1709491D01*
X18763013Y-1709490D01*
X18763011Y-1709488D01*
X18637488Y-1637017D01*
X18637489Y-1637017D01*
X18626006Y-1633940D01*
X18497475Y-1599500D01*
X18352525Y-1599500D01*
X18223993Y-1633940D01*
X18212511Y-1637017D01*
X18086988Y-1709488D01*
X18086982Y-1709493D01*
X17984493Y-1811982D01*
X17984488Y-1811988D01*
X17912017Y-1937511D01*
X17912016Y-1937515D01*
X17874500Y-2077525D01*
X-49499500Y-2077525D01*
X-49499500Y-1177525D01*
X19099500Y-1177525D01*
X19099500Y-1322475D01*
X19137016Y-1462485D01*
X19137017Y-1462488D01*
X19209488Y-1588011D01*
X19209490Y-1588013D01*
X19209491Y-1588015D01*
X19311985Y-1690509D01*
X19311986Y-1690510D01*
X19311988Y-1690511D01*
X19437511Y-1762982D01*
X19437512Y-1762982D01*
X19437515Y-1762984D01*
X19577525Y-1800500D01*
X19577528Y-1800500D01*
X19722472Y-1800500D01*
X19722475Y-1800500D01*
X19862485Y-1762984D01*
X19988015Y-1690509D01*
X20090509Y-1588015D01*
X20162984Y-1462485D01*
X20200500Y-1322475D01*
X20200500Y-1177525D01*
X20162984Y-1037515D01*
X20090799Y-912488D01*
X20090511Y-911988D01*
X20090506Y-911982D01*
X19988017Y-809493D01*
X19988011Y-809488D01*
X19862490Y-737018D01*
X19862487Y-737017D01*
X19862485Y-737016D01*
X19722475Y-699500D01*
X19577525Y-699500D01*
X19448993Y-733940D01*
X19437511Y-737017D01*
X19311988Y-809488D01*
X19311982Y-809493D01*
X19209493Y-911982D01*
X19209488Y-911988D01*
X19137017Y-1037511D01*
X19137016Y-1037515D01*
X19099500Y-1177525D01*
X-49499500Y-1177525D01*
X-49499500Y-627525D01*
X22549500Y-627525D01*
X22549500Y-772475D01*
X22586881Y-911982D01*
X22587017Y-912488D01*
X22659488Y-1038011D01*
X22659490Y-1038013D01*
X22659491Y-1038015D01*
X22761985Y-1140509D01*
X22761986Y-1140510D01*
X22761988Y-1140511D01*
X22887511Y-1212982D01*
X22887512Y-1212982D01*
X22887515Y-1212984D01*
X23027525Y-1250500D01*
X23027528Y-1250500D01*
X23172472Y-1250500D01*
X23172475Y-1250500D01*
X23312485Y-1212984D01*
X23438015Y-1140509D01*
X23540509Y-1038015D01*
X23612984Y-912485D01*
X23650500Y-772475D01*
X23650500Y-627525D01*
X23612984Y-487515D01*
X23540509Y-361985D01*
X23438015Y-259491D01*
X23438013Y-259490D01*
X23438011Y-259488D01*
X23312488Y-187017D01*
X23312489Y-187017D01*
X23301006Y-183940D01*
X23172475Y-149500D01*
X23027525Y-149500D01*
X22898993Y-183940D01*
X22887511Y-187017D01*
X22761988Y-259488D01*
X22761982Y-259493D01*
X22659493Y-361982D01*
X22659488Y-361988D01*
X22587017Y-487511D01*
X22587016Y-487515D01*
X22549500Y-627525D01*
X-49499500Y-627525D01*
X-49499500Y272475D01*
X20324500Y272475D01*
X20324500Y127525D01*
X20362016Y-12485D01*
X20362017Y-12488D01*
X20434488Y-138011D01*
X20434490Y-138013D01*
X20434491Y-138015D01*
X20536985Y-240509D01*
X20536986Y-240510D01*
X20536988Y-240511D01*
X20662511Y-312982D01*
X20662512Y-312982D01*
X20662515Y-312984D01*
X20802525Y-350500D01*
X20802528Y-350500D01*
X20947472Y-350500D01*
X20947475Y-350500D01*
X21087485Y-312984D01*
X21213015Y-240509D01*
X21315509Y-138015D01*
X21387984Y-12485D01*
X21425500Y127525D01*
X21425500Y272475D01*
X21387984Y412485D01*
X21315509Y538015D01*
X21213015Y640509D01*
X21087488Y712982D01*
X21087487Y712982D01*
X21087485Y712984D01*
X20947475Y750500D01*
X20802525Y750500D01*
X20662515Y712984D01*
X20662512Y712982D01*
X20662511Y712982D01*
X20536988Y640511D01*
X20536985Y640509D01*
X20536982Y640506D01*
X20434493Y538017D01*
X20434488Y538011D01*
X20362017Y412488D01*
X20362016Y412485D01*
X20324500Y272475D01*
X-49499500Y272475D01*
X-49499500Y1472475D01*
X-35350500Y1472475D01*
X-35350500Y1327525D01*
X-35312984Y1187515D01*
X-35312982Y1187512D01*
X-35312982Y1187511D01*
X-35240511Y1061988D01*
X-35240509Y1061985D01*
X-35240506Y1061982D01*
X-35138017Y959493D01*
X-35138011Y959488D01*
X-35012488Y887017D01*
X-35012489Y887017D01*
X-35012485Y887016D01*
X-34872475Y849500D01*
X-34872472Y849500D01*
X-34727528Y849500D01*
X-34727525Y849500D01*
X-34587515Y887016D01*
X-34587511Y887017D01*
X-34461988Y959488D01*
X-34461982Y959493D01*
X-34359493Y1061982D01*
X-34359488Y1061988D01*
X-34287017Y1187511D01*
X-34253656Y1312016D01*
X-34249500Y1327525D01*
X-34249500Y1372475D01*
X-33650500Y1372475D01*
X-33650500Y1227525D01*
X-33612984Y1087515D01*
X-33612982Y1087512D01*
X-33612982Y1087511D01*
X-33540511Y961988D01*
X-33540509Y961985D01*
X-33540506Y961982D01*
X-33438017Y859493D01*
X-33438011Y859488D01*
X-33312488Y787017D01*
X-33312489Y787017D01*
X-33312485Y787016D01*
X-33172475Y749500D01*
X-33172472Y749500D01*
X-33027528Y749500D01*
X-33027525Y749500D01*
X-32887515Y787016D01*
X-32887511Y787017D01*
X-32761988Y859488D01*
X-32761982Y859493D01*
X-32659493Y961982D01*
X-32659488Y961988D01*
X-32587017Y1087511D01*
X-32560221Y1187515D01*
X-32549500Y1227525D01*
X-32549500Y1372475D01*
X-32587016Y1512485D01*
X-32587017Y1512488D01*
X-32659488Y1638011D01*
X-32659493Y1638017D01*
X-32761982Y1740506D01*
X-32761985Y1740509D01*
X-32887515Y1812984D01*
X-33027525Y1850500D01*
X-33172475Y1850500D01*
X-33312485Y1812984D01*
X-33438015Y1740509D01*
X-33540509Y1638015D01*
X-33612984Y1512485D01*
X-33650500Y1372475D01*
X-34249500Y1372475D01*
X-34249500Y1472475D01*
X-34287016Y1612485D01*
X-34287017Y1612488D01*
X-34359488Y1738011D01*
X-34359493Y1738017D01*
X-34461982Y1840506D01*
X-34461985Y1840509D01*
X-34461988Y1840511D01*
X-34560652Y1897475D01*
X-31600500Y1897475D01*
X-31600500Y1752525D01*
X-31562984Y1612515D01*
X-31562982Y1612512D01*
X-31562982Y1612511D01*
X-31490511Y1486988D01*
X-31490509Y1486985D01*
X-31490506Y1486982D01*
X-31388017Y1384493D01*
X-31388011Y1384488D01*
X-31262488Y1312017D01*
X-31262489Y1312017D01*
X-31262485Y1312016D01*
X-31122475Y1274500D01*
X-31122472Y1274500D01*
X-30977528Y1274500D01*
X-30977525Y1274500D01*
X-30837515Y1312016D01*
X-30837511Y1312017D01*
X-30711988Y1384488D01*
X-30711982Y1384493D01*
X-30609493Y1486982D01*
X-30609488Y1486988D01*
X-30537017Y1612511D01*
X-30530183Y1638017D01*
X-30499500Y1752525D01*
X-30499500Y1897475D01*
X-30537016Y2037485D01*
X-30537017Y2037488D01*
X-30609488Y2163011D01*
X-30609493Y2163017D01*
X-30711982Y2265506D01*
X-30711985Y2265509D01*
X-30711988Y2265511D01*
X-30837511Y2337982D01*
X-30837512Y2337982D01*
X-30837515Y2337984D01*
X-30977525Y2375500D01*
X-31122475Y2375500D01*
X-31262485Y2337984D01*
X-31388015Y2265509D01*
X-31490509Y2163015D01*
X-31562984Y2037485D01*
X-31600500Y1897475D01*
X-34560652Y1897475D01*
X-34587511Y1912982D01*
X-34587512Y1912982D01*
X-34587515Y1912984D01*
X-34727525Y1950500D01*
X-34872475Y1950500D01*
X-35012485Y1912984D01*
X-35138015Y1840509D01*
X-35240509Y1738015D01*
X-35312984Y1612485D01*
X-35350500Y1472475D01*
X-49499500Y1472475D01*
X-49499500Y2672475D01*
X-36150500Y2672475D01*
X-36150500Y2527525D01*
X-36112984Y2387515D01*
X-36040509Y2261985D01*
X-36040506Y2261982D01*
X-35938017Y2159493D01*
X-35938011Y2159488D01*
X-35812488Y2087017D01*
X-35812489Y2087017D01*
X-35812485Y2087016D01*
X-35672475Y2049500D01*
X-35672472Y2049500D01*
X-35527528Y2049500D01*
X-35527525Y2049500D01*
X-35387515Y2087016D01*
X-35387511Y2087017D01*
X-35261988Y2159488D01*
X-35261982Y2159493D01*
X-35159493Y2261982D01*
X-35159488Y2261988D01*
X-35087017Y2387511D01*
X-35080458Y2411988D01*
X-35049500Y2527525D01*
X-35049500Y2672475D01*
X-35083271Y2798509D01*
X-35083270Y2798509D01*
X-35087016Y2812485D01*
X-35087017Y2812488D01*
X-35092783Y2822475D01*
X-29225500Y2822475D01*
X-29225500Y2677525D01*
X-29187984Y2537515D01*
X-29187982Y2537512D01*
X-29187982Y2537511D01*
X-29115511Y2411988D01*
X-29115509Y2411985D01*
X-29115506Y2411982D01*
X-29013017Y2309493D01*
X-29013011Y2309488D01*
X-28887488Y2237017D01*
X-28887489Y2237017D01*
X-28887485Y2237016D01*
X-28747475Y2199500D01*
X-28747472Y2199500D01*
X-28602528Y2199500D01*
X-28602525Y2199500D01*
X-28462515Y2237016D01*
X-28462511Y2237017D01*
X-28336988Y2309488D01*
X-28336982Y2309493D01*
X-28234493Y2411982D01*
X-28234488Y2411988D01*
X-28162017Y2537511D01*
X-28125854Y2672472D01*
X-28124500Y2677525D01*
X-28124500Y2822475D01*
X-28162016Y2962485D01*
X-28162017Y2962488D01*
X-28234488Y3088011D01*
X-28234493Y3088017D01*
X-28336982Y3190506D01*
X-28336985Y3190509D01*
X-28460779Y3261982D01*
X-28462511Y3262982D01*
X-28462512Y3262982D01*
X-28462515Y3262984D01*
X-28602525Y3300500D01*
X-28747475Y3300500D01*
X-28887485Y3262984D01*
X-29013015Y3190509D01*
X-29115509Y3088015D01*
X-29187984Y2962485D01*
X-29225500Y2822475D01*
X-35092783Y2822475D01*
X-35159488Y2938011D01*
X-35159493Y2938017D01*
X-35261982Y3040506D01*
X-35261985Y3040509D01*
X-35261988Y3040511D01*
X-35387511Y3112982D01*
X-35387512Y3112982D01*
X-35387515Y3112984D01*
X-35527525Y3150500D01*
X-35672475Y3150500D01*
X-35812485Y3112984D01*
X-35938015Y3040509D01*
X-36040509Y2938015D01*
X-36112984Y2812485D01*
X-36150500Y2672475D01*
X-49499500Y2672475D01*
X-49499500Y3672475D01*
X-37350500Y3672475D01*
X-37350500Y3527525D01*
X-37312984Y3387515D01*
X-37240509Y3261985D01*
X-37240506Y3261982D01*
X-37138017Y3159493D01*
X-37138011Y3159488D01*
X-37012488Y3087017D01*
X-37012489Y3087017D01*
X-37012485Y3087016D01*
X-36872475Y3049500D01*
X-36872472Y3049500D01*
X-36727528Y3049500D01*
X-36727525Y3049500D01*
X-36587515Y3087016D01*
X-36587511Y3087017D01*
X-36461988Y3159488D01*
X-36461982Y3159493D01*
X-36359493Y3261982D01*
X-36359488Y3261988D01*
X-36287017Y3387511D01*
X-36282583Y3404055D01*
X-36249500Y3527525D01*
X-36249500Y3672475D01*
X-36287016Y3812485D01*
X-36287017Y3812488D01*
X-36359488Y3938011D01*
X-36359493Y3938017D01*
X-36461982Y4040506D01*
X-36461985Y4040509D01*
X-36461988Y4040511D01*
X-36587511Y4112982D01*
X-36587512Y4112982D01*
X-36587515Y4112984D01*
X-36727525Y4150500D01*
X-36872475Y4150500D01*
X-37012485Y4112984D01*
X-37138015Y4040509D01*
X-37240509Y3938015D01*
X-37312984Y3812485D01*
X-37350500Y3672475D01*
X-49499500Y3672475D01*
X-49499500Y5972475D01*
X-36550500Y5972475D01*
X-36550500Y5827525D01*
X-36512984Y5687515D01*
X-36512982Y5687512D01*
X-36512982Y5687511D01*
X-36469377Y5611985D01*
X-36440509Y5561985D01*
X-36440506Y5561982D01*
X-36338017Y5459493D01*
X-36338011Y5459488D01*
X-36212488Y5387017D01*
X-36212489Y5387017D01*
X-36212485Y5387016D01*
X-36072475Y5349500D01*
X-36072472Y5349500D01*
X-35927528Y5349500D01*
X-35927525Y5349500D01*
X-35787515Y5387016D01*
X-35787511Y5387017D01*
X-35760737Y5402475D01*
X-26050500Y5402475D01*
X-26050500Y5257525D01*
X-26012984Y5117515D01*
X-25940509Y4991985D01*
X-25940506Y4991982D01*
X-25838017Y4889493D01*
X-25838011Y4889488D01*
X-25712488Y4817017D01*
X-25712489Y4817017D01*
X-25712485Y4817016D01*
X-25572475Y4779500D01*
X-25572472Y4779500D01*
X-25427528Y4779500D01*
X-25427525Y4779500D01*
X-25287515Y4817016D01*
X-25287511Y4817017D01*
X-25161988Y4889488D01*
X-25161982Y4889493D01*
X-25059493Y4991982D01*
X-25059488Y4991988D01*
X-24987017Y5117511D01*
X-24982583Y5134055D01*
X-24949500Y5257525D01*
X-24949500Y5402475D01*
X-24987016Y5542485D01*
X-24987017Y5542488D01*
X-25059488Y5668011D01*
X-25059493Y5668017D01*
X-25161982Y5770506D01*
X-25161985Y5770509D01*
X-25260739Y5827525D01*
X-25287511Y5842982D01*
X-25287512Y5842982D01*
X-25287515Y5842984D01*
X-25427525Y5880500D01*
X-25572475Y5880500D01*
X-25712485Y5842984D01*
X-25838015Y5770509D01*
X-25940509Y5668015D01*
X-26012984Y5542485D01*
X-26050500Y5402475D01*
X-35760737Y5402475D01*
X-35661988Y5459488D01*
X-35661982Y5459493D01*
X-35623193Y5498283D01*
X-35559493Y5561982D01*
X-35559488Y5561988D01*
X-35487017Y5687511D01*
X-35482583Y5704055D01*
X-35449500Y5827525D01*
X-35449500Y5972475D01*
X-35462898Y6022475D01*
X17899500Y6022475D01*
X17899500Y5877525D01*
X17908756Y5842982D01*
X17937017Y5737511D01*
X18009488Y5611988D01*
X18009493Y5611982D01*
X18111982Y5509493D01*
X18111988Y5509488D01*
X18237511Y5437017D01*
X18237510Y5437017D01*
X18279108Y5425870D01*
X18377525Y5399500D01*
X18377528Y5399500D01*
X18522472Y5399500D01*
X18522475Y5399500D01*
X18662485Y5437016D01*
X18662488Y5437017D01*
X18788011Y5509488D01*
X18788017Y5509493D01*
X18890506Y5611982D01*
X18890509Y5611985D01*
X18934114Y5687511D01*
X18962982Y5737511D01*
X18962982Y5737512D01*
X18962984Y5737515D01*
X19000500Y5877525D01*
X19000500Y6022475D01*
X18962984Y6162485D01*
X18890509Y6288015D01*
X18788015Y6390509D01*
X18662488Y6462982D01*
X18662487Y6462982D01*
X18662485Y6462984D01*
X18522475Y6500500D01*
X18377525Y6500500D01*
X18237515Y6462984D01*
X18237512Y6462982D01*
X18237511Y6462982D01*
X18150909Y6412982D01*
X18111985Y6390509D01*
X18111982Y6390506D01*
X18009493Y6288017D01*
X18009488Y6288011D01*
X17937017Y6162488D01*
X17937016Y6162485D01*
X17899500Y6022475D01*
X-35462898Y6022475D01*
X-35487016Y6112485D01*
X-35487017Y6112488D01*
X-35559488Y6238011D01*
X-35559493Y6238017D01*
X-35661982Y6340506D01*
X-35661985Y6340509D01*
X-35748587Y6390509D01*
X-35787511Y6412982D01*
X-35787512Y6412982D01*
X-35787515Y6412984D01*
X-35927525Y6450500D01*
X-36072475Y6450500D01*
X-36212485Y6412984D01*
X-36338015Y6340509D01*
X-36440509Y6238015D01*
X-36512984Y6112485D01*
X-36550500Y5972475D01*
X-49499500Y5972475D01*
X-49499500Y14268343D01*
X42609499Y14268343D01*
X42645065Y14089547D01*
X42645068Y14089537D01*
X42714831Y13921112D01*
X42714833Y13921108D01*
X42816113Y13769532D01*
X42816119Y13769524D01*
X42945024Y13640619D01*
X42945032Y13640613D01*
X43096608Y13539333D01*
X43096612Y13539331D01*
X43265037Y13469568D01*
X43265047Y13469565D01*
X43443844Y13434000D01*
X43443846Y13434000D01*
X44176156Y13434000D01*
X44354952Y13469565D01*
X44354962Y13469568D01*
X44523387Y13539331D01*
X44523391Y13539333D01*
X44674967Y13640613D01*
X44674975Y13640619D01*
X44803880Y13769524D01*
X44803886Y13769532D01*
X44905166Y13921108D01*
X44905168Y13921112D01*
X44974931Y14089537D01*
X44974934Y14089547D01*
X45010500Y14268343D01*
X45010500Y14285884D01*
X46509500Y14285884D01*
X46509500Y14133115D01*
X46539300Y13983302D01*
X46539302Y13983294D01*
X46597759Y13842165D01*
X46597764Y13842156D01*
X46682629Y13715148D01*
X46682632Y13715144D01*
X46790644Y13607132D01*
X46790648Y13607129D01*
X46917656Y13522264D01*
X46917665Y13522259D01*
X47058794Y13463802D01*
X47058802Y13463800D01*
X47208615Y13434000D01*
X47208620Y13434000D01*
X48011384Y13434000D01*
X48161197Y13463800D01*
X48161205Y13463802D01*
X48302334Y13522259D01*
X48302343Y13522264D01*
X48429351Y13607129D01*
X48429355Y13607132D01*
X48537367Y13715144D01*
X48537370Y13715148D01*
X48622235Y13842156D01*
X48622240Y13842165D01*
X48654941Y13921112D01*
X48680698Y13983295D01*
X48710500Y14133120D01*
X48710500Y14285880D01*
X48680698Y14435705D01*
X48622239Y14576837D01*
X48537370Y14703852D01*
X48429352Y14811870D01*
X48302337Y14896739D01*
X48161205Y14955198D01*
X48011382Y14984999D01*
X48011381Y14985000D01*
X48011380Y14985000D01*
X47208620Y14985000D01*
X47208619Y14985000D01*
X47208615Y14984999D01*
X47058795Y14955198D01*
X46997962Y14930000D01*
X46917665Y14896740D01*
X46917656Y14896735D01*
X46790648Y14811870D01*
X46790644Y14811867D01*
X46682632Y14703855D01*
X46682629Y14703851D01*
X46597764Y14576843D01*
X46597759Y14576834D01*
X46539302Y14435705D01*
X46539300Y14435697D01*
X46509500Y14285884D01*
X45010500Y14285884D01*
X45010500Y14450656D01*
X44974934Y14629452D01*
X44974933Y14629458D01*
X44913899Y14776806D01*
X44906431Y14846274D01*
X44937706Y14908753D01*
X44997795Y14944405D01*
X45004270Y14945874D01*
X45050903Y14955149D01*
X45050912Y14955152D01*
X45170017Y15004486D01*
X45170019Y15004487D01*
X45277219Y15076116D01*
X45277223Y15076119D01*
X45368380Y15167276D01*
X45368383Y15167280D01*
X45423277Y15249434D01*
X45440011Y15274478D01*
X45444370Y15285000D01*
X45489347Y15393587D01*
X45489350Y15393596D01*
X45514499Y15520032D01*
X45514500Y15520036D01*
X45514500Y15648964D01*
X45514499Y15648967D01*
X45489350Y15775403D01*
X45489348Y15775406D01*
X45489348Y15775411D01*
X45440011Y15894522D01*
X45368383Y16001720D01*
X45277220Y16092883D01*
X45170022Y16164511D01*
X45050911Y16213848D01*
X45050906Y16213848D01*
X45050903Y16213850D01*
X44966612Y16230616D01*
X44924465Y16238999D01*
X44924464Y16239000D01*
X44924463Y16239000D01*
X44795537Y16239000D01*
X44795536Y16239000D01*
X44795532Y16238999D01*
X44669096Y16213850D01*
X44669091Y16213848D01*
X44669089Y16213848D01*
X44669087Y16213847D01*
X44549982Y16164513D01*
X44549980Y16164512D01*
X44549978Y16164511D01*
X44509576Y16137515D01*
X44442780Y16092883D01*
X44442776Y16092880D01*
X44351619Y16001723D01*
X44351616Y16001719D01*
X44279987Y15894519D01*
X44279986Y15894517D01*
X44230652Y15775412D01*
X44230649Y15775403D01*
X44205500Y15648967D01*
X44205500Y15520032D01*
X44222774Y15433191D01*
X44216547Y15363599D01*
X44173684Y15308422D01*
X44107794Y15285178D01*
X44101157Y15285000D01*
X43443844Y15285000D01*
X43265047Y15249434D01*
X43265042Y15249433D01*
X43265037Y15249431D01*
X43096612Y15179668D01*
X43096608Y15179666D01*
X42945032Y15078386D01*
X42945024Y15078380D01*
X42816119Y14949475D01*
X42816113Y14949467D01*
X42714833Y14797891D01*
X42714831Y14797887D01*
X42645068Y14629462D01*
X42645065Y14629452D01*
X42609500Y14450656D01*
X42609500Y14268343D01*
X42609499Y14268343D01*
X-49499500Y14268343D01*
X-49499500Y16422475D01*
X-24400500Y16422475D01*
X-24400500Y16277525D01*
X-24362984Y16137515D01*
X-24362982Y16137512D01*
X-24362982Y16137511D01*
X-24319377Y16061985D01*
X-24290509Y16011985D01*
X-24290506Y16011982D01*
X-24188017Y15909493D01*
X-24188011Y15909488D01*
X-24062488Y15837017D01*
X-24062489Y15837017D01*
X-24062485Y15837016D01*
X-23922475Y15799500D01*
X-23922472Y15799500D01*
X-23777528Y15799500D01*
X-23777525Y15799500D01*
X-23637515Y15837016D01*
X-23637511Y15837017D01*
X-23511988Y15909488D01*
X-23511982Y15909493D01*
X-23409493Y16011982D01*
X-23409488Y16011988D01*
X-23337017Y16137511D01*
X-23329782Y16164513D01*
X-23299500Y16277525D01*
X-23299500Y16422475D01*
X-23312898Y16472475D01*
X23149500Y16472475D01*
X23149500Y16327525D01*
X23179960Y16213848D01*
X23187017Y16187511D01*
X23259488Y16061988D01*
X23259493Y16061982D01*
X23361982Y15959493D01*
X23361988Y15959488D01*
X23487511Y15887017D01*
X23487510Y15887017D01*
X23529108Y15875870D01*
X23627525Y15849500D01*
X23627528Y15849500D01*
X23772472Y15849500D01*
X23772475Y15849500D01*
X23912485Y15887016D01*
X23912488Y15887017D01*
X24038011Y15959488D01*
X24038017Y15959493D01*
X24140506Y16061982D01*
X24140509Y16061985D01*
X24140511Y16061988D01*
X24212982Y16187511D01*
X24212982Y16187512D01*
X24212984Y16187515D01*
X24250500Y16327525D01*
X24250500Y16472475D01*
X24212984Y16612485D01*
X24140509Y16738015D01*
X24038015Y16840509D01*
X23912488Y16912982D01*
X23912487Y16912982D01*
X23912485Y16912984D01*
X23772475Y16950500D01*
X23627525Y16950500D01*
X23487515Y16912984D01*
X23487512Y16912982D01*
X23487511Y16912982D01*
X23400909Y16862982D01*
X23361985Y16840509D01*
X23361982Y16840506D01*
X23259493Y16738017D01*
X23259488Y16738011D01*
X23187017Y16612488D01*
X23187016Y16612485D01*
X23149500Y16472475D01*
X-23312898Y16472475D01*
X-23337016Y16562485D01*
X-23337017Y16562488D01*
X-23409488Y16688011D01*
X-23409493Y16688017D01*
X-23511982Y16790506D01*
X-23511985Y16790509D01*
X-23598587Y16840509D01*
X-23637511Y16862982D01*
X-23637512Y16862982D01*
X-23637515Y16862984D01*
X-23777525Y16900500D01*
X-23922475Y16900500D01*
X-24062485Y16862984D01*
X-24188015Y16790509D01*
X-24290509Y16688015D01*
X-24362984Y16562485D01*
X-24400500Y16422475D01*
X-49499500Y16422475D01*
X-49499500Y19167514D01*
X-45975500Y19167514D01*
X-45975500Y18982486D01*
X-45946555Y18799736D01*
X-45946554Y18799734D01*
X-45889380Y18623767D01*
X-45889379Y18623764D01*
X-45856631Y18559493D01*
X-45805378Y18458904D01*
X-45696621Y18309213D01*
X-45565787Y18178379D01*
X-45416096Y18069622D01*
X-45251235Y17985620D01*
X-45251232Y17985619D01*
X-45075265Y17928445D01*
X-44983889Y17913972D01*
X-44892514Y17899500D01*
X-44892513Y17899500D01*
X-44707487Y17899500D01*
X-44707486Y17899500D01*
X-44646569Y17909148D01*
X-44524734Y17928445D01*
X-44348767Y17985619D01*
X-44348764Y17985620D01*
X-44183903Y18069622D01*
X-44098499Y18131672D01*
X-44034213Y18178379D01*
X-44034211Y18178381D01*
X-44034210Y18178381D01*
X-43903381Y18309210D01*
X-43903381Y18309211D01*
X-43903379Y18309213D01*
X-43801454Y18449500D01*
X-43794622Y18458903D01*
X-43710620Y18623764D01*
X-43710619Y18623767D01*
X-43653445Y18799734D01*
X-43624500Y18982486D01*
X-43624500Y19072475D01*
X45349500Y19072475D01*
X45349500Y18927525D01*
X45382583Y18804055D01*
X45387017Y18787511D01*
X45459488Y18661988D01*
X45459493Y18661982D01*
X45561982Y18559493D01*
X45561988Y18559488D01*
X45687511Y18487017D01*
X45687510Y18487017D01*
X45729108Y18475870D01*
X45827525Y18449500D01*
X45827528Y18449500D01*
X45972472Y18449500D01*
X45972475Y18449500D01*
X46112485Y18487016D01*
X46112488Y18487017D01*
X46238011Y18559488D01*
X46238017Y18559493D01*
X46340506Y18661982D01*
X46340509Y18661985D01*
X46412984Y18787515D01*
X46450500Y18927525D01*
X46450500Y19072475D01*
X46412984Y19212485D01*
X46340509Y19338015D01*
X46238015Y19440509D01*
X46112488Y19512982D01*
X46112487Y19512982D01*
X46112485Y19512984D01*
X45972475Y19550500D01*
X45827525Y19550500D01*
X45687515Y19512984D01*
X45687512Y19512982D01*
X45687511Y19512982D01*
X45561988Y19440511D01*
X45561985Y19440509D01*
X45561982Y19440506D01*
X45459493Y19338017D01*
X45459488Y19338011D01*
X45387017Y19212488D01*
X45387016Y19212485D01*
X45349500Y19072475D01*
X-43624500Y19072475D01*
X-43624500Y19167513D01*
X-43653445Y19350265D01*
X-43710619Y19526232D01*
X-43710620Y19526235D01*
X-43794622Y19691096D01*
X-43903379Y19840787D01*
X-44034213Y19971621D01*
X-44183904Y20080378D01*
X-44264763Y20121577D01*
X-44348764Y20164379D01*
X-44348767Y20164380D01*
X-44436750Y20192967D01*
X-44524736Y20221555D01*
X-44707486Y20250500D01*
X-44892514Y20250500D01*
X-45075264Y20221555D01*
X-45251235Y20164379D01*
X-45416096Y20080378D01*
X-45565787Y19971621D01*
X-45696621Y19840787D01*
X-45805378Y19691096D01*
X-45889379Y19526235D01*
X-45946555Y19350264D01*
X-45975500Y19167514D01*
X-49499500Y19167514D01*
X-49499500Y21072475D01*
X14399500Y21072475D01*
X14399500Y20927525D01*
X14430586Y20811511D01*
X14437017Y20787511D01*
X14509488Y20661988D01*
X14509493Y20661982D01*
X14611982Y20559493D01*
X14611988Y20559488D01*
X14737511Y20487017D01*
X14737510Y20487017D01*
X14779108Y20475870D01*
X14877525Y20449500D01*
X14877528Y20449500D01*
X15022472Y20449500D01*
X15022475Y20449500D01*
X15162485Y20487016D01*
X15162488Y20487017D01*
X15288011Y20559488D01*
X15288017Y20559493D01*
X15390506Y20661982D01*
X15390509Y20661985D01*
X15390511Y20661988D01*
X15462982Y20787511D01*
X15462982Y20787512D01*
X15462984Y20787515D01*
X15500500Y20927525D01*
X15500500Y21022475D01*
X17899500Y21022475D01*
X17899500Y20877525D01*
X17926862Y20775411D01*
X17937017Y20737511D01*
X18009488Y20611988D01*
X18009493Y20611982D01*
X18111982Y20509493D01*
X18111988Y20509488D01*
X18237511Y20437017D01*
X18237510Y20437017D01*
X18279108Y20425870D01*
X18377525Y20399500D01*
X18377528Y20399500D01*
X18522472Y20399500D01*
X18522475Y20399500D01*
X18662485Y20437016D01*
X18662488Y20437017D01*
X18788011Y20509488D01*
X18788017Y20509493D01*
X18890506Y20611982D01*
X18890509Y20611985D01*
X18890511Y20611988D01*
X18962982Y20737511D01*
X18962982Y20737512D01*
X18962984Y20737515D01*
X19000500Y20877525D01*
X19000500Y21022475D01*
X18962984Y21162485D01*
X18890509Y21288015D01*
X18788015Y21390509D01*
X18662488Y21462982D01*
X18662487Y21462982D01*
X18662485Y21462984D01*
X18522475Y21500500D01*
X18377525Y21500500D01*
X18237515Y21462984D01*
X18237512Y21462982D01*
X18237511Y21462982D01*
X18114905Y21392195D01*
X18111985Y21390509D01*
X18111982Y21390506D01*
X18009493Y21288017D01*
X18009488Y21288011D01*
X17937017Y21162488D01*
X17937016Y21162485D01*
X17899500Y21022475D01*
X15500500Y21022475D01*
X15500500Y21072475D01*
X15462984Y21212485D01*
X15390509Y21338015D01*
X15288015Y21440509D01*
X15162488Y21512982D01*
X15162487Y21512982D01*
X15162485Y21512984D01*
X15022475Y21550500D01*
X14877525Y21550500D01*
X14737515Y21512984D01*
X14737512Y21512982D01*
X14737511Y21512982D01*
X14650909Y21462982D01*
X14611985Y21440509D01*
X14611982Y21440506D01*
X14509493Y21338017D01*
X14509488Y21338011D01*
X14437017Y21212488D01*
X14437016Y21212485D01*
X14399500Y21072475D01*
X-49499500Y21072475D01*
X-49499500Y22022475D01*
X29799500Y22022475D01*
X29799500Y21877525D01*
X29832583Y21754055D01*
X29837017Y21737511D01*
X29909488Y21611988D01*
X29909493Y21611982D01*
X30011982Y21509493D01*
X30011988Y21509488D01*
X30137511Y21437017D01*
X30137510Y21437017D01*
X30179108Y21425870D01*
X30277525Y21399500D01*
X30277528Y21399500D01*
X30422472Y21399500D01*
X30422475Y21399500D01*
X30562485Y21437016D01*
X30562488Y21437017D01*
X30688011Y21509488D01*
X30688017Y21509493D01*
X30790506Y21611982D01*
X30790509Y21611985D01*
X30851915Y21718343D01*
X42609499Y21718343D01*
X42645065Y21539547D01*
X42645068Y21539537D01*
X42714831Y21371112D01*
X42714833Y21371108D01*
X42816113Y21219532D01*
X42816119Y21219524D01*
X42945024Y21090619D01*
X42945032Y21090613D01*
X43096608Y20989333D01*
X43096612Y20989331D01*
X43265037Y20919568D01*
X43265047Y20919565D01*
X43443844Y20884000D01*
X44101157Y20884000D01*
X44168196Y20864315D01*
X44213951Y20811511D01*
X44223895Y20742353D01*
X44222774Y20735809D01*
X44205500Y20648967D01*
X44205500Y20520032D01*
X44230649Y20393596D01*
X44230652Y20393587D01*
X44279986Y20274482D01*
X44279987Y20274480D01*
X44351616Y20167280D01*
X44351619Y20167276D01*
X44442776Y20076119D01*
X44442780Y20076116D01*
X44549980Y20004487D01*
X44549982Y20004486D01*
X44669087Y19955152D01*
X44669096Y19955149D01*
X44795532Y19930000D01*
X44795537Y19930000D01*
X44924467Y19930000D01*
X45050903Y19955149D01*
X45050912Y19955152D01*
X45170017Y20004486D01*
X45170019Y20004487D01*
X45277219Y20076116D01*
X45277223Y20076119D01*
X45368380Y20167276D01*
X45368383Y20167280D01*
X45440012Y20274480D01*
X45440013Y20274482D01*
X45489347Y20393587D01*
X45489350Y20393596D01*
X45514499Y20520032D01*
X45514500Y20520036D01*
X45514500Y20648964D01*
X45514499Y20648967D01*
X45489350Y20775403D01*
X45489348Y20775406D01*
X45489348Y20775411D01*
X45440011Y20894522D01*
X45368383Y21001720D01*
X45277220Y21092883D01*
X45170022Y21164511D01*
X45050911Y21213848D01*
X45004268Y21223125D01*
X44942360Y21255508D01*
X44907785Y21316223D01*
X44911524Y21385993D01*
X44913900Y21392195D01*
X44916926Y21399500D01*
X44974933Y21539542D01*
X44985401Y21592165D01*
X45010500Y21718343D01*
X45010500Y21900656D01*
X44987202Y22017780D01*
X44983601Y22035884D01*
X46509500Y22035884D01*
X46509500Y21883115D01*
X46539300Y21733302D01*
X46539302Y21733294D01*
X46597759Y21592165D01*
X46597764Y21592156D01*
X46682629Y21465148D01*
X46682632Y21465144D01*
X46790644Y21357132D01*
X46790648Y21357129D01*
X46917656Y21272264D01*
X46917665Y21272259D01*
X47058794Y21213802D01*
X47058802Y21213800D01*
X47208615Y21184000D01*
X47208620Y21184000D01*
X48011384Y21184000D01*
X48161197Y21213800D01*
X48161205Y21213802D01*
X48302334Y21272259D01*
X48302343Y21272264D01*
X48429351Y21357129D01*
X48429355Y21357132D01*
X48537367Y21465144D01*
X48537370Y21465148D01*
X48622235Y21592156D01*
X48622240Y21592165D01*
X48635482Y21624136D01*
X48680698Y21733295D01*
X48710500Y21883120D01*
X48710500Y22035880D01*
X48680698Y22185705D01*
X48622239Y22326837D01*
X48537370Y22453852D01*
X48429352Y22561870D01*
X48302337Y22646739D01*
X48161205Y22705198D01*
X48011382Y22734999D01*
X48011381Y22735000D01*
X48011380Y22735000D01*
X47208620Y22735000D01*
X47208619Y22735000D01*
X47208615Y22734999D01*
X47058795Y22705198D01*
X46949636Y22659982D01*
X46917665Y22646740D01*
X46917656Y22646735D01*
X46790648Y22561870D01*
X46790644Y22561867D01*
X46682632Y22453855D01*
X46682629Y22453851D01*
X46597764Y22326843D01*
X46597759Y22326834D01*
X46539302Y22185705D01*
X46539300Y22185697D01*
X46509500Y22035884D01*
X44983601Y22035884D01*
X44974934Y22079452D01*
X44974933Y22079458D01*
X44905167Y22247889D01*
X44878358Y22288011D01*
X44809872Y22390509D01*
X44803883Y22399472D01*
X44674972Y22528383D01*
X44598672Y22579364D01*
X44523391Y22629666D01*
X44523387Y22629668D01*
X44467245Y22652922D01*
X44354958Y22699433D01*
X44296445Y22711072D01*
X44176156Y22735000D01*
X44176154Y22735000D01*
X43443846Y22735000D01*
X43443844Y22735000D01*
X43294029Y22705199D01*
X43265042Y22699433D01*
X43265037Y22699431D01*
X43096612Y22629668D01*
X43096608Y22629666D01*
X42945032Y22528386D01*
X42945024Y22528380D01*
X42816119Y22399475D01*
X42816113Y22399467D01*
X42714833Y22247891D01*
X42714831Y22247887D01*
X42645068Y22079462D01*
X42645065Y22079452D01*
X42609500Y21900656D01*
X42609500Y21718343D01*
X42609499Y21718343D01*
X30851915Y21718343D01*
X30862984Y21737515D01*
X30900500Y21877525D01*
X30900500Y22022475D01*
X30862984Y22162485D01*
X30790509Y22288015D01*
X30688015Y22390509D01*
X30562488Y22462982D01*
X30562487Y22462982D01*
X30562485Y22462984D01*
X30422475Y22500500D01*
X30277525Y22500500D01*
X30137515Y22462984D01*
X30137512Y22462982D01*
X30137511Y22462982D01*
X30011988Y22390511D01*
X30011985Y22390509D01*
X30011982Y22390506D01*
X29909493Y22288017D01*
X29909488Y22288011D01*
X29837017Y22162488D01*
X29837016Y22162485D01*
X29799500Y22022475D01*
X-49499500Y22022475D01*
X-49499500Y23372475D01*
X-22850500Y23372475D01*
X-22850500Y23227525D01*
X-22812984Y23087515D01*
X-22740509Y22961985D01*
X-22740506Y22961982D01*
X-22638017Y22859493D01*
X-22638011Y22859488D01*
X-22512488Y22787017D01*
X-22512489Y22787017D01*
X-22512485Y22787016D01*
X-22372475Y22749500D01*
X-22372472Y22749500D01*
X-22227528Y22749500D01*
X-22227525Y22749500D01*
X-22087515Y22787016D01*
X-22087511Y22787017D01*
X-21961988Y22859488D01*
X-21961982Y22859493D01*
X-21859493Y22961982D01*
X-21859488Y22961988D01*
X-21787017Y23087511D01*
X-21782583Y23104055D01*
X-21749500Y23227525D01*
X-21749500Y23372475D01*
X27949500Y23372475D01*
X27949500Y23227525D01*
X27982583Y23104055D01*
X27987017Y23087511D01*
X28059488Y22961988D01*
X28059493Y22961982D01*
X28161982Y22859493D01*
X28161988Y22859488D01*
X28287511Y22787017D01*
X28287510Y22787017D01*
X28329108Y22775870D01*
X28427525Y22749500D01*
X28427528Y22749500D01*
X28572472Y22749500D01*
X28572475Y22749500D01*
X28712485Y22787016D01*
X28712488Y22787017D01*
X28838011Y22859488D01*
X28838017Y22859493D01*
X28940506Y22961982D01*
X28940509Y22961985D01*
X29012984Y23087515D01*
X29050500Y23227525D01*
X29050500Y23372475D01*
X29012984Y23512485D01*
X28940509Y23638015D01*
X28838015Y23740509D01*
X28712488Y23812982D01*
X28712487Y23812982D01*
X28712485Y23812984D01*
X28572475Y23850500D01*
X28427525Y23850500D01*
X28287515Y23812984D01*
X28287512Y23812982D01*
X28287511Y23812982D01*
X28161988Y23740511D01*
X28161985Y23740509D01*
X28161982Y23740506D01*
X28059493Y23638017D01*
X28059488Y23638011D01*
X27987017Y23512488D01*
X27987016Y23512485D01*
X27949500Y23372475D01*
X-21749500Y23372475D01*
X-21787016Y23512485D01*
X-21787017Y23512488D01*
X-21859488Y23638011D01*
X-21859493Y23638017D01*
X-21961982Y23740506D01*
X-21961985Y23740509D01*
X-21961988Y23740511D01*
X-22087511Y23812982D01*
X-22087512Y23812982D01*
X-22087515Y23812984D01*
X-22227525Y23850500D01*
X-22372475Y23850500D01*
X-22512485Y23812984D01*
X-22638015Y23740509D01*
X-22740509Y23638015D01*
X-22812984Y23512485D01*
X-22850500Y23372475D01*
X-49499500Y23372475D01*
X-49499500Y25372475D01*
X18749500Y25372475D01*
X18749500Y25227525D01*
X18782583Y25104055D01*
X18787017Y25087511D01*
X18859488Y24961988D01*
X18859493Y24961982D01*
X18961982Y24859493D01*
X18961988Y24859488D01*
X19087511Y24787017D01*
X19087510Y24787017D01*
X19129108Y24775870D01*
X19227525Y24749500D01*
X19227528Y24749500D01*
X19372472Y24749500D01*
X19372475Y24749500D01*
X19512485Y24787016D01*
X19512488Y24787017D01*
X19638011Y24859488D01*
X19638017Y24859493D01*
X19740506Y24961982D01*
X19740509Y24961985D01*
X19812984Y25087515D01*
X19850500Y25227525D01*
X19850500Y25372475D01*
X19812984Y25512485D01*
X19740509Y25638015D01*
X19638015Y25740509D01*
X19512488Y25812982D01*
X19512487Y25812982D01*
X19512485Y25812984D01*
X19372475Y25850500D01*
X19227525Y25850500D01*
X19087515Y25812984D01*
X19087512Y25812982D01*
X19087511Y25812982D01*
X18961988Y25740511D01*
X18961985Y25740509D01*
X18961982Y25740506D01*
X18859493Y25638017D01*
X18859488Y25638011D01*
X18787017Y25512488D01*
X18787016Y25512485D01*
X18749500Y25372475D01*
X-49499500Y25372475D01*
X-49499500Y26872477D01*
X31949500Y26872477D01*
X31949500Y26727527D01*
X31982583Y26604057D01*
X31987017Y26587513D01*
X32059488Y26461990D01*
X32059493Y26461984D01*
X32161982Y26359495D01*
X32161988Y26359490D01*
X32287511Y26287019D01*
X32287510Y26287019D01*
X32329108Y26275872D01*
X32427525Y26249502D01*
X32427528Y26249502D01*
X32572472Y26249502D01*
X32572475Y26249502D01*
X32712485Y26287018D01*
X32712488Y26287019D01*
X32838011Y26359490D01*
X32838017Y26359495D01*
X32940506Y26461984D01*
X32940509Y26461987D01*
X33012984Y26587517D01*
X33050500Y26727527D01*
X33050500Y26872477D01*
X33012984Y27012487D01*
X32940509Y27138017D01*
X32838015Y27240511D01*
X32712488Y27312984D01*
X32712487Y27312984D01*
X32712485Y27312986D01*
X32572475Y27350502D01*
X32427525Y27350502D01*
X32287515Y27312986D01*
X32287512Y27312984D01*
X32287511Y27312984D01*
X32161988Y27240513D01*
X32161985Y27240511D01*
X32161982Y27240508D01*
X32059493Y27138019D01*
X32059488Y27138013D01*
X31987017Y27012490D01*
X31987016Y27012487D01*
X31949500Y26872477D01*
X-49499500Y26872477D01*
X-49499500Y28072475D01*
X27949500Y28072475D01*
X27949500Y27927525D01*
X27981128Y27809488D01*
X27987017Y27787511D01*
X28059488Y27661988D01*
X28059493Y27661982D01*
X28161982Y27559493D01*
X28161988Y27559488D01*
X28287511Y27487017D01*
X28287510Y27487017D01*
X28329108Y27475870D01*
X28427525Y27449500D01*
X28427528Y27449500D01*
X28572472Y27449500D01*
X28572475Y27449500D01*
X28712485Y27487016D01*
X28712488Y27487017D01*
X28838011Y27559488D01*
X28838017Y27559493D01*
X28940506Y27661982D01*
X28940509Y27661985D01*
X28940511Y27661988D01*
X29012982Y27787511D01*
X29012982Y27787512D01*
X29012984Y27787515D01*
X29050500Y27927525D01*
X29050500Y28072475D01*
X29012984Y28212485D01*
X28949481Y28322475D01*
X29499500Y28322475D01*
X29499500Y28177525D01*
X29527648Y28072475D01*
X29537017Y28037511D01*
X29609488Y27911988D01*
X29609493Y27911982D01*
X29711982Y27809493D01*
X29711988Y27809488D01*
X29837511Y27737017D01*
X29837510Y27737017D01*
X29879108Y27725870D01*
X29977525Y27699500D01*
X29977528Y27699500D01*
X30122472Y27699500D01*
X30122475Y27699500D01*
X30262485Y27737016D01*
X30262488Y27737017D01*
X30388011Y27809488D01*
X30388017Y27809493D01*
X30490506Y27911982D01*
X30490509Y27911985D01*
X30562984Y28037515D01*
X30600500Y28177525D01*
X30600500Y28322475D01*
X30562984Y28462485D01*
X30490509Y28588015D01*
X30388015Y28690509D01*
X30262488Y28762982D01*
X30262487Y28762982D01*
X30262485Y28762984D01*
X30122475Y28800500D01*
X29977525Y28800500D01*
X29837515Y28762984D01*
X29837512Y28762982D01*
X29837511Y28762982D01*
X29785884Y28733175D01*
X29711985Y28690509D01*
X29711982Y28690506D01*
X29609493Y28588017D01*
X29609488Y28588011D01*
X29537017Y28462488D01*
X29537016Y28462485D01*
X29499500Y28322475D01*
X28949481Y28322475D01*
X28940509Y28338015D01*
X28838015Y28440509D01*
X28712488Y28512982D01*
X28712487Y28512982D01*
X28712485Y28512984D01*
X28572475Y28550500D01*
X28427525Y28550500D01*
X28287515Y28512984D01*
X28287512Y28512982D01*
X28287511Y28512982D01*
X28200048Y28462485D01*
X28161985Y28440509D01*
X28161982Y28440506D01*
X28059493Y28338017D01*
X28059488Y28338011D01*
X27987017Y28212488D01*
X27987016Y28212485D01*
X27949500Y28072475D01*
X-49499500Y28072475D01*
X-49499500Y30521550D01*
X-47254500Y30521550D01*
X-47254500Y30278450D01*
X-47222769Y30037429D01*
X-47180170Y29878450D01*
X-47159850Y29802613D01*
X-47066824Y29578027D01*
X-47066817Y29578012D01*
X-46945269Y29367483D01*
X-46797277Y29174619D01*
X-46797270Y29174611D01*
X-46625389Y29002730D01*
X-46625380Y29002722D01*
X-46432516Y28854730D01*
X-46221987Y28733182D01*
X-46221972Y28733175D01*
X-45997386Y28640149D01*
X-45762569Y28577230D01*
X-45521559Y28545501D01*
X-45521556Y28545500D01*
X-45521550Y28545500D01*
X-45521543Y28545500D01*
X-45278457Y28545500D01*
X-45278450Y28545500D01*
X-45278444Y28545500D01*
X-45278440Y28545501D01*
X-45037430Y28577230D01*
X-44802613Y28640149D01*
X-44578027Y28733175D01*
X-44578012Y28733182D01*
X-44367483Y28854730D01*
X-44174619Y29002722D01*
X-44002722Y29174619D01*
X-43854730Y29367483D01*
X-43733182Y29578012D01*
X-43733175Y29578027D01*
X-43640149Y29802613D01*
X-43577230Y30037430D01*
X-43566157Y30121543D01*
X43145500Y30121543D01*
X43145500Y29878456D01*
X43145501Y29878440D01*
X43177230Y29637430D01*
X43240149Y29402613D01*
X43333175Y29178027D01*
X43333182Y29178012D01*
X43454730Y28967483D01*
X43602722Y28774619D01*
X43774619Y28602722D01*
X43967483Y28454730D01*
X44178012Y28333182D01*
X44178027Y28333175D01*
X44402613Y28240149D01*
X44637430Y28177230D01*
X44878440Y28145501D01*
X44878444Y28145500D01*
X44878450Y28145500D01*
X44878457Y28145500D01*
X45121543Y28145500D01*
X45121550Y28145500D01*
X45121556Y28145500D01*
X45121559Y28145501D01*
X45362569Y28177230D01*
X45597386Y28240149D01*
X45821972Y28333175D01*
X45821987Y28333182D01*
X46032516Y28454730D01*
X46225380Y28602722D01*
X46225389Y28602730D01*
X46397270Y28774611D01*
X46397277Y28774619D01*
X46417137Y28800500D01*
X46458750Y28854731D01*
X46545269Y28967483D01*
X46666817Y29178012D01*
X46666824Y29178027D01*
X46759850Y29402613D01*
X46822769Y29637430D01*
X46854500Y29878450D01*
X46854500Y30121550D01*
X46822769Y30362571D01*
X46759850Y30597388D01*
X46666819Y30821984D01*
X46545269Y31032516D01*
X46397278Y31225380D01*
X46397273Y31225384D01*
X46397270Y31225389D01*
X46225389Y31397270D01*
X46225384Y31397273D01*
X46225380Y31397278D01*
X46032516Y31545269D01*
X45821984Y31666819D01*
X45597388Y31759850D01*
X45362571Y31822769D01*
X45121550Y31854500D01*
X44878450Y31854500D01*
X44637429Y31822769D01*
X44402612Y31759850D01*
X44294171Y31714932D01*
X44178027Y31666824D01*
X44178012Y31666817D01*
X43967483Y31545269D01*
X43774619Y31397277D01*
X43774611Y31397270D01*
X43602730Y31225389D01*
X43602722Y31225380D01*
X43454730Y31032516D01*
X43333182Y30821987D01*
X43333175Y30821972D01*
X43240149Y30597386D01*
X43177230Y30362569D01*
X43145501Y30121559D01*
X43145500Y30121543D01*
X-43566157Y30121543D01*
X-43563491Y30141794D01*
X-43545501Y30278439D01*
X-43545500Y30278456D01*
X-43545500Y30521543D01*
X-43545501Y30521559D01*
X-43577230Y30762569D01*
X-43640149Y30997386D01*
X-43733175Y31221972D01*
X-43733182Y31221987D01*
X-43854730Y31432516D01*
X-44002722Y31625380D01*
X-44002730Y31625389D01*
X-44174611Y31797270D01*
X-44174619Y31797277D01*
X-44367483Y31945269D01*
X-44578012Y32066817D01*
X-44578027Y32066824D01*
X-44694171Y32114932D01*
X-44802612Y32159850D01*
X-45037429Y32222769D01*
X-45278450Y32254500D01*
X-45521550Y32254500D01*
X-45762571Y32222769D01*
X-45997388Y32159850D01*
X-46221984Y32066819D01*
X-46432516Y31945269D01*
X-46625380Y31797278D01*
X-46625384Y31797273D01*
X-46625389Y31797270D01*
X-46797270Y31625389D01*
X-46797273Y31625384D01*
X-46797278Y31625380D01*
X-46945269Y31432516D01*
X-47066819Y31221984D01*
X-47159850Y30997388D01*
X-47222769Y30762571D01*
X-47254500Y30521550D01*
X-49499500Y30521550D01*
X-49499500Y32703469D01*
X31009500Y32703469D01*
X31009500Y32496530D01*
X31049868Y32293587D01*
X31049870Y32293579D01*
X31129058Y32102403D01*
X31244024Y31930342D01*
X31390342Y31784024D01*
X31562403Y31669058D01*
X31753579Y31589870D01*
X31753587Y31589868D01*
X31956530Y31549500D01*
X31956535Y31549500D01*
X32163469Y31549500D01*
X32366412Y31589868D01*
X32366420Y31589870D01*
X32557596Y31669058D01*
X32557598Y31669059D01*
X32649180Y31730252D01*
X32729657Y31784024D01*
X32875975Y31930342D01*
X32967165Y32066819D01*
X32990941Y32102402D01*
X33070130Y32293580D01*
X33110500Y32496535D01*
X33110500Y32703465D01*
X33110499Y32703469D01*
X33549500Y32703469D01*
X33549500Y32496530D01*
X33589868Y32293587D01*
X33589870Y32293579D01*
X33669058Y32102403D01*
X33784024Y31930342D01*
X33930342Y31784024D01*
X34102403Y31669058D01*
X34293579Y31589870D01*
X34293587Y31589868D01*
X34496530Y31549500D01*
X34496535Y31549500D01*
X34703469Y31549500D01*
X34906412Y31589868D01*
X34906420Y31589870D01*
X35097596Y31669058D01*
X35097598Y31669059D01*
X35189180Y31730252D01*
X35269657Y31784024D01*
X35415975Y31930342D01*
X35507165Y32066819D01*
X35530941Y32102402D01*
X35610130Y32293580D01*
X35650500Y32496535D01*
X35650500Y32703465D01*
X35610130Y32906420D01*
X35530941Y33097598D01*
X35415977Y33269655D01*
X35415974Y33269658D01*
X35297474Y33388159D01*
X35269658Y33415974D01*
X35269657Y33415975D01*
X35269655Y33415977D01*
X35189174Y33469752D01*
X36089500Y33469752D01*
X36089500Y31730247D01*
X36101131Y31671770D01*
X36101132Y31671769D01*
X36145447Y31605447D01*
X36211769Y31561132D01*
X36211770Y31561131D01*
X36270247Y31549500D01*
X36270252Y31549500D01*
X38009752Y31549500D01*
X38068229Y31561131D01*
X38068230Y31561132D01*
X38134552Y31605447D01*
X38178867Y31671769D01*
X38178868Y31671770D01*
X38190499Y31730247D01*
X38190500Y31730249D01*
X38190500Y33469750D01*
X38190499Y33469752D01*
X38178868Y33528229D01*
X38178867Y33528230D01*
X38178867Y33528231D01*
X38134552Y33594552D01*
X38068231Y33638867D01*
X38068229Y33638867D01*
X38068229Y33638868D01*
X38024568Y33647552D01*
X38009751Y33650499D01*
X38009751Y33650500D01*
X38009748Y33650500D01*
X36270252Y33650500D01*
X36270249Y33650500D01*
X36270247Y33650499D01*
X36211770Y33638868D01*
X36211769Y33638867D01*
X36145447Y33594552D01*
X36101132Y33528230D01*
X36101131Y33528229D01*
X36089500Y33469752D01*
X35189174Y33469752D01*
X35097598Y33530941D01*
X34906420Y33610130D01*
X34703467Y33650499D01*
X34703466Y33650500D01*
X34703465Y33650500D01*
X34496535Y33650500D01*
X34496534Y33650500D01*
X34496530Y33650499D01*
X34293580Y33610130D01*
X34102402Y33530941D01*
X34010826Y33469752D01*
X33930342Y33415975D01*
X33784024Y33269657D01*
X33669058Y33097596D01*
X33589870Y32906420D01*
X33589868Y32906412D01*
X33549500Y32703469D01*
X33110499Y32703469D01*
X33070130Y32906420D01*
X32990941Y33097598D01*
X32875977Y33269655D01*
X32729655Y33415977D01*
X32557598Y33530941D01*
X32366420Y33610130D01*
X32163467Y33650499D01*
X32163466Y33650500D01*
X32163465Y33650500D01*
X31956535Y33650500D01*
X31956534Y33650500D01*
X31956530Y33650499D01*
X31753580Y33610130D01*
X31562402Y33530941D01*
X31470826Y33469752D01*
X31390342Y33415975D01*
X31244024Y33269657D01*
X31129058Y33097596D01*
X31049870Y32906420D01*
X31049868Y32906412D01*
X31009500Y32703469D01*
X-49499500Y32703469D01*
X-49499500Y34375500D01*
X-49479815Y34442539D01*
X-49427011Y34488294D01*
X-49375500Y34499500D01*
X49375500Y34499500D01*
X49442539Y34479815D01*
G37*
%TD.AperFunction*%
%TD*%
M02*
